  0
SECTION
  2
HEADER
  9
$ACADVER
  1
AC1032
  9
$ACADMAINTVER
 90
      155
  9
$DWGCODEPAGE
  3
ANSI_936
  9
$LASTSAVEDBY
  1
hcwr_
  9
$REQUIREDVERSIONS
160
                 0
  9
$INSBASE
 10
0.0
 20
0.0
 30
0.0
  9
$EXTMIN
 10
-1665.144287109374
 20
-2627.082734011494
 30
-280.0
  9
$EXTMAX
 10
701.80322265625
 20
196.2693041583013
 30
0.0
  9
$LIMMIN
 10
0.0
 20
0.0
  9
$LIMMAX
 10
420.0
 20
297.0
  9
$ORTHOMODE
 70
     0
  9
$REGENMODE
 70
     1
  9
$FILLMODE
 70
     1
  9
$QTEXTMODE
 70
     0
  9
$MIRRTEXT
 70
     0
  9
$LTSCALE
 40
1.0
  9
$ATTMODE
 70
     1
  9
$TEXTSIZE
 40
5.700722537410682
  9
$TRACEWID
 40
1.0
  9
$TEXTSTYLE
  7
Standard
  9
$CLAYER
  8
HD
  9
$CELTYPE
  6
ByLayer
  9
$CECOLOR
 62
   256
  9
$CELTSCALE
 40
1.0
  9
$DISPSILH
 70
     0
  9
$DIMSCALE
 40
1.0
  9
$DIMASZ
 40
2.5
  9
$DIMEXO
 40
0.625
  9
$DIMDLI
 40
3.75
  9
$DIMRND
 40
0.0
  9
$DIMDLE
 40
0.0
  9
$DIMEXE
 40
1.25
  9
$DIMTP
 40
0.0
  9
$DIMTM
 40
0.0
  9
$DIMTXT
 40
2.5
  9
$DIMCEN
 40
2.5
  9
$DIMTSZ
 40
0.0
  9
$DIMTOL
 70
     0
  9
$DIMLIM
 70
     0
  9
$DIMTIH
 70
     0
  9
$DIMTOH
 70
     0
  9
$DIMSE1
 70
     0
  9
$DIMSE2
 70
     0
  9
$DIMTAD
 70
     1
  9
$DIMZIN
 70
     8
  9
$DIMBLK
  1

  9
$DIMASO
 70
     1
  9
$DIMSHO
 70
     1
  9
$DIMPOST
  1

  9
$DIMAPOST
  1

  9
$DIMALT
 70
     0
  9
$DIMALTD
 70
     3
  9
$DIMALTF
 40
0.03937007874016
  9
$DIMLFAC
 40
1.0
  9
$DIMTOFL
 70
     1
  9
$DIMTVP
 40
0.0
  9
$DIMTIX
 70
     0
  9
$DIMSOXD
 70
     0
  9
$DIMSAH
 70
     0
  9
$DIMBLK1
  1

  9
$DIMBLK2
  1

  9
$DIMSTYLE
  2
ISO-25
  9
$DIMCLRD
 70
     0
  9
$DIMCLRE
 70
     0
  9
$DIMCLRT
 70
     0
  9
$DIMTFAC
 40
1.0
  9
$DIMGAP
 40
0.625
  9
$DIMJUST
 70
     0
  9
$DIMSD1
 70
     0
  9
$DIMSD2
 70
     0
  9
$DIMTOLJ
 70
     0
  9
$DIMTZIN
 70
     8
  9
$DIMALTZ
 70
     0
  9
$DIMALTTZ
 70
     0
  9
$DIMUPT
 70
     0
  9
$DIMDEC
 70
     2
  9
$DIMTDEC
 70
     2
  9
$DIMALTU
 70
     2
  9
$DIMALTTD
 70
     3
  9
$DIMTXSTY
  7
Standard
  9
$DIMAUNIT
 70
     0
  9
$DIMADEC
 70
     0
  9
$DIMALTRND
 40
0.0
  9
$DIMAZIN
 70
     0
  9
$DIMDSEP
 70
    44
  9
$DIMATFIT
 70
     3
  9
$DIMFRAC
 70
     0
  9
$DIMLDRBLK
  1

  9
$DIMLUNIT
 70
     2
  9
$DIMLWD
 70
    -2
  9
$DIMLWE
 70
    -2
  9
$DIMTMOVE
 70
     0
  9
$DIMFXL
 40
1.0
  9
$DIMFXLON
 70
     0
  9
$DIMJOGANG
 40
0.7853981633974483
  9
$DIMTFILL
 70
     0
  9
$DIMTFILLCLR
 70
     0
  9
$DIMARCSYM
 70
     0
  9
$DIMLTYPE
  6

  9
$DIMLTEX1
  6

  9
$DIMLTEX2
  6

  9
$DIMTXTDIRECTION
 70
     0
  9
$LUNITS
 70
     2
  9
$LUPREC
 70
     4
  9
$SKETCHINC
 40
1.0
  9
$FILLETRAD
 40
0.0
  9
$AUNITS
 70
     0
  9
$AUPREC
 70
     0
  9
$MENU
  1
.
  9
$ELEVATION
 40
0.0
  9
$PELEVATION
 40
0.0
  9
$THICKNESS
 40
0.0
  9
$LIMCHECK
 70
     0
  9
$CHAMFERA
 40
0.0
  9
$CHAMFERB
 40
0.0
  9
$CHAMFERC
 40
0.0
  9
$CHAMFERD
 40
0.0
  9
$SKPOLY
 70
     0
  9
$TDCREATE
 40
2458617.563923612
  9
$TDUCREATE
 40
2458617.230590278
  9
$TDUPDATE
 40
2459079.495810185
  9
$TDUUPDATE
 40
2459079.162476852
  9
$TDINDWG
 40
2.3571990741
  9
$TDUSRTIMER
 40
2.3571990741
  9
$USRTIMER
 70
     1
  9
$ANGBASE
 50
0.0
  9
$ANGDIR
 70
     0
  9
$PDMODE
 70
    34
  9
$PDSIZE
 40
3.0
  9
$PLINEWID
 40
0.0
  9
$SPLFRAME
 70
     0
  9
$SPLINETYPE
 70
     6
  9
$SPLINESEGS
 70
     8
  9
$HANDSEED
  5
1018
  9
$SURFTAB1
 70
     6
  9
$SURFTAB2
 70
     6
  9
$SURFTYPE
 70
     6
  9
$SURFU
 70
     6
  9
$SURFV
 70
     6
  9
$UCSBASE
  2

  9
$UCSNAME
  2

  9
$UCSORG
 10
0.0
 20
0.0
 30
0.0
  9
$UCSXDIR
 10
1.0
 20
0.0
 30
0.0
  9
$UCSYDIR
 10
0.0
 20
1.0
 30
0.0
  9
$UCSORTHOREF
  2

  9
$UCSORTHOVIEW
 70
     1
  9
$UCSORGTOP
 10
0.0
 20
0.0
 30
0.0
  9
$UCSORGBOTTOM
 10
0.0
 20
0.0
 30
0.0
  9
$UCSORGLEFT
 10
0.0
 20
0.0
 30
0.0
  9
$UCSORGRIGHT
 10
0.0
 20
0.0
 30
0.0
  9
$UCSORGFRONT
 10
0.0
 20
0.0
 30
0.0
  9
$UCSORGBACK
 10
0.0
 20
0.0
 30
0.0
  9
$PUCSBASE
  2

  9
$PUCSNAME
  2

  9
$PUCSORG
 10
0.0
 20
0.0
 30
0.0
  9
$PUCSXDIR
 10
1.0
 20
0.0
 30
0.0
  9
$PUCSYDIR
 10
0.0
 20
1.0
 30
0.0
  9
$PUCSORTHOREF
  2

  9
$PUCSORTHOVIEW
 70
     0
  9
$PUCSORGTOP
 10
0.0
 20
0.0
 30
0.0
  9
$PUCSORGBOTTOM
 10
0.0
 20
0.0
 30
0.0
  9
$PUCSORGLEFT
 10
0.0
 20
0.0
 30
0.0
  9
$PUCSORGRIGHT
 10
0.0
 20
0.0
 30
0.0
  9
$PUCSORGFRONT
 10
0.0
 20
0.0
 30
0.0
  9
$PUCSORGBACK
 10
0.0
 20
0.0
 30
0.0
  9
$USERI1
 70
     0
  9
$USERI2
 70
     0
  9
$USERI3
 70
     0
  9
$USERI4
 70
     0
  9
$USERI5
 70
     0
  9
$USERR1
 40
0.0
  9
$USERR2
 40
0.0
  9
$USERR3
 40
0.0
  9
$USERR4
 40
0.0
  9
$USERR5
 40
0.0
  9
$WORLDVIEW
 70
     1
  9
$SHADEDGE
 70
     3
  9
$SHADEDIF
 70
    70
  9
$TILEMODE
 70
     1
  9
$MAXACTVP
 70
    64
  9
$PINSBASE
 10
0.0
 20
0.0
 30
0.0
  9
$PLIMCHECK
 70
     0
  9
$PEXTMIN
 10
0.0
 20
0.0
 30
0.0
  9
$PEXTMAX
 10
0.0
 20
0.0
 30
0.0
  9
$PLIMMIN
 10
0.0
 20
0.0
  9
$PLIMMAX
 10
12.0
 20
9.0
  9
$UNITMODE
 70
     0
  9
$VISRETAIN
 70
     1
  9
$PLINEGEN
 70
     0
  9
$PSLTSCALE
 70
     1
  9
$TREEDEPTH
 70
  3020
  9
$CMLSTYLE
  2
Standard
  9
$CMLJUST
 70
     0
  9
$CMLSCALE
 40
20.0
  9
$PROXYGRAPHICS
 70
     1
  9
$MEASUREMENT
 70
     1
  9
$CELWEIGHT
370
    -1
  9
$ENDCAPS
280
     0
  9
$JOINSTYLE
280
     0
  9
$LWDISPLAY
290
     0
  9
$INSUNITS
 70
     4
  9
$HYPERLINKBASE
  1

  9
$STYLESHEET
  1

  9
$XEDIT
290
     1
  9
$CEPSNTYPE
380
     0
  9
$PSTYLEMODE
290
     1
  9
$FINGERPRINTGUID
  2
{FC112998-2892-D74A-B175-92B91D6F15EC}
  9
$VERSIONGUID
  2
{F1CD6722-A1B2-314E-A73B-848D733C58A1}
  9
$EXTNAMES
290
     1
  9
$PSVPSCALE
 40
0.0
  9
$OLESTARTUP
290
     0
  9
$SORTENTS
280
   127
  9
$INDEXCTL
280
     0
  9
$HIDETEXT
280
     1
  9
$XCLIPFRAME
280
     2
  9
$HALOGAP
280
     0
  9
$OBSCOLOR
 70
   257
  9
$OBSLTYPE
280
     0
  9
$INTERSECTIONDISPLAY
280
     0
  9
$INTERSECTIONCOLOR
 70
   257
  9
$DIMASSOC
280
     2
  9
$PROJECTNAME
  1

  9
$CAMERADISPLAY
290
     0
  9
$LENSLENGTH
 40
50.0
  9
$CAMERAHEIGHT
 40
0.0
  9
$STEPSPERSEC
 40
2.0
  9
$STEPSIZE
 40
6.0
  9
$3DDWFPREC
 40
2.0
  9
$PSOLWIDTH
 40
5.0
  9
$PSOLHEIGHT
 40
80.0
  9
$LOFTANG1
 40
1.570796326794896
  9
$LOFTANG2
 40
1.570796326794896
  9
$LOFTMAG1
 40
0.0
  9
$LOFTMAG2
 40
0.0
  9
$LOFTPARAM
 70
     7
  9
$LOFTNORMALS
280
     1
  9
$LATITUDE
 40
37.795
  9
$LONGITUDE
 40
-122.394
  9
$NORTHDIRECTION
 40
0.0
  9
$TIMEZONE
 70
 -8000
  9
$LIGHTGLYPHDISPLAY
280
     1
  9
$TILEMODELIGHTSYNCH
280
     1
  9
$CMATERIAL
347
EC
  9
$SOLIDHIST
280
     1
  9
$SHOWHIST
280
     1
  9
$DWFFRAME
280
     2
  9
$DGNFRAME
280
     0
  9
$REALWORLDSCALE
290
     1
  9
$INTERFERECOLOR
 62
     1
  9
$INTERFEREOBJVS
345
F9
  9
$INTERFEREVPVS
346
1F1
  9
$CSHADOW
280
     0
  9
$SHADOWPLANELOCATION
 40
0.0
  0
ENDSEC
  0
SECTION
  2
CLASSES
  0
CLASS
  1
ACDBDICTIONARYWDFLT
  2
AcDbDictionaryWithDefault
  3
ObjectDBX Classes
 90
        0
 91
        1
280
     0
281
     0
  0
CLASS
  1
DICTIONARYVAR
  2
AcDbDictionaryVar
  3
ObjectDBX Classes
 90
        0
 91
        9
280
     0
281
     0
  0
CLASS
  1
TABLESTYLE
  2
AcDbTableStyle
  3
ObjectDBX Classes
 90
     4095
 91
        1
280
     0
281
     0
  0
CLASS
  1
MATERIAL
  2
AcDbMaterial
  3
ObjectDBX Classes
 90
     1153
 91
        3
280
     0
281
     0
  0
CLASS
  1
VISUALSTYLE
  2
AcDbVisualStyle
  3
ObjectDBX Classes
 90
     4095
 91
       26
280
     0
281
     0
  0
CLASS
  1
SCALE
  2
AcDbScale
  3
ObjectDBX Classes
 90
     1153
 91
       17
280
     0
281
     0
  0
CLASS
  1
MLEADERSTYLE
  2
AcDbMLeaderStyle
  3
ACDB_MLEADERSTYLE_CLASS
 90
     4095
 91
        2
280
     0
281
     0
  0
CLASS
  1
CELLSTYLEMAP
  2
AcDbCellStyleMap
  3
ObjectDBX Classes
 90
     1152
 91
        2
280
     0
281
     0
  0
CLASS
  1
EXACXREFPANELOBJECT
  2
ExAcXREFPanelObject
  3
EXAC_ESW
 90
     1025
 91
        0
280
     0
281
     0
  0
CLASS
  1
NPOCOLLECTION
  2
AcDbImpNonPersistentObjectsCollection
  3
ObjectDBX Classes
 90
     1153
 91
        0
280
     0
281
     0
  0
CLASS
  1
LAYER_INDEX
  2
AcDbLayerIndex
  3
ObjectDBX Classes
 90
        0
 91
        0
280
     0
281
     0
  0
CLASS
  1
SPATIAL_INDEX
  2
AcDbSpatialIndex
  3
ObjectDBX Classes
 90
        0
 91
        0
280
     0
281
     0
  0
CLASS
  1
IDBUFFER
  2
AcDbIdBuffer
  3
ObjectDBX Classes
 90
        0
 91
        0
280
     0
281
     0
  0
CLASS
  1
ACDBSECTIONVIEWSTYLE
  2
AcDbSectionViewStyle
  3
ObjectDBX Classes
 90
     1025
 91
        1
280
     0
281
     0
  0
CLASS
  1
ACDBDETAILVIEWSTYLE
  2
AcDbDetailViewStyle
  3
ObjectDBX Classes
 90
     1025
 91
        1
280
     0
281
     0
  0
CLASS
  1
SORTENTSTABLE
  2
AcDbSortentsTable
  3
ObjectDBX Classes
 90
        0
 91
        0
280
     0
281
     0
  0
CLASS
  1
SOLID_BACKGROUND
  2
AcDbSolidBackground
  3
SCENEOE
 90
     4095
 91
        0
280
     0
281
     0
  0
ENDSEC
  0
SECTION
  2
TABLES
  0
TABLE
  2
VPORT
  5
8
330
0
100
AcDbSymbolTable
 70
     1
1001
ACAD
1000
DbSaveVer
1071
       51
  0
VPORT
  5
EA
330
8
100
AcDbSymbolTableRecord
100
AcDbViewportTableRecord
  2
*Active
 70
     0
 10
0.0
 20
0.0
 11
1.0
 21
1.0
 12
666.6113072258874
 22
-40.53652998711595
 13
0.0
 23
0.0
 14
10.0
 24
10.0
 15
10.0
 25
10.0
 16
-0.0000000000001137
 26
0.0
 36
642.9305839739135
 17
-731.2123413085937
 27
-197.0530891418457
 37
-126.0000038146972
 40
330.200263387328
 41
2.447435897435897
 42
50.0
 43
0.0
 44
0.0
 50
0.0
 51
0.0
 71
     0
 72
  1000
 73
     1
 74
     3
 75
     0
 76
     0
 77
     0
 78
     0
281
     0
 65
     1
110
0.0
120
0.0
130
0.0
111
1.0
121
0.0
131
0.0
112
0.0
122
1.0
132
0.0
 79
     0
146
0.0
348
F5
 60
     2
 61
     5
292
     1
282
     1
141
0.0
142
0.0
 63
   250
421
  3355443
1001
ACAD_NAV_VCDISPLAY
1070
     3
  0
ENDTAB
  0
TABLE
  2
LTYPE
  5
5
330
0
100
AcDbSymbolTable
 70
     1
  0
LTYPE
  5
14
330
5
100
AcDbSymbolTableRecord
100
AcDbLinetypeTableRecord
  2
ByBlock
 70
     0
  3

 72
    65
 73
     0
 40
0.0
  0
LTYPE
  5
15
330
5
100
AcDbSymbolTableRecord
100
AcDbLinetypeTableRecord
  2
ByLayer
 70
     0
  3

 72
    65
 73
     0
 40
0.0
  0
LTYPE
  5
16
330
5
100
AcDbSymbolTableRecord
100
AcDbLinetypeTableRecord
  2
Continuous
 70
     0
  3
Solid line
 72
    65
 73
     0
 40
0.0
  0
ENDTAB
  0
TABLE
  2
LAYER
  5
2
102
{ACAD_XDICTIONARY
360
207
102
}
330
0
100
AcDbSymbolTable
 70
     3
  0
LAYER
  5
10
102
{ACAD_XDICTIONARY
360
13C
102
}
330
2
100
AcDbSymbolTableRecord
100
AcDbLayerTableRecord
  2
0
 70
     0
 62
     7
  6
Continuous
370
    -3
390
F
347
EE
348
0
  0
LAYER
  5
200
102
{ACAD_XDICTIONARY
360
201
102
}
330
2
100
AcDbSymbolTableRecord
100
AcDbLayerTableRecord
  2
HD
 70
     0
 62
   153
420
  5804257
  6
Continuous
370
    -3
390
F
347
EE
348
0
1001
AcAecLayerStandard
1000

1000

1001
AcCmTransparency
1071
        0
  0
LAYER
  5
202
102
{ACAD_XDICTIONARY
360
203
102
}
330
2
100
AcDbSymbolTableRecord
100
AcDbLayerTableRecord
  2
BL
 70
     0
 62
   153
420
  5804257
  6
Continuous
370
    -3
390
F
347
EE
348
0
1001
AcAecLayerStandard
1000

1000

1001
AcCmTransparency
1071
        0
  0
ENDTAB
  0
TABLE
  2
STYLE
  5
3
330
0
100
AcDbSymbolTable
 70
     2
  0
STYLE
  5
11
330
3
100
AcDbSymbolTableRecord
100
AcDbTextStyleTableRecord
  2
Standard
 70
     0
 40
0.0
 41
1.0
 50
0.0
 71
     0
 42
5.700722537410682
  3

  4

1001
ACAD
1000
SimSun
1071
       34
  0
STYLE
  5
132
330
3
100
AcDbSymbolTableRecord
100
AcDbTextStyleTableRecord
  2
Annotative
 70
     0
 40
0.0
 41
1.0
 50
0.0
 71
     0
 42
2.5
  3

  4

1001
AcadAnnotative
1000
AnnotativeData
1002
{
1070
     1
1070
     1
1002
}
1001
ACAD
1000
SimSun
1071
       34
  0
ENDTAB
  0
TABLE
  2
VIEW
  5
6
330
0
100
AcDbSymbolTable
 70
     0
  0
ENDTAB
  0
TABLE
  2
UCS
  5
7
330
0
100
AcDbSymbolTable
 70
     0
  0
ENDTAB
  0
TABLE
  2
APPID
  5
9
330
0
100
AcDbSymbolTable
 70
    11
  0
APPID
  5
12
330
9
100
AcDbSymbolTableRecord
100
AcDbRegAppTableRecord
  2
ACAD
 70
     0
  0
APPID
  5
9E
330
9
100
AcDbSymbolTableRecord
100
AcDbRegAppTableRecord
  2
ACAD_PSEXT
 70
     0
  0
APPID
  5
133
330
9
100
AcDbSymbolTableRecord
100
AcDbRegAppTableRecord
  2
AcadAnnoPO
 70
     0
  0
APPID
  5
134
330
9
100
AcDbSymbolTableRecord
100
AcDbRegAppTableRecord
  2
AcadAnnotative
 70
     0
  0
APPID
  5
135
330
9
100
AcDbSymbolTableRecord
100
AcDbRegAppTableRecord
  2
ACAD_DSTYLE_DIMJAG
 70
     0
  0
APPID
  5
136
330
9
100
AcDbSymbolTableRecord
100
AcDbRegAppTableRecord
  2
ACAD_DSTYLE_DIMTALN
 70
     0
  0
APPID
  5
165
330
9
100
AcDbSymbolTableRecord
100
AcDbRegAppTableRecord
  2
ACAD_MLEADERVER
 70
     0
  0
APPID
  5
204
330
9
100
AcDbSymbolTableRecord
100
AcDbRegAppTableRecord
  2
AcAecLayerStandard
 70
     0
  0
APPID
  5
205
330
9
100
AcDbSymbolTableRecord
100
AcDbRegAppTableRecord
  2
AcCmTransparency
 70
     0
  0
APPID
  5
206
330
9
100
AcDbSymbolTableRecord
100
AcDbRegAppTableRecord
  2
ACAD_NAV_VCDISPLAY
 70
     0
  0
APPID
  5
6A8
330
9
100
AcDbSymbolTableRecord
100
AcDbRegAppTableRecord
  2
ACAD_EXEMPT_FROM_CAD_STANDARDS
 70
     0
  0
ENDTAB
  0
TABLE
  2
DIMSTYLE
  5
A
330
0
100
AcDbSymbolTable
 70
     3
100
AcDbDimStyleTable
 71
     2
340
27
340
137
  0
DIMSTYLE
105
1B0
330
A
100
AcDbSymbolTableRecord
100
AcDbDimStyleTableRecord
  2
Standard
 70
     0
340
11
  0
DIMSTYLE
105
137
330
A
100
AcDbSymbolTableRecord
100
AcDbDimStyleTableRecord
  2
Annotative
 70
     0
 40
0.0
 41
2.5
 42
0.625
 43
3.75
 44
1.25
 73
     0
 74
     0
 77
     1
 78
     8
140
2.5
141
2.5
143
0.03937007874016
147
0.625
171
     3
172
     1
271
     2
272
     2
274
     3
278
    44
283
     0
284
     8
340
11
1001
AcadAnnotative
1000
AnnotativeData
1002
{
1070
     1
1070
     1
1002
}
1001
ACAD_DSTYLE_DIMJAG
1070
   388
1040
1.5
1001
ACAD_DSTYLE_DIMTALN
1070
   392
1070
     0
  0
DIMSTYLE
105
27
330
A
100
AcDbSymbolTableRecord
100
AcDbDimStyleTableRecord
  2
ISO-25
 70
     0
 41
2.5
 42
0.625
 43
3.75
 44
1.25
 73
     0
 74
     0
 77
     1
 78
     8
140
2.5
141
2.5
143
0.03937007874016
147
0.625
171
     3
172
     1
271
     2
272
     2
274
     3
278
    44
283
     0
284
     8
340
11
  0
ENDTAB
  0
TABLE
  2
BLOCK_RECORD
  5
1
330
0
100
AcDbSymbolTable
 70
     1
  0
BLOCK_RECORD
  5
1F
102
{ACAD_XDICTIONARY
360
1CE
102
}
330
1
100
AcDbSymbolTableRecord
100
AcDbBlockTableRecord
  2
*Model_Space
340
22
 70
     0
280
     1
281
     0
  0
BLOCK_RECORD
  5
D2
330
1
100
AcDbSymbolTableRecord
100
AcDbBlockTableRecord
  2
*Paper_Space
340
D3
 70
     0
280
     1
281
     0
  0
BLOCK_RECORD
  5
D6
330
1
100
AcDbSymbolTableRecord
100
AcDbBlockTableRecord
  2
*Paper_Space0
340
D7
 70
     0
280
     1
281
     0
  0
ENDTAB
  0
ENDSEC
  0
SECTION
  2
BLOCKS
  0
BLOCK
  5
20
330
1F
100
AcDbEntity
  8
0
100
AcDbBlockBegin
  2
*Model_Space
 70
     0
 10
0.0
 20
0.0
 30
0.0
  3
*Model_Space
  1

  0
ENDBLK
  5
21
330
1F
100
AcDbEntity
  8
0
100
AcDbBlockEnd
  0
BLOCK
  5
D4
330
D2
100
AcDbEntity
 67
     1
  8
0
100
AcDbBlockBegin
  2
*Paper_Space
 70
     0
 10
0.0
 20
0.0
 30
0.0
  3
*Paper_Space
  1

  0
ENDBLK
  5
D5
330
D2
100
AcDbEntity
 67
     1
  8
0
100
AcDbBlockEnd
  0
BLOCK
  5
D8
330
D6
100
AcDbEntity
 67
     1
  8
0
100
AcDbBlockBegin
  2
*Paper_Space0
 70
     0
 10
0.0
 20
0.0
 30
0.0
  3
*Paper_Space0
  1

  0
ENDBLK
  5
D9
330
D6
100
AcDbEntity
 67
     1
  8
0
100
AcDbBlockEnd
  0
ENDSEC
  0
SECTION
  2
ENTITIES
  0
TEXT
  5
581
330
1F
100
AcDbEntity
  8
HD
 62
     0
100
AcDbText
 10
214.4616394042969
 20
-81.1826171875
 30
-78.0
 40
3.0
  1
42001
100
AcDbText
  0
TEXT
  5
582
330
1F
100
AcDbEntity
  8
HD
 62
     0
100
AcDbText
 10
240.0688781738281
 20
-111.9173583984375
 30
-71.0
 40
3.0
  1
42002
100
AcDbText
  0
TEXT
  5
583
330
1F
100
AcDbEntity
  8
HD
 62
     0
100
AcDbText
 10
267.6334838867187
 20
-141.7419128417966
 30
-71.0
 40
3.0
  1
42003
100
AcDbText
  0
TEXT
  5
584
330
1F
100
AcDbEntity
  8
HD
 62
     0
100
AcDbText
 10
237.9299621582032
 20
-158.9862060546872
 30
-71.0
 40
3.0
  1
42004
100
AcDbText
  0
TEXT
  5
585
330
1F
100
AcDbEntity
  8
HD
 62
     0
100
AcDbText
 10
209.770751953125
 20
-129.1536254882812
 30
-71.0
 40
3.0
  1
42005
100
AcDbText
  0
TEXT
  5
586
330
1F
100
AcDbEntity
  8
HD
 62
     0
100
AcDbText
 10
174.6956176757811
 20
-102.6725158691406
 30
-78.0
 40
3.0
  1
42006
100
AcDbText
  0
TEXT
  5
587
330
1F
100
AcDbEntity
  8
HD
 62
     0
100
AcDbText
 10
204.5905456542968
 20
-139.0225524902341
 30
-6.097845077514642
 40
3.0
  1
42007
100
AcDbText
  0
TEXT
  5
588
330
1F
100
AcDbEntity
  8
HD
 62
     0
100
AcDbText
 10
118.1156616210937
 20
-122.1689758300781
 30
-78.0
 40
3.0
  1
42008
100
AcDbText
  0
TEXT
  5
589
330
1F
100
AcDbEntity
  8
HD
 62
     0
100
AcDbText
 10
143.1193237304687
 20
-152.7921752929687
 30
-71.0
 40
3.0
  1
42009
100
AcDbText
  0
TEXT
  5
58A
330
1F
100
AcDbEntity
  8
HD
 62
     0
100
AcDbText
 10
208.7077026367186
 20
-170.2210083007808
 30
-13.0
 40
3.0
  1
42010
100
AcDbText
  0
TEXT
  5
58B
330
1F
100
AcDbEntity
  8
HD
 62
     0
100
AcDbText
 10
207.0210266113282
 20
-182.1672363281247
 30
-15.0
 40
3.0
  1
42011
100
AcDbText
  0
TEXT
  5
58C
330
1F
100
AcDbEntity
  8
HD
 62
     0
100
AcDbText
 10
200.8227844238282
 20
-192.2362670898436
 30
-17.0
 40
3.0
  1
42012
100
AcDbText
  0
TEXT
  5
58D
330
1F
100
AcDbEntity
  8
HD
 62
     0
100
AcDbText
 10
191.189697265625
 20
-199.1682739257811
 30
-14.0
 40
3.0
  1
42013
100
AcDbText
  0
TEXT
  5
58E
330
1F
100
AcDbEntity
  8
HD
 62
     0
100
AcDbText
 10
183.4743722373909
 20
-202.3794653031793
 30
-14.0
 40
3.0
  1
42014
100
AcDbText
  0
TEXT
  5
58F
330
1F
100
AcDbEntity
  8
HD
 62
     0
100
AcDbText
 10
129.474910936933
 20
-211.0780690663982
 30
-22.0
 40
3.0
  1
42015
100
AcDbText
  0
TEXT
  5
590
330
1F
100
AcDbEntity
  8
HD
 62
     0
100
AcDbText
 10
85.81405639648437
 20
-198.0570678710936
 30
-71.0
 40
3.0
  1
42016
100
AcDbText
  0
TEXT
  5
591
330
1F
100
AcDbEntity
  8
HD
 62
     0
100
AcDbText
 10
71.03683259555666
 20
-163.6427245075783
 30
-74.299257703098
 40
3.0
  1
42017
100
AcDbText
  0
TEXT
  5
592
330
1F
100
AcDbEntity
  8
HD
 62
     0
100
AcDbText
 10
54.6368713378906
 20
-186.6384887695311
 30
-71.0
 40
3.0
  1
42018
100
AcDbText
  0
TEXT
  5
593
330
1F
100
AcDbEntity
  8
HD
 62
     0
100
AcDbText
 10
72.91049194335937
 20
-224.6919555664061
 30
-71.0
 40
3.0
  1
42019
100
AcDbText
  0
TEXT
  5
594
330
1F
100
AcDbEntity
  8
HD
 62
     0
100
AcDbText
 10
53.76910400390625
 20
-236.7483520507811
 30
-71.0
 40
3.0
  1
42020
100
AcDbText
  0
TEXT
  5
595
330
1F
100
AcDbEntity
  8
HD
 62
     0
100
AcDbText
 10
0.1061512405392406
 20
-214.4098360353108
 30
-42.5
 40
3.0
  1
42021
100
AcDbText
  0
TEXT
  5
596
330
1F
100
AcDbEntity
  8
HD
 62
     0
100
AcDbText
 10
-29.2882080078125
 20
-184.8759155273436
 30
-78.0
 40
3.0
  1
42022
100
AcDbText
  0
TEXT
  5
597
330
1F
100
AcDbEntity
  8
HD
 62
     0
100
AcDbText
 10
-75.21729952236339
 20
-214.1249260350561
 30
-55.0
 40
3.0
  1
42023
100
AcDbText
  0
TEXT
  5
598
330
1F
100
AcDbEntity
  8
HD
 62
     0
100
AcDbText
 10
-127.3591900196564
 20
-205.6937354998269
 30
-66.5
 40
3.0
  1
42024
100
AcDbText
  0
TEXT
  5
599
330
1F
100
AcDbEntity
  8
HD
 62
     0
100
AcDbText
 10
-124.3988952636718
 20
-226.2122192382812
 30
-77.56262969970703
 40
3.0
  1
42025
100
AcDbText
  0
TEXT
  5
59A
330
1F
100
AcDbEntity
  8
HD
 62
     0
100
AcDbText
 10
-128.463150024414
 20
-231.6072082519532
 30
-77.56262969970703
 40
3.0
  1
42026
100
AcDbText
  0
TEXT
  5
59B
330
1F
100
AcDbEntity
  8
HD
 62
     0
100
AcDbText
 10
-126.5827178955078
 20
-243.0849609375
 30
-77.5626449584961
 40
3.0
  1
42027
100
AcDbText
  0
TEXT
  5
59C
330
1F
100
AcDbEntity
  8
HD
 62
     0
100
AcDbText
 10
-126.93603515625
 20
-252.7803649902343
 30
-77.56266021728515
 40
3.0
  1
42028
100
AcDbText
  0
TEXT
  5
59D
330
1F
100
AcDbEntity
  8
HD
 62
     0
100
AcDbText
 10
-118.3457641601562
 20
-262.5974731445313
 30
-78.0
 40
3.0
  1
42029
100
AcDbText
  0
TEXT
  5
59E
330
1F
100
AcDbEntity
  8
HD
 62
     0
100
AcDbText
 10
-113.9989776611327
 20
-281.3518676757812
 30
-76.5
 40
3.0
  1
42030
100
AcDbText
  0
TEXT
  5
59F
330
1F
100
AcDbEntity
  8
HD
 62
     0
100
AcDbText
 10
-117.7227325439452
 20
-295.5894165039063
 30
-75.0
 40
3.0
  1
42031
100
AcDbText
  0
TEXT
  5
5A0
330
1F
100
AcDbEntity
  8
HD
 62
     0
100
AcDbText
 10
-127.0538177490234
 20
-307.2875976562498
 30
-75.0
 40
3.0
  1
42032
100
AcDbText
  0
TEXT
  5
5A1
330
1F
100
AcDbEntity
  8
HD
 62
     0
100
AcDbText
 10
-142.3423309326171
 20
-313.4870605468748
 30
-75.0
 40
3.0
  1
42033
100
AcDbText
  0
TEXT
  5
5A2
330
1F
100
AcDbEntity
  8
HD
 62
     0
100
AcDbText
 10
-159.1230010986326
 20
-312.6690063476562
 30
-75.0
 40
3.0
  1
42034
100
AcDbText
  0
TEXT
  5
5A3
330
1F
100
AcDbEntity
  8
HD
 62
     0
100
AcDbText
 10
-172.4548797607421
 20
-305.0148315429688
 30
-75.0
 40
3.0
  1
42035
100
AcDbText
  0
TEXT
  5
5A4
330
1F
100
AcDbEntity
  8
HD
 62
     0
100
AcDbText
 10
-185.7365875244139
 20
-281.1709594726563
 30
-75.0
 40
3.0
  1
42036
100
AcDbText
  0
TEXT
  5
5A5
330
1F
100
AcDbEntity
  8
HD
 62
     0
100
AcDbText
 10
-193.7879486083983
 20
-259.7066040039063
 30
-75.0
 40
3.0
  1
42037
100
AcDbText
  0
TEXT
  5
5A6
330
1F
100
AcDbEntity
  8
HD
 62
     0
100
AcDbText
 10
-192.7883453369139
 20
-233.7467041015623
 30
-75.0
 40
3.0
  1
42038
100
AcDbText
  0
TEXT
  5
5A7
330
1F
100
AcDbEntity
  8
HD
 62
     0
100
AcDbText
 10
-188.0322570800781
 20
-206.2780761718748
 30
-75.0
 40
3.0
  1
42039
100
AcDbText
  0
TEXT
  5
5A8
330
1F
100
AcDbEntity
  8
HD
 62
     0
100
AcDbText
 10
-191.9983978271484
 20
-201.2734374999998
 30
-75.0
 40
3.0
  1
42040
100
AcDbText
  0
TEXT
  5
5A9
330
1F
100
AcDbEntity
  8
HD
 62
     0
100
AcDbText
 10
-156.8968658447265
 20
-171.2739868164062
 30
-77.56261444091797
 40
3.0
  1
42041
100
AcDbText
  0
TEXT
  5
5AA
330
1F
100
AcDbEntity
  8
HD
 62
     0
100
AcDbText
 10
-66.27488380879341
 20
-126.881331998802
 30
-74.0
 40
3.0
  1
42042
100
AcDbText
  0
TEXT
  5
5AB
330
1F
100
AcDbEntity
  8
HD
 62
     0
100
AcDbText
 10
-10.24405670166015
 20
-144.7919158935547
 30
-71.08869171142578
 40
3.0
  1
42043
100
AcDbText
  0
TEXT
  5
5AC
330
1F
100
AcDbEntity
  8
HD
 62
     0
100
AcDbText
 10
-62.49799346923828
 20
-92.16481018066406
 30
-71.08844757080078
 40
3.0
  1
42044
100
AcDbText
  0
TEXT
  5
5AD
330
1F
100
AcDbEntity
  8
HD
 62
     0
100
AcDbText
 10
-115.3147735595703
 20
-50.14544677734374
 30
-71.08844757080078
 40
3.0
  1
42045
100
AcDbText
  0
TEXT
  5
5AE
330
1F
100
AcDbEntity
  8
HD
 62
     0
100
AcDbText
 10
-162.7833251953125
 20
-1.848388671875
 30
-71.08844757080078
 40
3.0
  1
42046
100
AcDbText
  0
TEXT
  5
5AF
330
1F
100
AcDbEntity
  8
HD
 62
     0
100
AcDbText
 10
-184.8651580810546
 20
-14.67559814453125
 30
-77.0
 40
3.0
  1
42047
100
AcDbText
  0
TEXT
  5
5B0
330
1F
100
AcDbEntity
  8
HD
 62
     0
100
AcDbText
 10
-202.0279235839843
 20
-94.44702148437498
 30
-85.0
 40
3.0
  1
42048
100
AcDbText
  0
TEXT
  5
5B1
330
1F
100
AcDbEntity
  8
HD
 62
     0
100
AcDbText
 10
-225.8619988162073
 20
-80.52520012972435
 30
-92.0
 40
3.0
  1
42049
100
AcDbText
  0
TEXT
  5
5B2
330
1F
100
AcDbEntity
  8
HD
 62
     0
100
AcDbText
 10
-274.0008392333984
 20
-30.42709350585937
 30
-108.5
 40
3.0
  1
42050
100
AcDbText
  0
TEXT
  5
5B3
330
1F
100
AcDbEntity
  8
HD
 62
     0
100
AcDbText
 10
-257.1907043457031
 20
16.47848129272461
 30
-73.30408477783203
 40
3.0
  1
42051
100
AcDbText
  0
TEXT
  5
5B4
330
1F
100
AcDbEntity
  8
HD
 62
     0
100
AcDbText
 10
-207.7471162663567
 20
19.30351431593237
 30
-39.0
 40
3.0
  1
42052
100
AcDbText
  0
TEXT
  5
5B5
330
1F
100
AcDbEntity
  8
HD
 62
     0
100
AcDbText
 10
-185.0946426362039
 20
15.61615249092175
 30
-32.5
 40
3.0
  1
42053
100
AcDbText
  0
TEXT
  5
5B7
330
1F
100
AcDbEntity
  8
HD
 62
     0
100
AcDbText
 10
-75.67802429199216
 20
23.18649291992187
 30
-20.50000381469727
 40
3.0
  1
42555
100
AcDbText
  0
TEXT
  5
5B8
330
1F
100
AcDbEntity
  8
HD
 62
     0
100
AcDbText
 10
-152.2119650686595
 20
43.72617683629063
 30
-41.0
 40
3.0
  1
42056
100
AcDbText
  0
TEXT
  5
5B9
330
1F
100
AcDbEntity
  8
HD
 62
     0
100
AcDbText
 10
-177.1549224853514
 20
54.27731323242188
 30
-48.5
 40
3.0
  1
42057
100
AcDbText
  0
TEXT
  5
5BA
330
1F
100
AcDbEntity
  8
HD
 62
     0
100
AcDbText
 10
-203.8097161996371
 20
59.53486321530998
 30
-56.0
 40
3.0
  1
42558
100
AcDbText
  0
TEXT
  5
5BB
330
1F
100
AcDbEntity
  8
HD
 62
     0
100
AcDbText
 10
-212.2777709960937
 20
37.19772338867187
 30
-71.08856964111328
 40
3.0
  1
42059
100
AcDbText
  0
TEXT
  5
5BC
330
1F
100
AcDbEntity
  8
HD
 62
     0
100
AcDbText
 10
-222.5870971679686
 20
68.19696044921875
 30
-61.0
 40
3.0
  1
42060
100
AcDbText
  0
TEXT
  5
5BD
330
1F
100
AcDbEntity
  8
HD
 62
     0
100
AcDbText
 10
-243.0666005944262
 20
71.54972152781289
 30
-66.0
 40
3.0
  1
42061
100
AcDbText
  0
TEXT
  5
5BE
330
1F
100
AcDbEntity
  8
HD
 62
     0
100
AcDbText
 10
-249.4410018812363
 20
76.42448223763797
 30
-68.5
 40
3.0
  1
42062
100
AcDbText
  0
TEXT
  5
5BF
330
1F
100
AcDbEntity
  8
HD
 62
     0
100
AcDbText
 10
-272.2476441414073
 20
83.41245786781156
 30
-74.5
 40
3.0
  1
42063
100
AcDbText
  0
TEXT
  5
5C0
330
1F
100
AcDbEntity
  8
HD
 62
     0
100
AcDbText
 10
-245.4424438476562
 20
34.01666259765625
 30
-49.5
 40
3.0
  1
42064
100
AcDbText
  0
TEXT
  5
5C3
330
1F
100
AcDbEntity
  8
HD
 62
     0
100
AcDbText
 10
-284.9998488668027
 20
42.8901014951952
 30
-60.0
 40
3.0
  1
42067
100
AcDbText
  0
TEXT
  5
5C4
330
1F
100
AcDbEntity
  8
HD
 62
     0
100
AcDbText
 10
-298.2413635253906
 20
50.11962509155273
 30
-63.40583038330078
 40
3.0
  1
42068
100
AcDbText
  0
TEXT
  5
5C5
330
1F
100
AcDbEntity
  8
HD
 62
     0
100
AcDbText
 10
-308.091796875
 20
33.25060272216797
 30
-68.94092559814453
 40
3.0
  1
42069
100
AcDbText
  0
TEXT
  5
5C6
330
1F
100
AcDbEntity
  8
HD
 62
     0
100
AcDbText
 10
-313.26953125
 20
39.9861068725586
 30
-68.09851837158203
 40
3.0
  1
42070
100
AcDbText
  0
TEXT
  5
5C7
330
1F
100
AcDbEntity
  8
HD
 62
     0
100
AcDbText
 10
-313.6368408203125
 20
49.35356903076172
 30
-67.70108795166016
 40
3.0
  1
42071
100
AcDbText
  0
TEXT
  5
5C8
330
1F
100
AcDbEntity
  8
HD
 62
     0
100
AcDbText
 10
-317.6187438964844
 20
56.02795028686522
 30
-69.29474639892578
 40
3.0
  1
42072
100
AcDbText
  0
TEXT
  5
5C9
330
1F
100
AcDbEntity
  8
HD
 62
     0
100
AcDbText
 10
-284.2476755196315
 20
84.15346565438396
 30
-78.0
 40
3.0
  1
42073
100
AcDbText
  0
TEXT
  5
5CA
330
1F
100
AcDbEntity
  8
HD
 62
     0
100
AcDbText
 10
-305.4500885009766
 20
93.58480834960934
 30
-84.0
 40
3.0
  1
42074
100
AcDbText
  0
TEXT
  5
5CB
330
1F
100
AcDbEntity
  8
HD
 62
     0
100
AcDbText
 10
-323.6576584572709
 20
54.69326903763311
 30
-71.0
 40
3.0
  1
42075
100
AcDbText
  0
TEXT
  5
5CC
330
1F
100
AcDbEntity
  8
HD
 62
     0
100
AcDbText
 10
-342.4917907714844
 20
63.6077880859375
 30
-77.0
 40
3.0
  1
42076
100
AcDbText
  0
TEXT
  5
5CD
330
1F
100
AcDbEntity
  8
HD
 62
     0
100
AcDbText
 10
-347.6720886230469
 20
23.11264038085937
 30
-125.0
 40
3.0
  1
42077
100
AcDbText
  0
TEXT
  5
5CE
330
1F
100
AcDbEntity
  8
HD
 62
     0
100
AcDbText
 10
-370.9909210205078
 20
26.26577758789063
 30
-125.0
 40
3.0
  1
42078
100
AcDbText
  0
TEXT
  5
5CF
330
1F
100
AcDbEntity
  8
HD
 62
     0
100
AcDbText
 10
-363.0086336459998
 20
66.70621270785578
 30
-83.0
 40
3.0
  1
42079
100
AcDbText
  0
TEXT
  5
5D0
330
1F
100
AcDbEntity
  8
HD
 62
     0
100
AcDbText
 10
-328.3966348138205
 20
97.6657106466615
 30
-90.0
 40
3.0
  1
42080
100
AcDbText
  0
TEXT
  5
5D1
330
1F
100
AcDbEntity
  8
HD
 62
     0
100
AcDbText
 10
-347.2303771972656
 20
106.3856201171874
 30
-95.5
 40
3.0
  1
42081
100
AcDbText
  0
TEXT
  5
5D2
330
1F
100
AcDbEntity
  8
HD
 62
     0
100
AcDbText
 10
-367.7644646834957
 20
109.7142194827409
 30
-101.0
 40
3.0
  1
42082
100
AcDbText
  0
TEXT
  5
5D3
330
1F
100
AcDbEntity
  8
HD
 62
     0
100
AcDbText
 10
-380.9626770019531
 20
75.33782958984375
 30
-88.49999999999999
 40
3.0
  1
42083
100
AcDbText
  0
TEXT
  5
5D4
330
1F
100
AcDbEntity
  8
HD
 62
     0
100
AcDbText
 10
-400.7258259414891
 20
78.17963919946634
 30
-94.0
 40
3.0
  1
42084
100
AcDbText
  0
TEXT
  5
5D5
330
1F
100
AcDbEntity
  8
HD
 62
     0
100
AcDbText
 10
-386.4757690429685
 20
118.4097290039064
 30
-106.0
 40
3.0
  1
42085
100
AcDbText
  0
TEXT
  5
5D7
330
1F
100
AcDbEntity
  8
HD
 62
     0
100
AcDbText
 10
-437.4585016230632
 20
89.39485136373603
 30
-105.0
 40
3.0
  1
42087
100
AcDbText
  0
TEXT
  5
5D8
330
1F
100
AcDbEntity
  8
HD
 62
     0
100
AcDbText
 10
-406.961805177684
 20
121.7115817480784
 30
-111.0
 40
3.0
  1
42088
100
AcDbText
  0
TEXT
  5
5D9
330
1F
100
AcDbEntity
  8
HD
 62
     0
100
AcDbText
 10
-404.7100830078123
 20
135.5901641845703
 30
-147.0
 40
3.0
  1
42089
100
AcDbText
  0
TEXT
  5
5DA
330
1F
100
AcDbEntity
  8
HD
 62
     0
100
AcDbText
 10
-393.5500946044922
 20
156.802146911621
 30
-147.0
 40
3.0
  1
42090
100
AcDbText
  0
TEXT
  5
5DB
330
1F
100
AcDbEntity
  8
HD
 62
     0
100
AcDbText
 10
-394.0532684326172
 20
161.6336288452148
 30
-147.0
 40
3.0
  1
42091
100
AcDbText
  0
TEXT
  5
5DC
330
1F
100
AcDbEntity
  8
HD
 62
     0
100
AcDbText
 10
-396.9195861816406
 20
165.792495727539
 30
-147.0
 40
3.0
  1
42092
100
AcDbText
  0
TEXT
  5
5DD
330
1F
100
AcDbEntity
  8
HD
 62
     0
100
AcDbText
 10
-409.7419738769531
 20
173.6279907226562
 30
-147.0
 40
3.0
  1
42093
100
AcDbText
  0
TEXT
  5
5DE
330
1F
100
AcDbEntity
  8
HD
 62
     0
100
AcDbText
 10
-442.0100555419922
 20
183.5366821289061
 30
-147.0
 40
3.0
  1
42094
100
AcDbText
  0
TEXT
  5
5DF
330
1F
100
AcDbEntity
  8
HD
 62
     0
100
AcDbText
 10
-465.9844512939453
 20
182.8563232421875
 30
-147.0
 40
3.0
  1
42095
100
AcDbText
  0
TEXT
  5
5E0
330
1F
100
AcDbEntity
  8
HD
 62
     0
100
AcDbText
 10
-446.9965209960935
 20
166.3788070678711
 30
-147.0
 40
3.0
  1
42096
100
AcDbText
  0
TEXT
  5
5E1
330
1F
100
AcDbEntity
  8
HD
 62
     0
100
AcDbText
 10
-423.0000051188032
 20
152.2066442202559
 30
-147.0
 40
3.0
  1
42097
100
AcDbText
  0
TEXT
  5
5E2
330
1F
100
AcDbEntity
  8
HD
 62
     0
100
AcDbText
 10
-418.7385406494138
 20
146.3191223144531
 30
-147.0
 40
3.0
  1
42098
100
AcDbText
  0
TEXT
  5
5E3
330
1F
100
AcDbEntity
  8
HD
 62
     0
100
AcDbText
 10
-418.3301849365234
 20
139.2937088012695
 30
-147.0
 40
3.0
  1
42099
100
AcDbText
  0
TEXT
  5
5E4
330
1F
100
AcDbEntity
  8
HD
 62
     0
100
AcDbText
 10
-421.7712402343748
 20
133.032600402832
 30
-147.0
 40
3.0
  1
42100
100
AcDbText
  0
TEXT
  5
5E5
330
1F
100
AcDbEntity
  8
HD
 62
     0
100
AcDbText
 10
-425.7794799804685
 20
130.4517211914065
 30
-116.5
 40
3.0
  1
42101
100
AcDbText
  0
TEXT
  5
5E6
330
1F
100
AcDbEntity
  8
HD
 62
     0
100
AcDbText
 10
-427.7430419921873
 20
130.2072982788085
 30
-147.0
 40
3.0
  1
42102
100
AcDbText
  0
TEXT
  5
5E7
330
1F
100
AcDbEntity
  8
HD
 62
     0
100
AcDbText
 10
-434.5736083984373
 20
131.0148010253906
 30
-147.0
 40
3.0
  1
42103
100
AcDbText
  0
TEXT
  5
5E8
330
1F
100
AcDbEntity
  8
HD
 62
     0
100
AcDbText
 10
-448.129425048828
 20
137.662353515625
 30
-147.0
 40
3.0
  1
42104
100
AcDbText
  0
TEXT
  5
5E9
330
1F
100
AcDbEntity
  8
HD
 62
     0
100
AcDbText
 10
-446.3021289667448
 20
133.7516282923379
 30
-122.0
 40
3.0
  1
42105
100
AcDbText
  0
TEXT
  5
5EA
330
1F
100
AcDbEntity
  8
HD
 62
     0
100
AcDbText
 10
-417.0171203613281
 20
114.4664535522461
 30
-147.0
 40
3.0
  1
42106
100
AcDbText
  0
TEXT
  5
5EB
330
1F
100
AcDbEntity
  8
HD
 62
     0
100
AcDbText
 10
-420.7397003173826
 20
111.1181373596191
 30
-147.0
 40
3.0
  1
42107
100
AcDbText
  0
TEXT
  5
5EC
330
1F
100
AcDbEntity
  8
HD
 62
     0
100
AcDbText
 10
-425.8347930908201
 20
110.3507194519043
 30
-147.0
 40
3.0
  1
42108
100
AcDbText
  0
TEXT
  5
5ED
330
1F
100
AcDbEntity
  8
HD
 62
     0
100
AcDbText
 10
-446.7705688476562
 20
121.1710815429687
 30
-147.0
 40
3.0
  1
42109
100
AcDbText
  0
TEXT
  5
5EE
330
1F
100
AcDbEntity
  8
HD
 62
     0
100
AcDbText
 10
-454.7505493164059
 20
97.83636474609398
 30
-111.0
 40
3.0
  1
42110
100
AcDbText
  0
TEXT
  5
5EF
330
1F
100
AcDbEntity
  8
HD
 62
     0
100
AcDbText
 10
-473.9829493298816
 20
100.590446695593
 30
-117.0
 40
3.0
  1
42111
100
AcDbText
  0
TEXT
  5
5F0
330
1F
100
AcDbEntity
  8
HD
 62
     0
100
AcDbText
 10
-487.9634256269671
 20
98.80482010524048
 30
-147.0
 40
3.0
  1
42112
100
AcDbText
  0
TEXT
  5
5F1
330
1F
100
AcDbEntity
  8
HD
 62
     0
100
AcDbText
 10
-491.46484375
 20
109.0308837890627
 30
-122.5
 40
3.0
  1
42113
100
AcDbText
  0
TEXT
  5
5F2
330
1F
100
AcDbEntity
  8
HD
 62
     0
100
AcDbText
 10
-482.209328997692
 20
139.6589687441131
 30
-141.0
 40
3.0
  1
42114
100
AcDbText
  0
TEXT
  5
5F3
330
1F
100
AcDbEntity
  8
HD
 62
     0
100
AcDbText
 10
-463.0009613037107
 20
140.6473999023437
 30
-147.0
 40
3.0
  1
42115
100
AcDbText
  0
TEXT
  5
5F4
330
1F
100
AcDbEntity
  8
HD
 62
     0
100
AcDbText
 10
-464.7052496091442
 20
142.3779302336467
 30
-127.3705808526569
 40
3.0
  1
42116
100
AcDbText
  0
TEXT
  5
5F5
330
1F
100
AcDbEntity
  8
HD
 62
     0
100
AcDbText
 10
-493.1779905145697
 20
148.1300678710391
 30
-135.0
 40
3.0
  1
42117
100
AcDbText
  0
TEXT
  5
5F6
330
1F
100
AcDbEntity
  8
HD
 62
     0
100
AcDbText
 10
-484.9251518769176
 20
145.5727322306347
 30
-132.9164999709705
 40
3.0
  1
42118
100
AcDbText
  0
TEXT
  5
5F7
330
1F
100
AcDbEntity
  8
HD
 62
     0
100
AcDbText
 10
-468.0070190429685
 20
155.4923706054687
 30
-147.0
 40
3.0
  1
42119
100
AcDbText
  0
TEXT
  5
5F8
330
1F
100
AcDbEntity
  8
HD
 62
     0
100
AcDbText
 10
-473.4231262207028
 20
169.947265625
 30
-147.0
 40
3.0
  1
42120
100
AcDbText
  0
TEXT
  5
5F9
330
1F
100
AcDbEntity
  8
HD
 62
     0
100
AcDbText
 10
-489.9482727050781
 20
181.4189453125
 30
-145.5
 40
3.0
  1
42121
100
AcDbText
  0
TEXT
  5
5FA
330
1F
100
AcDbEntity
  8
HD
 62
     0
100
AcDbText
 10
-509.0656738281248
 20
188.4176025390625
 30
-144.0
 40
3.0
  1
42122
100
AcDbText
  0
TEXT
  5
5FB
330
1F
100
AcDbEntity
  8
HD
 62
     0
100
AcDbText
 10
-532.7501831054686
 20
187.1261596679686
 30
-144.0
 40
3.0
  1
42123
100
AcDbText
  0
TEXT
  5
5FC
330
1F
100
AcDbEntity
  8
HD
 62
     0
100
AcDbText
 10
-552.5415954589844
 20
192.5821533203125
 30
-144.0
 40
3.0
  1
42124
100
AcDbText
  0
TEXT
  5
5FD
330
1F
100
AcDbEntity
  8
HD
 62
     0
100
AcDbText
 10
-567.1934814453122
 20
167.2452392578125
 30
-144.0
 40
3.0
  1
42125
100
AcDbText
  0
TEXT
  5
5FE
330
1F
100
AcDbEntity
  8
HD
 62
     0
100
AcDbText
 10
-518.1086425781249
 20
172.6183471679686
 30
-144.0
 40
3.0
  1
42126
100
AcDbText
  0
TEXT
  5
5FF
330
1F
100
AcDbEntity
  8
HD
 62
     0
100
AcDbText
 10
-531.1156921386717
 20
162.7249145507812
 30
-144.0
 40
3.0
  1
42127
100
AcDbText
  0
TEXT
  5
600
330
1F
100
AcDbEntity
  8
HD
 62
     0
100
AcDbText
 10
-507.8650429224198
 20
155.6013680992259
 30
-139.4212647388206
 40
3.0
  1
42128
100
AcDbText
  0
TEXT
  5
601
330
1F
100
AcDbEntity
  8
HD
 62
     0
100
AcDbText
 10
-486.9097958974192
 20
149.1826885590588
 30
-133.8705808526569
 40
3.0
  1
42129
100
AcDbText
  0
TEXT
  5
602
330
1F
100
AcDbEntity
  8
HD
 62
     0
100
AcDbText
 10
-494.0571538409836
 20
134.1393134007299
 30
-147.000015656509
 40
3.0
  1
42130
100
AcDbText
  0
TEXT
  5
603
330
1F
100
AcDbEntity
  8
HD
 62
     0
100
AcDbText
 10
-535.0505981445311
 20
143.0950927734375
 30
-144.0
 40
3.0
  1
42131
100
AcDbText
  0
TEXT
  5
604
330
1F
100
AcDbEntity
  8
HD
 62
     0
100
AcDbText
 10
-581.1459350585937
 20
143.0917358398437
 30
-144.0
 40
3.0
  1
42132
100
AcDbText
  0
TEXT
  5
605
330
1F
100
AcDbEntity
  8
HD
 62
     0
100
AcDbText
 10
-591.0430603027342
 20
125.9585571289062
 30
-142.0
 40
3.0
  1
42133
100
AcDbText
  0
TEXT
  5
606
330
1F
100
AcDbEntity
  8
HD
 62
     0
100
AcDbText
 10
-571.8602905273437
 20
137.8271484375
 30
-144.0
 40
3.0
  1
42134
100
AcDbText
  0
TEXT
  5
607
330
1F
100
AcDbEntity
  8
HD
 62
     0
100
AcDbText
 10
-536.6820068359373
 20
122.8178710937499
 30
-136.0
 40
3.0
  1
42135
100
AcDbText
  0
TEXT
  5
608
330
1F
100
AcDbEntity
  8
HD
 62
     0
100
AcDbText
 10
-510.8937300440981
 20
111.8327265923499
 30
-128.0
 40
3.0
  1
42136
100
AcDbText
  0
TEXT
  5
609
330
1F
100
AcDbEntity
  8
HD
 62
     0
100
AcDbText
 10
-509.4267522296552
 20
100.2958990940893
 30
-147.0000003977199
 40
3.0
  1
42137
100
AcDbText
  0
TEXT
  5
60A
330
1F
100
AcDbEntity
  8
HD
 62
     0
100
AcDbText
 10
-508.1336517333983
 20
89.26449584960938
 30
-147.0
 40
3.0
  1
42138
100
AcDbText
  0
TEXT
  5
60B
330
1F
100
AcDbEntity
  8
HD
 62
     0
100
AcDbText
 10
-504.8846740722656
 20
79.54728698730469
 30
-147.000015258789
 40
3.0
  1
42139
100
AcDbText
  0
TEXT
  5
60C
330
1F
100
AcDbEntity
  8
HD
 62
     0
100
AcDbText
 10
-498.6462402343748
 20
71.59896850585937
 30
-147.0
 40
3.0
  1
42140
100
AcDbText
  0
TEXT
  5
60D
330
1F
100
AcDbEntity
  8
HD
 62
     0
100
AcDbText
 10
-478.7074890136716
 20
63.91842269897462
 30
-146.9999923706055
 40
3.0
  1
42141
100
AcDbText
  0
TEXT
  5
60E
330
1F
100
AcDbEntity
  8
HD
 62
     0
100
AcDbText
 10
-467.1700091113696
 20
60.37319309452906
 30
-129.0
 40
3.0
  1
42142
100
AcDbText
  0
TEXT
  5
60F
330
1F
100
AcDbEntity
  8
HD
 62
     0
100
AcDbText
 10
-449.2262878417967
 20
54.8578186035156
 30
-146.4999923706054
 40
3.0
  1
42143
100
AcDbText
  0
TEXT
  5
610
330
1F
100
AcDbEntity
  8
HD
 62
     0
100
AcDbText
 10
-430.2210998535153
 20
48.26882934570313
 30
-146.0
 40
3.0
  1
42144
100
AcDbText
  0
TEXT
  5
611
330
1F
100
AcDbEntity
  8
HD
 62
     0
100
AcDbText
 10
-418.1713562011719
 20
38.97979736328125
 30
-146.0
 40
3.0
  1
42145
100
AcDbText
  0
TEXT
  5
612
330
1F
100
AcDbEntity
  8
HD
 62
     0
100
AcDbText
 10
-410.3918762207029
 20
24.64340209960937
 30
-146.0
 40
3.0
  1
42146
100
AcDbText
  0
TEXT
  5
613
330
1F
100
AcDbEntity
  8
HD
 62
     0
100
AcDbText
 10
-411.4736022949216
 20
8.074737548828125
 30
-146.0
 40
3.0
  1
42147
100
AcDbText
  0
TEXT
  5
614
330
1F
100
AcDbEntity
  8
HD
 62
     0
100
AcDbText
 10
-420.1102905273432
 20
-7.289276123046875
 30
-146.0
 40
3.0
  1
42148
100
AcDbText
  0
TEXT
  5
615
330
1F
100
AcDbEntity
  8
HD
 62
     0
100
AcDbText
 10
-434.8649597167966
 20
-15.51205444335937
 30
-146.0
 40
3.0
  1
42149
100
AcDbText
  0
TEXT
  5
616
330
1F
100
AcDbEntity
  8
HD
 62
     0
100
AcDbText
 10
-450.617973389217
 20
-16.70760303429893
 30
-146.0
 40
3.0
  1
42150
100
AcDbText
  0
TEXT
  5
617
330
1F
100
AcDbEntity
  8
HD
 62
     0
100
AcDbText
 10
-456.8892853128993
 20
-11.70072752428687
 30
-141.939453125
 40
3.0
  1
42151
100
AcDbText
  0
TEXT
  5
618
330
1F
100
AcDbEntity
  8
HD
 62
     0
100
AcDbText
 10
-522.8795660502136
 20
4.068756604512365
 30
-135.5
 40
3.0
  1
42152
100
AcDbText
  0
TEXT
  5
619
330
1F
100
AcDbEntity
  8
HD
 62
     0
100
AcDbText
 10
-587.6992187499998
 20
26.07818603515625
 30
-133.0
 40
3.0
  1
42153
100
AcDbText
  0
TEXT
  5
61A
330
1F
100
AcDbEntity
  8
HD
 62
     0
100
AcDbText
 10
-595.9483032226562
 20
34.37823486328125
 30
-133.0
 40
3.0
  1
42154
100
AcDbText
  0
TEXT
  5
61B
330
1F
100
AcDbEntity
  8
HD
 62
     0
100
AcDbText
 10
-601.0969543457031
 20
46.13525390625
 30
-133.0
 40
3.0
  1
42155
100
AcDbText
  0
TEXT
  5
61C
330
1F
100
AcDbEntity
  8
HD
 62
     0
100
AcDbText
 10
-601.6077270507812
 20
60.6434326171875
 30
-133.0
 40
3.0
  1
42156
100
AcDbText
  0
TEXT
  5
61D
330
1F
100
AcDbEntity
  8
HD
 62
     0
100
AcDbText
 10
-596.8370056152344
 20
73.79946899414062
 30
-133.0
 40
3.0
  1
42157
100
AcDbText
  0
TEXT
  5
61E
330
1F
100
AcDbEntity
  8
HD
 62
     0
100
AcDbText
 10
-588.7018127441406
 20
82.89456176757813
 30
-133.0
 40
3.0
  1
42158
100
AcDbText
  0
TEXT
  5
61F
330
1F
100
AcDbEntity
  8
HD
 62
     0
100
AcDbText
 10
-578.3878479003905
 20
87.93240356445313
 30
-133.0
 40
3.0
  1
42159
100
AcDbText
  0
TEXT
  5
620
330
1F
100
AcDbEntity
  8
HD
 62
     0
100
AcDbText
 10
-566.9893798828122
 20
89.3778076171875
 30
-133.0
 40
3.0
  1
42160
100
AcDbText
  0
TEXT
  5
621
330
1F
100
AcDbEntity
  8
HD
 62
     0
100
AcDbText
 10
-569.1118469238281
 20
83.84622192382812
 30
-144.0
 40
3.0
  1
42161
100
AcDbText
  0
TEXT
  5
622
330
1F
100
AcDbEntity
  8
HD
 62
     0
100
AcDbText
 10
-531.6534062823899
 20
68.89532536362057
 30
-147.000015656509
 40
3.0
  1
42162
100
AcDbText
  0
TEXT
  5
623
330
1F
100
AcDbEntity
  8
HD
 62
     0
100
AcDbText
 10
-508.0787353515623
 20
44.99790573120117
 30
-147.0000228881835
 40
3.0
  1
42163
100
AcDbText
  0
TEXT
  5
624
330
1F
100
AcDbEntity
  8
HD
 62
     0
100
AcDbText
 10
-555.989013671875
 20
26.66357421875
 30
-147.0
 40
3.0
  1
42164
100
AcDbText
  0
TEXT
  5
625
330
1F
100
AcDbEntity
  8
HD
 62
     0
100
AcDbText
 10
-575.9651049536801
 20
32.4544049316044
 30
-145.5
 40
3.0
  1
42165
100
AcDbText
  0
TEXT
  5
626
330
1F
100
AcDbEntity
  8
HD
 62
     0
100
AcDbText
 10
-571.3632558455707
 20
-0.2206346303953595
 30
-142.0
 40
3.0
  1
42166
100
AcDbText
  0
TEXT
  5
627
330
1F
100
AcDbEntity
  8
HD
 62
     0
100
AcDbText
 10
-591.7635803222656
 20
-25.79354858398438
 30
-140.7542114257812
 40
3.0
  1
42167
100
AcDbText
  0
TEXT
  5
628
330
1F
100
AcDbEntity
  8
HD
 62
     0
100
AcDbText
 10
-608.9255676269531
 20
-45.54400634765625
 30
-138.8584594726562
 40
3.0
  1
42168
100
AcDbText
  0
TEXT
  5
629
330
1F
100
AcDbEntity
  8
HD
 62
     0
100
AcDbText
 10
-620.01806640625
 20
-57.82852172851562
 30
-136.9628295898437
 40
3.0
  1
42169
100
AcDbText
  0
TEXT
  5
62A
330
1F
100
AcDbEntity
  8
HD
 62
     0
100
AcDbText
 10
-630.0101013183592
 20
-52.36083984375
 30
-137.6881713867187
 40
3.0
  1
42170
100
AcDbText
  0
TEXT
  5
62B
330
1F
100
AcDbEntity
  8
HD
 62
     0
100
AcDbText
 10
-640.9705525257192
 20
-46.36330389335824
 30
-138.0
 40
3.0
  1
42171
100
AcDbText
  0
TEXT
  5
62C
330
1F
100
AcDbEntity
  8
HD
 62
     0
100
AcDbText
 10
-618.2049865722656
 20
-1.35498046875
 30
-141.2068786621093
 40
3.0
  1
42172
100
AcDbText
  0
TEXT
  5
62D
330
1F
100
AcDbEntity
  8
HD
 62
     0
100
AcDbText
 10
-653.9803466796874
 20
-2.304779052734375
 30
-140.0
 40
3.0
  1
42173
100
AcDbText
  0
TEXT
  5
62E
330
1F
100
AcDbEntity
  8
HD
 62
     0
100
AcDbText
 10
-648.0729980468749
 20
17.584228515625
 30
-140.0
 40
3.0
  1
42174
100
AcDbText
  0
TEXT
  5
62F
330
1F
100
AcDbEntity
  8
HD
 62
     0
100
AcDbText
 10
-638.0734863281247
 20
44.54257202148435
 30
-140.0
 40
3.0
  1
42175
100
AcDbText
  0
TEXT
  5
630
330
1F
100
AcDbEntity
  8
HD
 62
     0
100
AcDbText
 10
-614.0528259277344
 20
86.12551879882813
 30
-140.0
 40
3.0
  1
42176
100
AcDbText
  0
TEXT
  5
631
330
1F
100
AcDbEntity
  8
HD
 62
     0
100
AcDbText
 10
-610.1530761718747
 20
51.87210083007812
 30
-142.0
 40
3.0
  1
42177
100
AcDbText
  0
TEXT
  5
632
330
1F
100
AcDbEntity
  8
HD
 62
     0
100
AcDbText
 10
-594.3757629394531
 20
43.08493041992185
 30
-144.0
 40
3.0
  1
42178
100
AcDbText
  0
TEXT
  5
633
330
1F
100
AcDbEntity
  8
HD
 62
     0
100
AcDbText
 10
-626.3087463378906
 20
60.86996459960936
 30
-140.0
 40
3.0
  1
42179
100
AcDbText
  0
TEXT
  5
63E
330
1F
100
AcDbEntity
  8
HD
 62
     0
100
AcDbText
 10
-737.1646736180045
 20
-146.5148646280258
 30
-280.0
 40
3.0
  1
42190
100
AcDbText
  0
TEXT
  5
63F
330
1F
100
AcDbEntity
  8
HD
 62
     0
100
AcDbText
 10
-659.2206335182707
 20
-72.38287957167648
 30
-136.0
 40
3.0
  1
42191
100
AcDbText
  0
TEXT
  5
640
330
1F
100
AcDbEntity
  8
HD
 62
     0
100
AcDbText
 10
-625.3515625
 20
-74.01004028320312
 30
-135.6814270019531
 40
3.0
  1
42192
100
AcDbText
  0
TEXT
  5
641
330
1F
100
AcDbEntity
  8
HD
 62
     0
100
AcDbText
 10
-634.339059835512
 20
-89.59039198675865
 30
-134.0
 40
3.0
  1
42193
100
AcDbText
  0
TEXT
  5
642
330
1F
100
AcDbEntity
  8
HD
 62
     0
100
AcDbText
 10
-655.532440578078
 20
-96.14531868126178
 30
-134.0
 40
3.0
  1
42194
100
AcDbText
  0
TEXT
  5
643
330
1F
100
AcDbEntity
  8
HD
 62
     0
100
AcDbText
 10
-637.5019134149156
 20
-95.07374782332899
 30
-134.0
 40
3.0
  1
42195
100
AcDbText
  0
TEXT
  5
644
330
1F
100
AcDbEntity
  8
HD
 62
     0
100
AcDbText
 10
-731.2123453474496
 20
-197.0530882845365
 30
-126.0000038146972
 40
3.0
  1
42196
100
AcDbText
  0
TEXT
  5
645
330
1F
100
AcDbEntity
  8
HD
 62
     0
100
AcDbText
 10
-703.9169577770544
 20
-210.2066335500913
 30
-123.5
 40
3.0
  1
42197
100
AcDbText
  0
TEXT
  5
646
330
1F
100
AcDbEntity
  8
HD
 62
     0
100
AcDbText
 10
-773.9600830078125
 20
-324.832275390625
 30
-113.0000076293945
 40
3.0
  1
42198
100
AcDbText
  0
TEXT
  5
647
330
1F
100
AcDbEntity
  8
HD
 62
     0
100
AcDbText
 10
-783.9176715563231
 20
-319.0746166298479
 30
-115.5000076293945
 40
3.0
  1
42199
100
AcDbText
  0
TEXT
  5
648
330
1F
100
AcDbEntity
  8
HD
 62
     0
100
AcDbText
 10
-794.0825580309323
 20
-313.1971141884418
 30
-118.0000076293945
 40
3.0
  1
42200
100
AcDbText
  0
TEXT
  5
649
330
1F
100
AcDbEntity
  8
HD
 62
     0
100
AcDbText
 10
-790.5514831542967
 20
-299.8125610351562
 30
-118.0000076293945
 40
3.0
  1
42201
100
AcDbText
  0
TEXT
  5
64A
330
1F
100
AcDbEntity
  8
HD
 62
     0
100
AcDbText
 10
-826.1951904296875
 20
-422.1802978515625
 30
-113.0000076293945
 40
3.0
  1
42202
100
AcDbText
  0
TEXT
  5
64B
330
1F
100
AcDbEntity
  8
HD
 62
     0
100
AcDbText
 10
-826.2354736328125
 20
-361.6075439453123
 30
-118.0000076293945
 40
3.0
  1
42203
100
AcDbText
  0
TEXT
  5
64C
330
1F
100
AcDbEntity
  8
HD
 62
     0
100
AcDbText
 10
-879.4007568359374
 20
-393.0984191894531
 30
-140.0
 40
3.0
  1
42204
100
AcDbText
  0
TEXT
  5
64D
330
1F
100
AcDbEntity
  8
HD
 62
     0
100
AcDbText
 10
-880.3272399902342
 20
-455.2799987792966
 30
-113.5000038146972
 40
3.0
  1
42205
100
AcDbText
  0
TEXT
  5
64E
330
1F
100
AcDbEntity
  8
HD
 62
     0
100
AcDbText
 10
-884.1735553340832
 20
-516.2005129866518
 30
-113.0000076293945
 40
3.0
  1
42206
100
AcDbText
  0
TEXT
  5
64F
330
1F
100
AcDbEntity
  8
HD
 62
     0
100
AcDbText
 10
-894.6531695918956
 20
-510.2819949202451
 30
-111.0000076293945
 40
3.0
  1
42207
100
AcDbText
  0
TEXT
  5
650
330
1F
100
AcDbEntity
  8
HD
 62
     0
100
AcDbText
 10
-905.074249267578
 20
-504.4397888183594
 30
-109.0000076293945
 40
3.0
  1
42208
100
AcDbText
  0
TEXT
  5
651
330
1F
100
AcDbEntity
  8
HD
 62
     0
100
AcDbText
 10
-908.8457946777344
 20
-504.6663513183593
 30
-108.9999351501464
 40
3.0
  1
42209
100
AcDbText
  0
TEXT
  5
652
330
1F
100
AcDbEntity
  8
HD
 62
     0
100
AcDbText
 10
-882.84901972553
 20
-520.3918804162367
 30
-112.8921815589362
 40
3.0
  1
42210
100
AcDbText
  0
TEXT
  5
653
330
1F
100
AcDbEntity
  8
HD
 62
     0
100
AcDbText
 10
-914.7488403320313
 20
-575.6916198730468
 30
-106.5000267028808
 40
3.0
  1
42211
100
AcDbText
  0
TEXT
  5
654
330
1F
100
AcDbEntity
  8
HD
 62
     0
100
AcDbText
 10
-936.3212890625
 20
-552.2464599609373
 30
-104.4999961853027
 40
3.0
  1
42212
100
AcDbText
  0
TEXT
  5
655
330
1F
100
AcDbEntity
  8
HD
 62
     0
100
AcDbText
 10
-1022.370971679687
 20
-641.1629028320312
 30
-123.0000038146972
 40
3.0
  1
42213
100
AcDbText
  0
TEXT
  5
656
330
1F
100
AcDbEntity
  8
HD
 62
     0
100
AcDbText
 10
-1003.870544433593
 20
-669.627197265625
 30
-100.000129699707
 40
3.0
  1
42214
100
AcDbText
  0
TEXT
  5
657
330
1F
100
AcDbEntity
  8
HD
 62
     0
100
AcDbText
 10
-982.6451721191407
 20
-693.4718933105467
 30
-100.0000076293945
 40
3.0
  1
42215
100
AcDbText
  0
TEXT
  5
658
330
1F
100
AcDbEntity
  8
HD
 62
     0
100
AcDbText
 10
-1032.023712158203
 20
-748.9559936523437
 30
-100.0000686645507
 40
3.0
  1
42216
100
AcDbText
  0
TEXT
  5
659
330
1F
100
AcDbEntity
  8
HD
 62
     0
100
AcDbText
 10
-1127.711029052735
 20
-944.990234375
 30
-100.0000076293945
 40
3.0
  1
42217
100
AcDbText
  0
TEXT
  5
65A
330
1F
100
AcDbEntity
  8
HD
 62
     0
100
AcDbText
 10
-1154.104736328124
 20
-929.8078613281246
 30
-100.000129699707
 40
3.0
  1
42218
100
AcDbText
  0
TEXT
  5
65B
330
1F
100
AcDbEntity
  8
HD
 62
     0
100
AcDbText
 10
-1194.465026594502
 20
-940.0035092855956
 30
-219.5000114440917
 40
3.0
  1
42219
100
AcDbText
  0
TEXT
  5
65C
330
1F
100
AcDbEntity
  8
HD
 62
     0
100
AcDbText
 10
-1285.297918263737
 20
-1105.322374128934
 30
-105.8528140867067
 40
3.0
  1
42220
100
AcDbText
  0
TEXT
  5
65D
330
1F
100
AcDbEntity
  8
HD
 62
     0
100
AcDbText
 10
-1275.645879689518
 20
-1111.048692488309
 30
-102.8528102720094
 40
3.0
  1
42221
100
AcDbText
  0
TEXT
  5
65E
330
1F
100
AcDbEntity
  8
HD
 62
     0
100
AcDbText
 10
-1266.241149902343
 20
-1116.628295898437
 30
-100.000129699707
 40
3.0
  1
42222
100
AcDbText
  0
TEXT
  5
65F
330
1F
100
AcDbEntity
  8
HD
 62
     0
100
AcDbText
 10
-1249.792053222656
 20
-1125.842102050781
 30
-100.0000686645507
 40
3.0
  1
42223
100
AcDbText
  0
TEXT
  5
6A0
330
1F
100
AcDbEntity
  8
HD
 62
     0
100
AcDbText
 10
64.16595246860352
 20
-147.5858397419534
 30
-77.79925770309801
 40
3.0
  1
42301
100
AcDbText
  0
TEXT
  5
6A1
330
1F
100
AcDbEntity
  8
HD
 62
     0
100
AcDbText
 10
77.56759643554687
 20
-178.9048461914061
 30
-71.0
 40
3.0
  1
42302
100
AcDbText
  0
TEXT
  5
6A2
330
1F
100
AcDbEntity
  8
HD
 62
     0
100
AcDbText
 10
67.00784301757813
 20
-184.8814086914061
 30
-71.0
 40
3.0
  1
42303
100
AcDbText
  0
TEXT
  5
6A3
330
1F
100
AcDbEntity
  8
HD
 62
     0
100
AcDbText
 10
50.29830932617187
 20
-191.9262084960936
 30
-71.0
 40
3.0
  1
42304
100
AcDbText
  0
TEXT
  5
6A4
330
1F
100
AcDbEntity
  8
HD
 62
     0
100
AcDbText
 10
-130.9791259765625
 20
-232.6703796386718
 30
-77.56261444091797
 40
3.0
  1
42305
100
AcDbText
  0
TEXT
  5
6A5
330
1F
100
AcDbEntity
  8
HD
 62
     0
100
AcDbText
 10
-198.820816040039
 20
-7.751296997070308
 30
-77.22222137451172
 40
3.0
  1
42306
100
AcDbText
  0
TEXT
  5
6A6
330
1F
100
AcDbEntity
  8
HD
 62
     0
100
AcDbText
 10
-906.6156005859374
 20
-500.8043518066406
 30
-109.0000038146972
 40
3.0
  1
42307
100
AcDbText
  0
TEXT
  5
6AA
330
1F
100
AcDbEntity
  8
BL
 62
     5
100
AcDbText
 10
-1391.658412808927
 20
-2586.859270324343
 30
0.0
 40
200.0
  1
1:1000
100
AcDbText
  0
LINE
  5
80C
330
1F
100
AcDbEntity
  8
HD
100
AcDbLine
 10
0.0
 20
0.0
 30
-0.0000076293945313
 11
-151.3560485839843
 21
46.37298583984375
 31
-41.0
  0
LINE
  5
80E
330
1F
100
AcDbEntity
  8
HD
100
AcDbLine
 10
-203.4184131121648
 20
60.7448973290575
 30
-56.0
 11
-204.2010192871094
 21
58.3248291015625
 31
-56.0
  0
LINE
  5
80F
330
1F
100
AcDbEntity
  8
HD
100
AcDbLine
 10
-242.6777568529149
 20
72.77321014546952
 30
-66.5
 11
-243.4554443359375
 21
70.32623291015625
 31
-66.5
  0
LINE
  5
810
330
1F
100
AcDbEntity
  8
HD
100
AcDbLine
 10
-283.8443500627004
 20
85.38615494158049
 30
-78.0
 11
-284.6510009765625
 21
82.92077636718749
 31
-78.0
  0
LINE
  5
811
330
1F
100
AcDbEntity
  8
HD
100
AcDbLine
 10
-327.9918169909222
 20
98.91217080504169
 30
-90.0
 11
-328.8014526367188
 21
96.41925048828129
 31
-90.0
  0
LINE
  5
812
330
1F
100
AcDbEntity
  8
HD
100
AcDbLine
 10
-367.3773180388665
 20
110.9790371100132
 30
-101.0
 11
-368.151611328125
 21
108.4494018554687
 31
-101.0
  0
LINE
  5
813
330
1F
100
AcDbEntity
  8
HD
100
AcDbLine
 10
-406.5177876014621
 20
122.9722967969382
 30
-111.0
 11
-407.4058227539062
 21
120.4508666992187
 31
-111.0
  0
LINE
  5
814
330
1F
100
AcDbEntity
  8
HD
100
AcDbLine
 10
-445.9439796131773
 20
135.0511691823321
 30
-122.0
 11
-446.6602783203125
 21
132.4520874023437
 31
-122.0
  0
LINE
  5
815
330
1F
100
AcDbEntity
  8
HD
100
AcDbLine
 10
-484.4215759536587
 20
146.847213801424
 30
-133.0
 11
-485.4287278001764
 21
144.2982506598454
 31
-133.0
  0
LINE
  5
816
330
1F
100
AcDbEntity
  8
HD
100
AcDbLine
 10
-151.8206586529439
 20
44.93624039133127
 30
-41.0
 11
-152.603271484375
 21
42.51611328125
 31
-41.0
  0
LINE
  5
817
330
1F
100
AcDbEntity
  8
HD
100
AcDbLine
 10
-75.47625732421875
 20
-217.4595336914058
 30
-55.0
 11
-74.95834172050803
 21
-210.7903183787064
 31
-55.0
  0
LINE
  5
818
330
1F
100
AcDbEntity
  8
HD
100
AcDbLine
 10
-74.8414306640625
 20
-209.2848510742189
 30
-55.0
 11
75.05373314514098
 21
-219.5348209964027
 31
-30.0
  0
LINE
  5
819
330
1F
100
AcDbEntity
  8
HD
100
AcDbLine
 10
-184.7828063964844
 20
-201.7670288085938
 30
-78.0
 11
-191.2817077636718
 21
-210.7891235351558
 31
-78.0
  0
LINE
  5
81A
330
1F
100
AcDbEntity
  8
HD
100
AcDbLine
 10
-228.4515686035156
 20
-83.30157470703126
 30
-92.0
 11
-223.2724290288989
 21
-77.74882555241749
 31
-92.0
  0
LINE
  5
81B
330
1F
100
AcDbEntity
  8
HD
100
AcDbLine
 10
-493.4029156840622
 20
151.1737243953611
 30
-135.0
 11
-492.32567224418
 21
145.3961127635493
 31
-135.0
  0
LINE
  5
81C
330
1F
100
AcDbEntity
  8
HD
100
AcDbLine
 10
-222.2424926757812
 20
-76.64459228515625
 30
-92.0
 11
-181.8133544921875
 21
-112.2494506835937
 31
-78.0
  0
LINE
  5
81D
330
1F
100
AcDbEntity
  8
HD
100
AcDbLine
 10
-181.9321899414061
 20
-11.69293212890625
 30
-77.0
 11
-187.7981262207031
 21
-17.65826416015625
 31
-77.0
  0
LINE
  5
81E
330
1F
100
AcDbEntity
  8
HD
100
AcDbLine
 10
-208.2388916015625
 20
17.8121337890625
 30
-39.0
 11
-207.2553409311509
 21
20.79489484280224
 31
-39.0
  0
LINE
  5
81F
330
1F
100
AcDbEntity
  8
HD
100
AcDbLine
 10
-184.8628779691493
 20
-20.29641643901042
 30
-77.0
 11
52.3131103515625
 21
-233.4662475585937
 31
-71.0
  0
LINE
  5
820
330
1F
100
AcDbEntity
  8
HD
100
AcDbLine
 10
-324.0599060058594
 20
53.2220458984375
 30
-71.0
 11
-323.2554109086824
 21
56.16449217682873
 31
-71.0
  0
LINE
  5
821
330
1F
100
AcDbEntity
  8
HD
100
AcDbLine
 10
-363.4497578506962
 20
65.26201693187068
 30
-83.0
 11
-362.5675094413034
 21
68.15040848384085
 31
-83.0
  0
LINE
  5
822
330
1F
100
AcDbEntity
  8
HD
100
AcDbLine
 10
-401.19320844423
 20
76.716552734375
 30
-94.0
 11
-400.2584434387483
 21
79.64272566455767
 31
-94.0
  0
LINE
  5
823
330
1F
100
AcDbEntity
  8
HD
100
AcDbLine
 10
-437.9639210297077
 20
87.95721435546921
 30
-105.0
 11
-436.953082216419
 21
90.83248837200285
 31
-105.0
  0
LINE
  5
824
330
1F
100
AcDbEntity
  8
HD
100
AcDbLine
 10
-474.4430541992185
 20
99.19885253906251
 30
-117.0
 11
-473.5228444605446
 21
101.9820408521234
 31
-117.0
  0
LINE
  5
827
330
1F
100
AcDbEntity
  8
HD
100
AcDbLine
 10
-206.782470703125
 20
22.22894287109375
 30
-39.0
 11
-284.1024169921875
 21
45.80438232421875
 31
-60.0
  0
LINE
  5
82A
330
1F
100
AcDbEntity
  8
HD
100
AcDbLine
 10
-473.048828125
 20
103.4157104492192
 30
-117.0
 11
-509.880859375
 21
114.6460571289062
 31
-128.0
  0
LINE
  5
82C
330
1F
100
AcDbEntity
  8
HD
100
AcDbLine
 10
-129.9781188964844
 20
-235.0422973632808
 30
-78.0
 11
-126.9481811523437
 21
-228.1720581054687
 31
-78.0
  0
LINE
  5
82D
330
1F
100
AcDbEntity
  8
HD
100
AcDbLine
 10
-59.80670166015625
 20
-89.03179931640625
 30
-71.0
 11
-65.18927001953125
 21
-95.2977905273433
 31
-71.0
  0
LINE
  5
82E
330
1F
100
AcDbEntity
  8
HD
100
AcDbLine
 10
-160.12646484375
 20
1.29632568359375
 30
-71.0
 11
-165.4401550292968
 21
-4.99310302734375
 31
-71.0
  0
LINE
  5
82F
330
1F
100
AcDbEntity
  8
HD
100
AcDbLine
 10
211.423095703125
 20
-132.9193725585937
 30
-71.0
 11
208.118408203125
 21
-125.3878784179687
 31
-71.0
  0
LINE
  5
830
330
1F
100
AcDbEntity
  8
HD
100
AcDbLine
 10
239.5578002929688
 20
-162.8837280273437
 30
-71.0
 11
236.3021240234375
 21
-155.0886840820308
 31
-71.0
  0
LINE
  5
831
330
1F
100
AcDbEntity
  8
HD
100
AcDbLine
 10
236.3021240234375
 20
-155.0886840820308
 30
-71.0
 11
93.50787353515626
 21
-215.9176635742188
 31
-71.0
  0
LINE
  5
832
330
1F
100
AcDbEntity
  8
HD
100
AcDbLine
 10
52.3131103515625
 20
-233.4662475585937
 30
-71.0
 11
55.22509765625
 21
-240.0304565429689
 31
-71.0
  0
LINE
  5
833
330
1F
100
AcDbEntity
  8
HD
100
AcDbLine
 10
255.9651489257813
 20
-63.5267333984375
 30
-78.0
 11
172.9581298828125
 21
-98.8385009765625
 31
-78.0
  0
LINE
  5
834
330
1F
100
AcDbEntity
  8
HD
100
AcDbLine
 10
208.118408203125
 20
-125.3878784179687
 30
-71.0
 11
78.1202392578125
 21
-180.1964721679686
 31
-71.0
  0
LINE
  5
835
330
1F
100
AcDbEntity
  8
HD
100
AcDbLine
 10
-165.4401550292968
 20
-4.99310302734375
 30
-71.0
 11
-259.1470684182368
 21
74.9911625255754
 31
-71.0
  0
LINE
  5
837
330
1F
100
AcDbEntity
  8
HD
100
AcDbLine
 10
-464.7910766601562
 20
131.6862182617187
 30
-147.0
 11
-428.750061035156
 21
110.6559448242187
 31
-147.0
  0
LINE
  5
844
330
1F
100
AcDbEntity
  8
HD
100
AcDbLine
 10
-1288.547973632812
 20
-1103.394226074219
 30
-106.0000076293945
 11
-1100.382080078124
 21
-776.6128540039058
 31
-106.0000076293945
  0
LINE
  5
845
330
1F
100
AcDbEntity
  8
HD
100
AcDbLine
 10
-468.2885131835937
 20
131.7930297851562
 30
-147.0
 11
-457.7135009765623
 21
149.5016479492187
 31
-147.0
  0
LINE
  5
846
330
1F
100
AcDbEntity
  8
HD
100
AcDbLine
 10
-478.3005371093748
 20
161.4830932617187
 30
-147.0
 11
-468.5457153320312
 21
178.4115600585936
 31
-147.0
  0
LINE
  5
847
330
1F
100
AcDbEntity
  8
HD
100
AcDbLine
 10
-560.0734355192662
 20
19.55030788764678
 30
-147.0
 11
-582.653076171875
 21
-19.9915771484375
 31
-137.0
  0
LINE
  5
848
330
1F
100
AcDbEntity
  8
HD
100
AcDbLine
 10
-554.1495361328125
 20
189.8258666992186
 30
-144.0
 11
-550.9336547851561
 21
195.3383178710936
 31
-144.0
  0
LINE
  5
84B
330
1F
100
AcDbEntity
  8
HD
100
AcDbLine
 10
-881.3702392578125
 20
-517.8283081054686
 30
-113.0000076293945
 11
-886.9768714103537
 21
-514.5727178678347
 31
-113.0000076293945
  0
LINE
  5
84C
330
1F
100
AcDbEntity
  8
HD
100
AcDbLine
 10
-771.0201416015625
 20
-326.5321655273437
 30
-113.0000076293945
 11
-776.9000244140625
 21
-323.1323852539059
 31
-113.0000076293945
  0
LINE
  5
84E
330
1F
100
AcDbEntity
  8
HD
100
AcDbLine
 10
-616.97705078125
 20
-59.49249267578125
 30
-137.0
 11
-623.0590209960937
 21
-56.1644897460933
 31
-137.0
  0
LINE
  5
852
330
1F
100
AcDbEntity
  8
HD
100
AcDbLine
 10
-372.9968785743017
 20
31.48161568124566
 30
-125.0
 11
-561.3431396484375
 21
89.26477050781249
 31
-125.0
  0
LINE
  5
853
330
1F
100
AcDbEntity
  8
HD
100
AcDbLine
 10
-502.541748046875
 20
74.36187744140625
 30
-147.0
 11
-494.7506713867187
 21
68.83612060546875
 31
-147.0
  0
LINE
  5
854
330
1F
100
AcDbEntity
  8
HD
100
AcDbLine
 10
-455.9041961129897
 20
-7.432232866694646
 30
-146.0
 11
-457.874374512809
 21
-15.9692221818791
 31
-146.0
  0
LINE
  5
855
330
1F
100
AcDbEntity
  8
HD
100
AcDbLine
 10
-524.8665771484374
 20
160.8102416992187
 30
-144.0
 11
-537.3648071289061
 21
164.6395874023442
 31
-144.0
  0
LINE
  5
856
330
1F
100
AcDbEntity
  8
HD
100
AcDbLine
 10
-493.4029156840622
 20
151.1737243953611
 30
-135.0
 11
-495.4132177336926
 21
151.7896631690726
 31
-135.0
  0
LINE
  5
857
330
1F
100
AcDbEntity
  8
HD
100
AcDbLine
 10
-495.4132177336926
 20
151.7896631690726
 30
-135.0
 11
-522.3349571350532
 21
160.0346123661466
 31
-144.0
  0
LINE
  5
859
330
1F
100
AcDbEntity
  8
HD
100
AcDbLine
 10
-483.8677135737573
 20
148.2489634946372
 30
-133.0
 11
-489.9518782210813
 21
150.1164136234804
 31
-135.0
  0
LINE
  5
85A
330
1F
100
AcDbEntity
  8
HD
100
AcDbLine
 10
-489.9518782210813
 20
150.1164136234804
 30
-135.0
 11
-493.4029156840622
 21
151.1737243953611
 31
-135.0
  0
LINE
  5
85C
330
1F
100
AcDbEntity
  8
HD
100
AcDbLine
 10
-445.5427856445312
 20
136.5068969726562
 30
-122.0
 11
-483.8677135737573
 21
148.2489634946372
 31
-133.0
  0
LINE
  5
85F
330
1F
100
AcDbEntity
  8
HD
100
AcDbLine
 10
-406.0161743164058
 20
124.3965454101567
 30
-111.0
 11
-445.5427856445312
 21
136.5068969726562
 31
-122.0
  0
LINE
  5
862
330
1F
100
AcDbEntity
  8
HD
100
AcDbLine
 10
-366.9353637695313
 20
112.4229125976562
 30
-101.0
 11
-406.0161743164058
 21
124.3965454101567
 31
-111.0
  0
LINE
  5
865
330
1F
100
AcDbEntity
  8
HD
100
AcDbLine
 10
-327.525390625
 20
100.3483276367187
 30
-90.0
 11
-366.9353637695313
 21
112.4229125976562
 31
-101.0
  0
LINE
  5
868
330
1F
100
AcDbEntity
  8
HD
100
AcDbLine
 10
-283.3747863769531
 20
86.8212890625
 30
-78.0
 11
-327.525390625
 21
100.3483276367187
 31
-90.0
  0
LINE
  5
86A
330
1F
100
AcDbEntity
  8
HD
100
AcDbLine
 10
-259.112060546875
 20
79.38763427734375
 30
-71.0
 11
-261.1205019058615
 21
80.00362667312316
 31
-71.0
  0
LINE
  5
86B
330
1F
100
AcDbEntity
  8
HD
100
AcDbLine
 10
-261.1205019058615
 20
80.00362667312316
 30
-71.0
 11
-283.3747863769531
 21
86.8212890625
 31
-78.0
  0
LINE
  5
86E
330
1F
100
AcDbEntity
  8
HD
100
AcDbLine
 10
-242.2203979492187
 20
74.2122802734375
 30
-66.5
 11
-256.6616058132539
 21
78.63668420183845
 31
-71.0
  0
LINE
  5
86F
330
1F
100
AcDbEntity
  8
HD
100
AcDbLine
 10
-256.6616058132539
 20
78.63668420183845
 30
-71.0
 11
-259.112060546875
 21
79.38763427734375
 31
-71.0
  0
LINE
  5
871
330
1F
100
AcDbEntity
  8
HD
100
AcDbLine
 10
-202.9537963867187
 20
62.181640625
 30
-56.0
 11
-242.2203979492187
 21
74.2122802734375
 31
-66.5
  0
LINE
  5
874
330
1F
100
AcDbEntity
  8
HD
100
AcDbLine
 10
-151.3560485839843
 20
46.37298583984375
 30
-41.0
 11
-202.9537963867187
 21
62.181640625
 31
-56.0
  0
LINE
  5
876
330
1F
100
AcDbEntity
  8
HD
100
AcDbLine
 10
-184.7828063964844
 20
-201.7670288085938
 30
-78.0
 11
-199.2139892578125
 21
-200.7798461914058
 31
-78.0
  0
LINE
  5
877
330
1F
100
AcDbEntity
  8
HD
100
AcDbLine
 10
-74.8414306640625
 20
-209.2848510742189
 30
-55.0
 11
-179.8769493752504
 21
-202.102619925435
 31
-78.0
  0
LINE
  5
878
330
1F
100
AcDbEntity
  8
HD
100
AcDbLine
 10
208.5184326171875
 20
-164.2356567382808
 30
-12.0
 11
200.6626586914062
 21
-113.8094482421875
 31
-0.0000076293945313
  0
LINE
  5
879
330
1F
100
AcDbEntity
  8
HD
100
AcDbLine
 10
208.89697265625
 20
-176.2063598632808
 30
-14.0
 11
208.5184326171875
 21
-164.2356567382808
 31
-12.0
  0
LINE
  5
87A
330
1F
100
AcDbEntity
  8
HD
100
AcDbLine
 10
205.1450805664063
 20
-188.1281127929686
 30
-14.0
 11
208.89697265625
 21
-176.2063598632808
 31
-14.0
  0
LINE
  5
87B
330
1F
100
AcDbEntity
  8
HD
100
AcDbLine
 10
196.50048828125
 20
-196.3444213867186
 30
-14.0
 11
205.1450805664063
 21
-188.1281127929686
 31
-14.0
  0
LINE
  5
87C
330
1F
100
AcDbEntity
  8
HD
100
AcDbLine
 10
185.87890625
 20
-201.9921264648437
 30
-14.0
 11
196.50048828125
 21
-196.3444213867186
 31
-14.0
  0
LINE
  5
87D
330
1F
100
AcDbEntity
  8
HD
100
AcDbLine
 10
77.87998364908421
 20
-219.3893339912817
 30
-30.0
 11
181.0698382247818
 21
-202.7668041415149
 31
-14.0
  0
LINE
  5
87E
330
1F
100
AcDbEntity
  8
HD
100
AcDbLine
 10
-123.1875610351562
 20
-251.1276245117187
 30
-78.0
 11
-130.6845092773437
 21
-254.4330444335937
 31
-78.0
  0
LINE
  5
87F
330
1F
100
AcDbEntity
  8
HD
100
AcDbLine
 10
-113.5039672851562
 20
-274.0673217773438
 30
-78.0
 11
-123.1875610351562
 21
-251.1276245117187
 31
-78.0
  0
LINE
  5
880
330
1F
100
AcDbEntity
  8
HD
100
AcDbLine
 10
-114.4939880371093
 20
-288.6364135742187
 30
-78.0
 11
-113.5039672851562
 21
-274.0673217773438
 31
-78.0
  0
LINE
  5
881
330
1F
100
AcDbEntity
  8
HD
100
AcDbLine
 10
-120.9514770507812
 20
-302.5424194335938
 30
-78.0
 11
-114.4939880371093
 21
-288.6364135742187
 31
-78.0
  0
LINE
  5
882
330
1F
100
AcDbEntity
  8
HD
100
AcDbLine
 10
-133.1561584472656
 20
-312.0327758789059
 30
-78.0
 11
-120.9514770507812
 21
-302.5424194335938
 31
-78.0
  0
LINE
  5
883
330
1F
100
AcDbEntity
  8
HD
100
AcDbLine
 10
-151.5285034179687
 20
-314.9413452148437
 30
-78.0
 11
-133.1561584472656
 21
-312.0327758789059
 31
-78.0
  0
LINE
  5
884
330
1F
100
AcDbEntity
  8
HD
100
AcDbLine
 10
-166.7174987792968
 20
-310.3966674804687
 30
-78.0
 11
-151.5285034179687
 21
-314.9413452148437
 31
-78.0
  0
LINE
  5
885
330
1F
100
AcDbEntity
  8
HD
100
AcDbLine
 10
-178.1922607421875
 20
-299.6329956054688
 30
-78.0
 11
-166.7174987792968
 21
-310.3966674804687
 31
-78.0
  0
LINE
  5
886
330
1F
100
AcDbEntity
  8
HD
100
AcDbLine
 10
-193.2809143066406
 20
-262.7089233398438
 30
-78.0
 11
-178.1922607421875
 21
-299.6329956054688
 31
-78.0
  0
LINE
  5
887
330
1F
100
AcDbEntity
  8
HD
100
AcDbLine
 10
-194.2949829101561
 20
-256.7042846679687
 30
-78.0
 11
-193.2809143066406
 21
-262.7089233398438
 31
-78.0
  0
LINE
  5
888
330
1F
100
AcDbEntity
  8
HD
100
AcDbLine
 10
-191.2817077636718
 20
-210.7891235351558
 30
-78.0
 11
-194.2949829101561
 21
-256.7042846679687
 31
-78.0
  0
LINE
  5
889
330
1F
100
AcDbEntity
  8
HD
100
AcDbLine
 10
-369.5849914550781
 20
30.43487548828125
 30
-125.0
 11
-372.3968505859375
 21
22.0966796875
 31
-125.0
  0
LINE
  5
88A
330
1F
100
AcDbEntity
  8
HD
100
AcDbLine
 10
-325.7591857910156
 20
15.7904052734375
 30
-125.0
 11
-369.5849914550781
 21
30.43487548828125
 31
-125.0
  0
LINE
  5
88B
330
1F
100
AcDbEntity
  8
HD
100
AcDbLine
 10
-222.2424926757812
 20
-76.64459228515625
 30
-92.0
 11
-325.7591857910156
 21
15.7904052734375
 31
-125.0
  0
LINE
  5
88C
330
1F
100
AcDbEntity
  8
HD
100
AcDbLine
 10
-510.3923578153931
 20
113.2253286729811
 30
-128.0
 11
-511.3665970385002
 21
110.4401245117187
 31
-128.0
  0
LINE
  5
88D
330
1F
100
AcDbEntity
  8
HD
100
AcDbLine
 10
-563.483154296875
 20
130.9896850585937
 30
-144.0
 11
-509.880859375
 21
114.6460571289062
 31
-128.0
  0
LINE
  5
88F
330
1F
100
AcDbEntity
  8
HD
100
AcDbLine
 10
-580.2374267578125
 20
144.6644897460937
 30
-144.0
 11
-563.483154296875
 21
130.9896850585937
 31
-144.0
  0
LINE
  5
890
330
1F
100
AcDbEntity
  8
HD
100
AcDbLine
 10
-554.1495361328125
 20
189.8258666992186
 30
-144.0
 11
-580.2374267578125
 21
144.6644897460937
 31
-144.0
  0
LINE
  5
891
330
1F
100
AcDbEntity
  8
HD
100
AcDbLine
 10
-511.350830078125
 20
184.4264526367186
 30
-144.0
 11
-554.1495361328125
 21
189.8258666992186
 31
-144.0
  0
LINE
  5
892
330
1F
100
AcDbEntity
  8
HD
100
AcDbLine
 10
-524.8665771484374
 20
160.8102416992187
 30
-144.0
 11
-511.350830078125
 21
184.4264526367186
 31
-144.0
  0
LINE
  5
893
330
1F
100
AcDbEntity
  8
HD
100
AcDbLine
 10
-545.2347412109373
 20
125.3798217773437
 30
-144.0
 11
-524.8665771484374
 21
160.8102416992187
 31
-144.0
  0
LINE
  5
894
330
1F
100
AcDbEntity
  8
HD
100
AcDbLine
 10
-592.9889526367187
 20
42.31256103515625
 30
-144.0
 11
-545.2347412109373
 21
125.3798217773437
 31
-144.0
  0
LINE
  5
895
330
1F
100
AcDbEntity
  8
HD
100
AcDbLine
 10
-560.9870463186547
 20
23.78092271410637
 30
-147.0
 11
-590.9431635887052
 21
41.12788714910244
 31
-144.0
  0
LINE
  5
896
330
1F
100
AcDbEntity
  8
HD
100
AcDbLine
 10
-553.4930419921875
 20
30.9951171875
 30
-147.0
 11
-558.4849853515625
 21
22.33203125
 31
-147.0
  0
LINE
  5
897
330
1F
100
AcDbEntity
  8
HD
100
AcDbLine
 10
-509.8137705725923
 20
106.7955335397411
 30
-147.000031313018
 11
-553.4930419921875
 21
30.9951171875
 31
-147.0
  0
LINE
  5
898
330
1F
100
AcDbEntity
  8
HD
100
AcDbLine
 10
-509.0397338867187
 20
93.79626464843751
 30
-146.9999694824219
 11
-509.8137705725923
 21
106.7955335397411
 31
-147.000031313018
  0
LINE
  5
899
330
1F
100
AcDbEntity
  8
HD
100
AcDbLine
 10
-507.2275390625
 20
84.73272705078125
 30
-147.0000305175781
 11
-509.0397338867187
 21
93.79626464843751
 31
-146.9999694824219
  0
LINE
  5
89A
330
1F
100
AcDbEntity
  8
HD
100
AcDbLine
 10
-502.541748046875
 20
74.36187744140625
 30
-147.0
 11
-507.2275390625
 21
84.73272705078125
 31
-147.0000305175781
  0
LINE
  5
89B
330
1F
100
AcDbEntity
  8
HD
100
AcDbLine
 10
-477.7001542309328
 20
116.012873751664
 30
-147.0
 11
-498.2266970230013
 21
81.59676645881686
 31
-147.0
  0
LINE
  5
89C
330
1F
100
AcDbEntity
  8
HD
100
AcDbLine
 10
-492.32567224418
 20
145.3961127635493
 30
-135.0
 11
-472.0929857512039
 21
133.9218247246769
 31
-147.0
  0
LINE
  5
89D
330
1F
100
AcDbEntity
  8
HD
100
AcDbLine
 10
-129.9781188964844
 20
-235.0422973632808
 30
-78.0
 11
-123.1875610351562
 21
-251.1276245117187
 31
-78.0
  0
LINE
  5
89E
330
1F
100
AcDbEntity
  8
HD
100
AcDbLine
 10
-131.9803771972656
 20
-230.2985229492187
 30
-78.0
 11
-129.9781188964844
 21
-235.0422973632808
 31
-78.0
  0
LINE
  5
89F
330
1F
100
AcDbEntity
  8
HD
100
AcDbLine
 10
-181.8133544921875
 20
-112.2494506835937
 30
-78.0
 11
-131.9803771972656
 21
-230.2985229492187
 31
-78.0
  0
LINE
  5
8A0
330
1F
100
AcDbEntity
  8
HD
100
AcDbLine
 10
-284.5468168742304
 20
44.36125767789039
 30
-60.0
 11
-285.452880859375
 21
41.4189453125
 31
-60.0
  0
LINE
  5
8A1
330
1F
100
AcDbEntity
  8
HD
100
AcDbLine
 10
-312.3803100585937
 20
54.43487548828125
 30
-68.0
 11
-310.3709573185424
 21
53.82164883891025
 31
-68.0
  0
LINE
  5
8A2
330
1F
100
AcDbEntity
  8
HD
100
AcDbLine
 10
-310.3709573185424
 20
53.82164883891025
 30
-68.0
 11
-284.1024169921875
 21
45.80438232421875
 31
-60.0
  0
LINE
  5
8A4
330
1F
100
AcDbEntity
  8
HD
100
AcDbLine
 10
-314.8933715820313
 20
44.27227783203124
 30
-68.0
 11
-312.3803100585937
 21
54.43487548828125
 31
-68.0
  0
LINE
  5
8A5
330
1F
100
AcDbEntity
  8
HD
100
AcDbLine
 10
-311.6456909179687
 20
35.699951171875
 30
-68.0
 11
-314.8933715820313
 21
44.27227783203124
 31
-68.0
  0
LINE
  5
8A6
330
1F
100
AcDbEntity
  8
HD
100
AcDbLine
 10
-304.5379028320312
 20
30.80126953125
 30
-68.0
 11
-311.6456909179687
 21
35.699951171875
 31
-68.0
  0
LINE
  5
8A7
330
1F
100
AcDbEntity
  8
HD
100
AcDbLine
 10
-209.843505859375
 20
2.15570068359375
 30
-77.0
 11
-304.5379028320312
 21
30.80126953125
 31
-68.0
  0
LINE
  5
8A8
330
1F
100
AcDbEntity
  8
HD
100
AcDbLine
 10
-187.7981262207031
 20
-17.65826416015625
 30
-77.0
 11
-209.843505859375
 21
2.15570068359375
 31
-77.0
  0
LINE
  5
8AC
330
1F
100
AcDbEntity
  8
HD
100
AcDbLine
 10
-206.782470703125
 20
22.22894287109375
 30
-39.0
 11
-163.4068145692828
 21
9.003362110749764
 31
-26.0
  0
LINE
  5
8AD
330
1F
100
AcDbEntity
  8
HD
100
AcDbLine
 10
172.9581298828125
 20
-98.8385009765625
 30
-78.0
 11
176.43310546875
 21
-106.5065307617187
 31
-78.0
  0
LINE
  5
8AE
330
1F
100
AcDbEntity
  8
HD
100
AcDbLine
 10
63.273193359375
 20
-145.4994506835937
 30
-78.0
 11
172.9581298828125
 21
-98.8385009765625
 31
-78.0
  0
LINE
  5
8AF
330
1F
100
AcDbEntity
  8
HD
100
AcDbLine
 10
65.05871157783204
 20
-149.6722288003131
 30
-78.0
 11
63.273193359375
 21
-145.4994506835937
 31
-78.0
  0
LINE
  5
8B0
330
1F
100
AcDbEntity
  8
HD
100
AcDbLine
 10
77.01495361328125
 20
-177.6132202148436
 30
-71.0
 11
65.05871157783204
 21
-149.6722288003131
 31
-78.0
  0
LINE
  5
8B1
330
1F
100
AcDbEntity
  8
HD
100
AcDbLine
 10
78.1202392578125
 20
-180.1964721679686
 30
-71.0
 11
77.01495361328125
 21
-177.6132202148436
 31
-71.0
  0
LINE
  5
8B2
330
1F
100
AcDbEntity
  8
HD
100
AcDbLine
 10
93.50787353515626
 20
-215.9176635742188
 30
-71.0
 11
78.1202392578125
 21
-180.1964721679686
 31
-71.0
  0
LINE
  5
8B3
330
1F
100
AcDbEntity
  8
HD
100
AcDbLine
 10
52.3131103515625
 20
-233.4662475585937
 30
-71.0
 11
93.50787353515626
 21
-215.9176635742188
 31
-71.0
  0
LINE
  5
8B5
330
1F
100
AcDbEntity
  8
HD
100
AcDbLine
 10
-322.857177734375
 20
57.62103271484375
 30
-71.0
 11
-314.3899440131276
 21
55.04586438723453
 31
-68.0
  0
LINE
  5
8B6
330
1F
100
AcDbEntity
  8
HD
100
AcDbLine
 10
-314.3899440131276
 20
55.04586438723453
 30
-68.0
 11
-312.3803100585937
 21
54.43487548828125
 31
-68.0
  0
LINE
  5
8B8
330
1F
100
AcDbEntity
  8
HD
100
AcDbLine
 10
-362.1264038085937
 20
69.59454345703125
 30
-83.0
 11
-322.857177734375
 21
57.62103271484375
 31
-71.0
  0
LINE
  5
8BB
330
1F
100
AcDbEntity
  8
HD
100
AcDbLine
 10
-399.7989501953125
 20
81.08111572265626
 30
-94.0
 11
-362.1264038085937
 21
69.59454345703125
 31
-83.0
  0
LINE
  5
8BE
330
1F
100
AcDbEntity
  8
HD
100
AcDbLine
 10
-436.4522705078123
 20
92.25701904296874
 30
-105.0
 11
-399.7989501953125
 21
81.08111572265626
 31
-94.0
  0
LINE
  5
8C1
330
1F
100
AcDbEntity
  8
HD
100
AcDbLine
 10
-473.048828125
 20
103.4157104492192
 30
-117.0
 11
-436.4522705078123
 21
92.25701904296874
 31
-105.0
  0
LINE
  5
8C3
330
1F
100
AcDbEntity
  8
HD
100
AcDbLine
 10
-121.849609375
 20
-224.2523803710938
 30
-78.0
 11
63.273193359375
 21
-145.4994506835937
 31
-78.0
  0
LINE
  5
8C4
330
1F
100
AcDbEntity
  8
HD
100
AcDbLine
 10
-126.9481811523437
 20
-228.1720581054687
 30
-78.0
 11
-121.849609375
 21
-224.2523803710938
 31
-78.0
  0
LINE
  5
8C5
330
1F
100
AcDbEntity
  8
HD
100
AcDbLine
 10
55.89544677734375
 20
-189.5663452148436
 30
-71.0
 11
53.3782958984375
 21
-183.7106323242186
 31
-71.0
  0
LINE
  5
8C6
330
1F
100
AcDbEntity
  8
HD
100
AcDbLine
 10
44.701171875
 20
-194.2860717773436
 30
-71.0
 11
55.89544677734375
 21
-189.5663452148436
 31
-71.0
  0
LINE
  5
8C7
330
1F
100
AcDbEntity
  8
HD
100
AcDbLine
 10
-65.18927001953125
 20
-95.2977905273433
 30
-71.0
 11
44.701171875
 21
-194.2860717773436
 31
-71.0
  0
LINE
  5
8C8
330
1F
100
AcDbEntity
  8
HD
100
AcDbLine
 10
-165.4401550292968
 20
-4.99310302734375
 30
-71.0
 11
-65.18927001953125
 21
-95.2977905273433
 31
-71.0
  0
LINE
  5
8C9
330
1F
100
AcDbEntity
  8
HD
100
AcDbLine
 10
208.118408203125
 20
-125.3878784179687
 30
-71.0
 11
272.0193481445313
 21
-98.44683837890629
 31
-71.0
  0
LINE
  5
8CA
330
1F
100
AcDbEntity
  8
HD
100
AcDbLine
 10
236.3021240234375
 20
-155.0886840820308
 30
-71.0
 11
298.96484375
 21
-128.3951416015625
 31
-71.0
  0
LINE
  5
8CB
330
1F
100
AcDbEntity
  8
HD
100
AcDbLine
 10
78.1202392578125
 20
-180.1964721679686
 30
-71.0
 11
55.89544677734375
 21
-189.5663452148436
 31
-71.0
  0
LINE
  5
8D8
330
1F
100
AcDbEntity
  8
HD
100
AcDbLine
 10
-438.0236206054687
 20
132.1498413085937
 30
-147.0
 11
-458.2352294921873
 21
143.1747436523437
 31
-147.0
  0
LINE
  5
8D9
330
1F
100
AcDbEntity
  8
HD
100
AcDbLine
 10
-431.1235961914062
 20
129.8796997070312
 30
-147.0
 11
-438.0236206054687
 21
132.1498413085937
 31
-147.0
  0
LINE
  5
8DA
330
1F
100
AcDbEntity
  8
HD
100
AcDbLine
 10
-424.3624877929685
 20
130.5348510742187
 30
-147.0
 11
-431.1235961914062
 21
129.8796997070312
 31
-147.0
  0
LINE
  5
8DB
330
1F
100
AcDbEntity
  8
HD
100
AcDbLine
 10
-419.1799926757812
 20
135.5303344726562
 30
-147.0
 11
-424.3624877929685
 21
130.5348510742187
 31
-147.0
  0
LINE
  5
8DC
330
1F
100
AcDbEntity
  8
HD
100
AcDbLine
 10
-417.4803466796872
 20
143.0570678710937
 30
-147.0
 11
-419.1799926757812
 21
135.5303344726562
 31
-147.0
  0
LINE
  5
8DD
330
1F
100
AcDbEntity
  8
HD
100
AcDbLine
 10
-419.9967041015623
 20
149.5811157226562
 30
-147.0
 11
-417.4803466796872
 21
143.0570678710937
 31
-147.0
  0
LINE
  5
8DE
330
1F
100
AcDbEntity
  8
HD
100
AcDbLine
 10
-425.4473266601562
 20
154.3461303710937
 30
-147.0
 11
-419.9967041015623
 21
149.5811157226562
 31
-147.0
  0
LINE
  5
8DF
330
1F
100
AcDbEntity
  8
HD
100
AcDbLine
 10
-468.5457153320312
 20
178.4115600585936
 30
-147.0
 11
-425.4473266601562
 21
154.3461303710937
 31
-147.0
  0
LINE
  5
8E0
330
1F
100
AcDbEntity
  8
HD
100
AcDbLine
 10
-463.4232177734373
 20
187.3012084960936
 30
-147.0
 11
-468.5457153320312
 21
178.4115600585936
 31
-147.0
  0
LINE
  5
8E1
330
1F
100
AcDbEntity
  8
HD
100
AcDbLine
 10
-420.596923828125
 20
179.7721557617187
 30
-147.0
 11
-463.4232177734373
 21
187.3012084960936
 31
-147.0
  0
LINE
  5
8E2
330
1F
100
AcDbEntity
  8
HD
100
AcDbLine
 10
-398.8870239257813
 20
167.4838256835942
 30
-147.0
 11
-420.596923828125
 21
179.7721557617187
 31
-147.0
  0
LINE
  5
8E3
330
1F
100
AcDbEntity
  8
HD
100
AcDbLine
 10
-394.9521484375
 20
164.1012573242187
 30
-147.0
 11
-398.8870239257813
 21
167.4838256835942
 31
-147.0
  0
LINE
  5
8E4
330
1F
100
AcDbEntity
  8
HD
100
AcDbLine
 10
-393.1543884277344
 20
159.1660766601567
 30
-147.0
 11
-394.9521484375
 21
164.1012573242187
 31
-147.0
  0
LINE
  5
8E5
330
1F
100
AcDbEntity
  8
HD
100
AcDbLine
 10
-393.94580078125
 20
154.4382934570312
 30
-147.0
 11
-393.1543884277344
 21
159.1660766601567
 31
-147.0
  0
LINE
  5
8E6
330
1F
100
AcDbEntity
  8
HD
100
AcDbLine
 10
-415.474365234375
 20
116.7421264648437
 30
-147.0
 11
-393.94580078125
 21
154.4382934570312
 31
-147.0
  0
LINE
  5
8E7
330
1F
100
AcDbEntity
  8
HD
100
AcDbLine
 10
-418.5598754882811
 20
112.1908569335937
 30
-147.0
 11
-415.474365234375
 21
116.7421264648437
 31
-147.0
  0
LINE
  5
8E8
330
1F
100
AcDbEntity
  8
HD
100
AcDbLine
 10
-422.9195556640623
 20
110.0454711914062
 30
-147.0
 11
-418.5598754882811
 21
112.1908569335937
 31
-147.0
  0
LINE
  5
8E9
330
1F
100
AcDbEntity
  8
HD
100
AcDbLine
 10
-428.750061035156
 20
110.6559448242187
 30
-147.0
 11
-422.9195556640623
 21
110.0454711914062
 31
-147.0
  0
LINE
  5
8F9
330
1F
100
AcDbEntity
  8
HD
100
AcDbLine
 10
-1282.047862894662
 20
-1107.250522183648
 30
-106.0
 11
-1288.547973632812
 21
-1103.394226074219
 31
-106.0000076293945
  0
LINE
  5
8FA
330
1F
100
AcDbEntity
  8
HD
100
AcDbLine
 10
-1269.243896484374
 20
-1114.846862792969
 30
-100.0
 11
-1282.047862894662
 21
-1107.250522183648
 31
-106.0
  0
LINE
  5
8FB
330
1F
100
AcDbEntity
  8
HD
100
AcDbLine
 10
-1263.238403320312
 20
-1118.409851074218
 30
-100.0
 11
-1269.243896484374
 21
-1114.846862792969
 31
-100.0
  0
LINE
  5
8FC
330
1F
100
AcDbEntity
  8
HD
100
AcDbLine
 10
-1236.345703124999
 20
-1133.274353027344
 30
-100.0000076293945
 11
-1263.238403320312
 21
-1118.409851074218
 31
-100.0
  0
LINE
  5
8FD
330
1F
100
AcDbEntity
  8
HD
100
AcDbLine
 10
-1019.076293945312
 20
-756.7059936523437
 30
-100.0000076293945
 11
-1236.345703124999
 21
-1133.274353027344
 31
-100.0000076293945
  0
LINE
  5
8FE
330
1F
100
AcDbEntity
  8
HD
100
AcDbLine
 10
-1044.971069335937
 20
-741.2059936523437
 30
-100.0
 11
-1019.076293945312
 21
-756.7059936523437
 31
-100.0000076293945
  0
LINE
  5
8FF
330
1F
100
AcDbEntity
  8
HD
100
AcDbLine
 10
-1263.238403320312
 20
-1118.409851074218
 30
-100.0
 11
-1044.971069335937
 21
-741.2059936523437
 31
-100.0
  0
LINE
  5
917
330
1F
100
AcDbEntity
  8
HD
100
AcDbLine
 10
-582.054443359375
 20
141.5189819335937
 30
-144.0
 11
-580.2374267578125
 21
144.6644897460937
 31
-144.0
  0
LINE
  5
918
330
1F
100
AcDbEntity
  8
HD
100
AcDbLine
 10
-600.0316772460937
 20
110.3981323242192
 30
-140.0
 11
-582.054443359375
 21
141.5189819335937
 31
-144.0
  0
LINE
  5
919
330
1F
100
AcDbEntity
  8
HD
100
AcDbLine
 10
-628.0739746093749
 20
61.8531494140625
 30
-140.0
 11
-600.0316772460937
 21
110.3981323242192
 31
-140.0
  0
LINE
  5
91A
330
1F
100
AcDbEntity
  8
HD
100
AcDbLine
 10
-648.0729980468749
 20
27.232177734375
 30
-140.0
 11
-628.0739746093749
 21
61.8531494140625
 31
-140.0
  0
LINE
  5
91B
330
1F
100
AcDbEntity
  8
HD
100
AcDbLine
 10
-648.0729980468749
 20
7.936279296875
 30
-140.0
 11
-648.0729980468749
 21
27.232177734375
 31
-140.0
  0
LINE
  5
91C
330
1F
100
AcDbEntity
  8
HD
100
AcDbLine
 10
-659.8876953125
 20
-12.54583740234375
 30
-140.0
 11
-648.0729980468749
 21
7.936279296875
 31
-140.0
  0
LINE
  5
91D
330
1F
100
AcDbEntity
  8
HD
100
AcDbLine
 10
-814.4416503906249
 20
-280.4838256835937
 30
-140.0
 11
-659.8876953125
 21
-12.54583740234375
 31
-140.0
  0
LINE
  5
91E
330
1F
100
AcDbEntity
  8
HD
100
AcDbLine
 10
-944.3598632812497
 20
-505.7129516601557
 30
-140.0
 11
-814.4416503906249
 21
-280.4838256835937
 31
-140.0
  0
LINE
  5
91F
330
1F
100
AcDbEntity
  8
HD
100
AcDbLine
 10
-1100.382080078124
 20
-776.6128540039058
 30
-106.0000076293945
 11
-944.3598632812497
 21
-505.7129516601557
 31
-140.0
  0
LINE
  5
920
330
1F
100
AcDbEntity
  8
HD
100
AcDbLine
 10
-478.3005371093748
 20
161.4830932617187
 30
-147.0
 11
-509.8137705725923
 21
106.7955335397411
 31
-147.000031313018
  0
LINE
  5
921
330
1F
100
AcDbEntity
  8
HD
100
AcDbLine
 10
-457.7135009765623
 20
149.5016479492187
 30
-147.0
 11
-478.3005371093748
 21
161.4830932617187
 31
-147.0
  0
LINE
  5
922
330
1F
100
AcDbEntity
  8
HD
100
AcDbLine
 10
-511.350830078125
 20
184.4264526367186
 30
-144.0
 11
-506.7805175781248
 21
192.4088745117186
 31
-144.0
  0
LINE
  5
923
330
1F
100
AcDbEntity
  8
HD
100
AcDbLine
 10
-471.9720579156915
 20
178.8930231430595
 30
-147.0
 11
-507.9185900248003
 21
183.9441608511331
 31
-144.0
  0
LINE
  5
924
330
1F
100
AcDbEntity
  8
HD
100
AcDbLine
 10
-946.2139892578123
 20
-630.2377319335938
 30
-100.0000076293945
 11
-1019.076293945312
 21
-756.7059936523437
 31
-100.0000076293945
  0
LINE
  5
925
330
1F
100
AcDbEntity
  8
HD
100
AcDbLine
 10
-884.3278001932477
 20
-522.955452727005
 30
-113.0
 11
-946.2139892578123
 21
-630.2377319335938
 31
-100.0000076293945
  0
LINE
  5
926
330
1F
100
AcDbEntity
  8
HD
100
AcDbLine
 10
-881.3702392578125
 20
-517.8283081054686
 30
-113.0000076293945
 11
-884.3278001932477
 21
-522.955452727005
 31
-113.0
  0
LINE
  5
927
330
1F
100
AcDbEntity
  8
HD
100
AcDbLine
 10
-771.0201416015625
 20
-326.5321655273437
 30
-113.0000076293945
 11
-881.3702392578125
 21
-517.8283081054686
 31
-113.0000076293945
  0
LINE
  5
928
330
1F
100
AcDbEntity
  8
HD
100
AcDbLine
 10
-638.9979056346127
 20
-97.66736424092917
 30
-134.0
 11
-768.8360099194961
 21
-322.7459028592535
 31
-113.0
  0
LINE
  5
929
330
1F
100
AcDbEntity
  8
HD
100
AcDbLine
 10
-620.983967277104
 20
-66.43657731878365
 30
-137.0
 11
-632.6721984758055
 21
-86.70065256778839
 31
-134.0
  0
LINE
  5
92A
330
1F
100
AcDbEntity
  8
HD
100
AcDbLine
 10
-600.8740844726562
 20
-31.59552001953125
 30
-137.0
 11
-616.97705078125
 21
-59.49249267578125
 31
-137.0
  0
LINE
  5
92B
330
1F
100
AcDbEntity
  8
HD
100
AcDbLine
 10
-582.653076171875
 20
-19.9915771484375
 30
-137.0
 11
-600.8740844726562
 21
-31.59552001953125
 31
-137.0
  0
LINE
  5
930
330
1F
100
AcDbEntity
  8
HD
100
AcDbLine
 10
-962.7700195312497
 20
-598.0485229492187
 30
-100.0
 11
-1044.971069335937
 21
-741.2059936523437
 31
-100.0
  0
LINE
  5
931
330
1F
100
AcDbEntity
  8
HD
100
AcDbLine
 10
-909.8725585937497
 20
-506.4443969726558
 30
-109.0
 11
-962.7700195312497
 21
-598.0485229492187
 31
-100.0
  0
LINE
  5
932
330
1F
100
AcDbEntity
  8
HD
100
AcDbLine
 10
-907.8190307617182
 20
-502.8883666992187
 30
-109.0000076293945
 11
-909.8725585937497
 21
-506.4443969726558
 31
-109.0
  0
LINE
  5
933
330
1F
100
AcDbEntity
  8
HD
100
AcDbLine
 10
-902.3294677734376
 20
-505.9912719726558
 30
-109.0000076293945
 11
-907.8190307617182
 21
-502.8883666992187
 31
-109.0000076293945
  0
LINE
  5
934
330
1F
100
AcDbEntity
  8
HD
100
AcDbLine
 10
-886.9768714103537
 20
-514.5727178678347
 30
-113.0000076293945
 11
-902.3294677734376
 21
-505.9912719726558
 31
-109.0000076293945
  0
LINE
  5
935
330
1F
100
AcDbEntity
  8
HD
100
AcDbLine
 10
-905.4133300781243
 20
-498.7223510742187
 30
-109.0
 11
-907.8190307617182
 21
-502.8883666992187
 31
-109.0000076293945
  0
LINE
  5
936
330
1F
100
AcDbEntity
  8
HD
100
AcDbLine
 10
-855.2411499023437
 20
-411.8375854492184
 30
-118.0000076293945
 11
-905.4133300781243
 21
-498.7223510742187
 31
-109.0
  0
LINE
  5
937
330
1F
100
AcDbEntity
  8
HD
100
AcDbLine
 10
-797.2297973632812
 20
-311.3773803710937
 30
-118.0000076293945
 11
-855.2411499023437
 21
-411.8375854492184
 31
-118.0000076293945
  0
LINE
  5
938
330
1F
100
AcDbEntity
  8
HD
100
AcDbLine
 10
-790.9353186985837
 20
-315.01684800579
 30
-118.0000076293945
 11
-797.2297973632812
 21
-311.3773803710937
 31
-118.0000076293945
  0
LINE
  5
939
330
1F
100
AcDbEntity
  8
HD
100
AcDbLine
 10
-776.9000244140625
 20
-323.1323852539059
 30
-113.0000076293945
 11
-790.9353186985837
 21
-315.01684800579
 31
-118.0000076293945
  0
LINE
  5
93A
330
1F
100
AcDbEntity
  8
HD
100
AcDbLine
 10
-783.8732299804687
 20
-288.2476196289058
 30
-118.0000076293945
 11
-797.2297973632812
 21
-311.3773803710937
 31
-118.0000076293945
  0
LINE
  5
93B
330
1F
100
AcDbEntity
  8
HD
100
AcDbLine
 10
-678.5514607144305
 20
-105.8585569401675
 30
-134.0
 11
-783.8732299804687
 21
-288.2476196289058
 31
-118.0000076293945
  0
LINE
  5
93D
330
1F
100
AcDbEntity
  8
HD
100
AcDbLine
 10
-636.0059211952185
 20
-92.48013140572885
 30
-134.0
 11
-675.0589599609375
 21
-99.81050595679477
 31
-134.0
  0
LINE
  5
93E
330
1F
100
AcDbEntity
  8
HD
100
AcDbLine
 10
-646.2208241970894
 20
-49.87078434306582
 30
-138.0
 11
-672.2204428394519
 21
-94.89497480028715
 31
-134.0
  0
LINE
  5
93F
330
1F
100
AcDbEntity
  8
HD
100
AcDbLine
 10
-638.5200235084697
 20
-47.70420788437275
 30
-138.0
 11
-643.4210815429687
 21
-45.02239990234374
 31
-138.0
  0
LINE
  5
940
330
1F
100
AcDbEntity
  8
HD
100
AcDbLine
 10
-623.0590209960937
 20
-56.1644897460933
 30
-137.0
 11
-638.5200235084697
 21
-47.70420788437275
 31
-138.0
  0
LINE
  5
941
330
1F
100
AcDbEntity
  8
HD
100
AcDbLine
 10
-594.2455913898673
 20
40.13639812480954
 30
-144.0
 11
-640.2605259658701
 21
-39.54918669059028
 31
-138.0
  0
LINE
  5
942
330
1F
100
AcDbEntity
  8
HD
100
AcDbLine
 10
-595.7626342773437
 20
43.857421875
 30
-144.0
 11
-592.9889526367187
 21
42.31256103515625
 31
-144.0
  0
LINE
  5
943
330
1F
100
AcDbEntity
  8
HD
100
AcDbLine
 10
-624.5435180664062
 20
59.88677978515625
 30
-140.0
 11
-595.7626342773437
 21
43.857421875
 31
-144.0
  0
LINE
  5
944
330
1F
100
AcDbEntity
  8
HD
100
AcDbLine
 10
-628.0739746093749
 20
61.8531494140625
 30
-140.0
 11
-624.5435180664062
 21
59.88677978515625
 31
-140.0
  0
LINE
  5
947
330
1F
100
AcDbEntity
  8
HD
100
AcDbLine
 10
-582.8907470703119
 20
22.56732177734375
 30
-125.0
 11
-462.868385030115
 21
-14.42980856831901
 31
-146.0
  0
LINE
  5
948
330
1F
100
AcDbEntity
  8
HD
100
AcDbLine
 10
-592.5076904296875
 20
29.58905029296875
 30
-125.0
 11
-582.8907470703119
 21
22.56732177734375
 31
-125.0
  0
LINE
  5
949
330
1F
100
AcDbEntity
  8
HD
100
AcDbLine
 10
-599.388916015625
 20
39.16741943359375
 30
-125.0
 11
-592.5076904296875
 21
29.58905029296875
 31
-125.0
  0
LINE
  5
94A
330
1F
100
AcDbEntity
  8
HD
100
AcDbLine
 10
-602.8049926757812
 20
53.10308837890625
 30
-125.0
 11
-599.388916015625
 21
39.16741943359375
 31
-125.0
  0
LINE
  5
94B
330
1F
100
AcDbEntity
  8
HD
100
AcDbLine
 10
-600.4104614257812
 20
68.18377685546875
 30
-125.0
 11
-602.8049926757812
 21
53.10308837890625
 31
-125.0
  0
LINE
  5
94C
330
1F
100
AcDbEntity
  8
HD
100
AcDbLine
 10
-593.2635498046875
 20
79.4151611328125
 30
-125.0
 11
-600.4104614257812
 21
68.18377685546875
 31
-125.0
  0
LINE
  5
94D
330
1F
100
AcDbEntity
  8
HD
100
AcDbLine
 10
-584.1400756835937
 20
86.37396240234375
 30
-125.0
 11
-593.2635498046875
 21
79.4151611328125
 31
-125.0
  0
LINE
  5
94E
330
1F
100
AcDbEntity
  8
HD
100
AcDbLine
 10
-572.6356201171872
 20
89.49084472656251
 30
-125.0
 11
-584.1400756835937
 21
86.37396240234375
 31
-125.0
  0
LINE
  5
94F
330
1F
100
AcDbEntity
  8
HD
100
AcDbLine
 10
-561.3431396484375
 20
89.26477050781249
 30
-125.0
 11
-572.6356201171872
 21
89.49084472656251
 31
-125.0
  0
LINE
  5
950
330
1F
100
AcDbEntity
  8
HD
100
AcDbLine
 10
-462.6643066406248
 20
59.00067138671875
 30
-146.9999847412109
 11
-553.4930419921875
 21
30.9951171875
 31
-147.0
  0
LINE
  5
951
330
1F
100
AcDbEntity
  8
HD
100
AcDbLine
 10
-494.7506713867187
 20
68.83612060546875
 30
-147.0
 11
-462.6643066406248
 21
59.00067138671875
 31
-146.9999847412109
  0
LINE
  5
952
330
1F
100
AcDbEntity
  8
HD
100
AcDbLine
 10
-435.7882690429685
 20
50.7149658203125
 30
-146.0
 11
-462.6643066406248
 21
59.00067138671875
 31
-146.9999847412109
  0
LINE
  5
953
330
1F
100
AcDbEntity
  8
HD
100
AcDbLine
 10
-424.6539306640625
 20
45.82269287109375
 30
-146.0
 11
-435.7882690429685
 21
50.7149658203125
 31
-146.0
  0
LINE
  5
954
330
1F
100
AcDbEntity
  8
HD
100
AcDbLine
 10
-411.6887817382812
 20
32.13690185546875
 30
-146.0
 11
-424.6539306640625
 21
45.82269287109375
 31
-146.0
  0
LINE
  5
955
330
1F
100
AcDbEntity
  8
HD
100
AcDbLine
 10
-409.0949707031247
 20
17.14990234375
 30
-146.0
 11
-411.6887817382812
 21
32.13690185546875
 31
-146.0
  0
LINE
  5
956
330
1F
100
AcDbEntity
  8
HD
100
AcDbLine
 10
-413.8522338867185
 20
-1.00042724609375
 30
-146.0
 11
-409.0949707031247
 21
17.14990234375
 31
-146.0
  0
LINE
  5
957
330
1F
100
AcDbEntity
  8
HD
100
AcDbLine
 10
-426.3683471679683
 20
-13.578125
 30
-146.0
 11
-413.8522338867185
 21
-1.00042724609375
 31
-146.0
  0
LINE
  5
958
330
1F
100
AcDbEntity
  8
HD
100
AcDbLine
 10
-443.361572265625
 20
-17.44598388671875
 30
-146.0
 11
-426.3683471679683
 21
-13.578125
 31
-146.0
  0
LINE
  5
959
330
1F
100
AcDbEntity
  8
HD
100
AcDbLine
 10
-457.874374512809
 20
-15.9692221818791
 30
-146.0
 11
-443.361572265625
 21
-17.44598388671875
 31
-146.0
  0
LINE
  5
95A
330
1F
100
AcDbEntity
  8
HD
100
AcDbLine
 10
-462.868385030115
 20
-14.42980856831901
 30
-146.0
 11
-457.874374512809
 21
-15.9692221818791
 31
-146.0
  0
LINE
  5
96B
330
1F
100
AcDbEntity
  8
HD
100
AcDbLine
 10
-590.9431635887052
 20
41.12788714910244
 30
-144.0
 11
-592.9889526367186
 21
42.31256103515614
 31
-144.0
  0
LINE
  5
96C
330
1F
100
AcDbEntity
  8
HD
100
AcDbLine
 10
-560.9870463186547
 20
23.78092271410637
 30
-147.0
 11
-558.4849853515625
 21
22.33203125000001
 31
-147.0
  0
LINE
  5
96F
330
1F
100
AcDbEntity
  8
HD
100
AcDbLine
 10
-524.8665771484374
 20
160.8102416992187
 30
-144.0
 11
-522.3349571350532
 21
160.0346123661466
 31
-144.0
  0
LINE
  5
9CE
330
1F
100
AcDbEntity
  8
HD
100
AcDbLine
 10
-632.6721984758055
 20
-86.70065256778839
 30
-134.0
 11
-636.0059211952185
 21
-92.48013140572885
 31
-134.0
  0
LINE
  5
9CF
330
1F
100
AcDbEntity
  8
HD
100
AcDbLine
 10
-636.0059211952185
 20
-92.48013140572885
 30
-134.0
 11
-638.9979056346127
 21
-97.66736424092917
 31
-134.0
  0
TEXT
  5
A18
330
1F
100
AcDbEntity
  8
HD
 62
     0
100
AcDbText
 10
-257.8868331800645
 20
79.0121592395911
 30
-71.0
 40
3.0
  1
42316
100
AcDbText
  0
TEXT
  5
A1F
330
1F
100
AcDbEntity
  8
HD
 62
     0
100
AcDbText
 10
-260.1162812263682
 20
79.69563047523344
 30
-71.0
 40
3.0
  1
42317
100
AcDbText
  0
TEXT
  5
A9A
330
1F
100
AcDbEntity
  8
HD
 62
     0
100
AcDbText
 10
-494.4080667088774
 20
151.4816937822169
 30
-135.0
 40
3.0
  1
42329
100
AcDbText
  0
TEXT
  5
AA1
330
1F
100
AcDbEntity
  8
HD
 62
     0
100
AcDbText
 10
-523.6007671417453
 20
160.4224270326826
 30
-143.9212647388206
 40
3.0
  1
42330
100
AcDbText
  0
TEXT
  5
AC4
330
1F
100
AcDbEntity
  8
HD
 62
     0
100
AcDbText
 10
-311.3756336885681
 20
54.12826216359575
 30
-67.76789582724592
 40
3.0
  1
42335
100
AcDbText
  0
TEXT
  5
ACB
330
1F
100
AcDbEntity
  8
HD
 62
     0
100
AcDbText
 10
-313.3851270358606
 20
54.7403699377579
 30
-68.0
 40
3.0
  1
42336
100
AcDbText
  0
TEXT
  5
B2D
330
1F
100
AcDbEntity
  8
HD
 62
     0
100
AcDbText
 10
-259.1295644825559
 20
77.18939840145958
 30
-71.0
 40
3.0
  1
42350
100
AcDbText
  0
TEXT
  5
B4F
330
1F
100
AcDbEntity
  8
HD
 62
     0
100
AcDbText
 10
-460.3713797714621
 20
-15.19951537509906
 30
-146.0
 40
3.0
  1
42353
100
AcDbText
  0
TEXT
  5
B5D
330
1F
100
AcDbEntity
  8
HD
 62
     0
100
AcDbText
 10
-559.7360158351087
 20
23.05647698205319
 30
-147.0
 40
3.0
  1
42354
100
AcDbText
  0
TEXT
  5
B64
330
1F
100
AcDbEntity
  8
HD
 62
     0
100
AcDbText
 10
-591.9660581127117
 20
41.7202240921293
 30
-144.0
 40
3.0
  1
42355
100
AcDbText
  0
TEXT
  5
B6B
330
1F
100
AcDbEntity
  8
HD
 62
     0
100
AcDbText
 10
-491.6773969525717
 20
150.6450690094207
 30
-135.0
 40
3.0
  1
42356
100
AcDbText
  0
LINE
  5
C16
330
1F
100
AcDbEntity
  8
HD
100
AcDbLine
 10
-259.1470684182368
 20
74.9911625255754
 30
-71.0
 11
-259.112060546875
 21
79.38763427734375
 31
-71.0
  0
LINE
  5
C17
330
1F
100
AcDbEntity
  8
HD
100
AcDbLine
 10
-163.4068145692828
 20
9.003362110749764
 30
-26.0
 11
-158.6478271484375
 21
7.55230712890625
 31
-25.0
  0
TEXT
  5
C1E
330
1F
100
AcDbEntity
  8
HD
 62
     0
100
AcDbText
 10
-161.0273208588601
 20
8.277834619828006
 30
-21.0
 40
3.0
  1
42800
100
AcDbText
  0
LINE
  5
CB4
330
1F
100
AcDbEntity
  8
HD
100
AcDbLine
 10
181.0698382247818
 20
-202.7668041415149
 30
-14.0
 11
185.87890625
 21
-201.9921264648437
 31
-14.0
  0
LINE
  5
CCE
330
1F
100
AcDbEntity
  8
HD
100
AcDbLine
 10
-372.9968785743017
 20
31.48161568124566
 30
-125.0
 11
-369.5849914550779
 21
30.4348754882812
 31
-125.0
  0
TEXT
  5
CD5
330
1F
100
AcDbEntity
  8
HD
 62
     0
100
AcDbText
 10
-371.2909350146898
 20
30.95824558476343
 30
-125.0
 40
3.0
  1
42840
100
AcDbText
  0
LINE
  5
D08
330
1F
100
AcDbEntity
  8
HD
100
AcDbLine
 10
-468.2885131835937
 20
131.7930297851562
 30
-147.0
 11
-472.0929857512039
 21
133.9218247246769
 31
-147.0
  0
TEXT
  5
D09
330
1F
100
AcDbEntity
  8
HD
 62
     0
100
AcDbText
 10
-470.1907494673988
 20
132.8574272549165
 30
-147.0
 40
3.0
  1
42701
100
AcDbText
  0
LINE
  5
D0C
330
1F
100
AcDbEntity
  8
HD
100
AcDbLine
 10
-511.350830078125
 20
184.4264526367186
 30
-144.0
 11
-507.9185900248003
 21
183.9441608511331
 31
-144.0
  0
LINE
  5
D0D
330
1F
100
AcDbEntity
  8
HD
100
AcDbLine
 10
-471.9720579156915
 20
178.8930231430595
 30
-147.0
 11
-468.5457153320312
 21
178.4115600585936
 31
-147.0
  0
TEXT
  5
D0E
330
1F
100
AcDbEntity
  8
HD
 62
     0
100
AcDbText
 10
-507.9185900248003
 20
183.9441608511331
 30
-144.0
 40
3.0
  1
42702
100
AcDbText
  0
TEXT
  5
D0F
330
1F
100
AcDbEntity
  8
HD
 62
     0
100
AcDbText
 10
-471.9720579156915
 20
178.8930231430595
 30
-147.0
 40
3.0
  1
42703
100
AcDbText
  0
LINE
  5
D10
330
1F
100
AcDbEntity
  8
HD
100
AcDbLine
 10
-616.97705078125
 20
-59.49249267578125
 30
-137.0
 11
-620.983967277104
 21
-66.43657731878365
 31
-137.0
  0
TEXT
  5
D12
330
1F
100
AcDbEntity
  8
HD
 62
     0
100
AcDbText
 10
-618.980509029177
 20
-62.96453499728245
 30
-137.0
 40
3.0
  1
42705
100
AcDbText
  0
LINE
  5
D13
330
1F
100
AcDbEntity
  8
HD
100
AcDbLine
 10
-640.2605259658701
 20
-39.54918669059028
 30
-138.0
 11
-643.4210815429687
 21
-45.02239990234374
 31
-138.0
  0
LINE
  5
D14
330
1F
100
AcDbEntity
  8
HD
100
AcDbLine
 10
-643.4210815429687
 20
-45.02239990234374
 30
-138.0
 11
-646.2208241970894
 21
-49.87078434306582
 31
-138.0
  0
TEXT
  5
D15
330
1F
100
AcDbEntity
  8
HD
 62
     0
100
AcDbText
 10
-641.8408037544192
 20
-42.285793296467
 30
-138.1997956712106
 40
3.0
  1
42706
100
AcDbText
  0
TEXT
  5
D16
330
1F
100
AcDbEntity
  8
HD
 62
     0
100
AcDbText
 10
-644.820952870029
 20
-47.44659212270478
 30
-137.823013249047
 40
3.0
  1
42707
100
AcDbText
  0
LINE
  5
DEF
330
1F
100
AcDbEntity
  8
HD
100
AcDbLine
 10
75.05373314514098
 20
-219.5348209964027
 30
-30.0
 11
77.87998364908421
 21
-219.3893339912817
 31
-30.0
  0
TEXT
  5
DF0
330
1F
100
AcDbEntity
  8
HD
 62
     0
100
AcDbText
 10
76.46685839711263
 20
-219.4620774938422
 30
-30.0
 40
3.0
  1
42712
100
AcDbText
  0
LINE
  5
E2C
330
1F
100
AcDbEntity
  8
HD
100
AcDbLine
 10
-468.2885131835937
 20
131.7930297851562
 30
-147.0
 11
-471.0796462456035
 21
127.1190768220231
 31
-147.0
  0
LINE
  5
E2D
330
1F
100
AcDbEntity
  8
HD
100
AcDbLine
 10
-471.0796462456035
 20
127.1190768220231
 30
-147.0
 11
-477.7001542309328
 21
116.012873751664
 31
-147.0
  0
TEXT
  5
E2E
330
1F
100
AcDbEntity
  8
HD
 62
     0
100
AcDbText
 10
-469.6840797145986
 20
129.4560533035896
 30
-147.0
 40
3.0
  1
42720
100
AcDbText
  0
TEXT
  5
E31
330
1F
100
AcDbEntity
  8
HD
 62
     0
100
AcDbText
 10
-474.3899002382682
 20
121.5659752868436
 30
-147.0
 40
3.0
  1
42721
100
AcDbText
  0
LINE
  5
E32
330
1F
100
AcDbEntity
  8
HD
100
AcDbLine
 10
-498.2266970230013
 20
81.59676645881686
 30
-147.0
 11
-502.541748046875
 21
74.36187744140625
 31
-147.0
  0
TEXT
  5
E33
330
1F
100
AcDbEntity
  8
HD
 62
     0
100
AcDbText
 10
-500.3842225349382
 20
77.97932195011155
 30
-147.0
 40
3.0
  1
42722
100
AcDbText
  0
LINE
  5
E6E
330
1F
100
AcDbEntity
  8
HD
100
AcDbLine
 10
-184.7828063964844
 20
-201.7670288085938
 30
-78.0
 11
-179.8769493752504
 21
-202.102619925435
 31
-78.0
  0
TEXT
  5
E6F
330
1F
100
AcDbEntity
  8
HD
 62
     0
100
AcDbText
 10
-182.3298778858674
 20
-201.9348243670144
 30
-78.0
 40
3.0
  1
42740
100
AcDbText
  0
LINE
  5
E86
330
1F
100
AcDbEntity
  8
HD
100
AcDbLine
 10
-558.4849853515625
 20
22.33203125000001
 30
-147.0
 11
-560.0734355192662
 21
19.55030788764678
 31
-147.0
  0
TEXT
  5
E87
330
1F
100
AcDbEntity
  8
HD
 62
     0
100
AcDbText
 10
-559.2792104354145
 20
20.9411695688234
 30
-147.0
 40
3.0
  1
42741
100
AcDbText
  0
LINE
  5
E88
330
1F
100
AcDbEntity
  8
HD
100
AcDbLine
 10
-592.9889526367186
 20
42.31256103515614
 30
-144.0
 11
-594.2455913898673
 21
40.13639812480954
 31
-144.0
  0
TEXT
  5
E89
330
1F
100
AcDbEntity
  8
HD
 62
     0
100
AcDbText
 10
-593.6172720132928
 20
41.22447957998285
 30
-143.9255610713062
 40
3.0
  1
42742
100
AcDbText
  0
LINE
  5
E9F
330
1F
100
AcDbEntity
  8
HD
100
AcDbLine
 10
-672.2204428394519
 20
-94.89497480028715
 30
-134.0
 11
-675.0589599609375
 21
-99.81050595679477
 31
-134.0
  0
LINE
  5
EA0
330
1F
100
AcDbEntity
  8
HD
100
AcDbLine
 10
-675.0589599609375
 20
-99.81050595679477
 30
-134.0
 11
-678.5514607144305
 21
-105.8585569401675
 31
-134.0
  0
TEXT
  5
EA1
330
1F
100
AcDbEntity
  8
HD
 62
     0
100
AcDbText
 10
-673.6397014001948
 20
-97.35274037854097
 30
-134.0
 40
3.0
  1
42743
100
AcDbText
  0
TEXT
  5
EA2
330
1F
100
AcDbEntity
  8
HD
 62
     0
100
AcDbText
 10
-676.805210337684
 20
-102.8345314484811
 30
-134.0
 40
3.0
  1
42744
100
AcDbText
  0
LINE
  5
EA3
330
1F
100
AcDbEntity
  8
HD
100
AcDbLine
 10
-768.8360099194961
 20
-322.7459028592535
 30
-113.0
 11
-771.0201416015625
 21
-326.5321655273437
 31
-113.0000076293945
  0
TEXT
  5
EA4
330
1F
100
AcDbEntity
  8
HD
 62
     0
100
AcDbText
 10
-769.9280757605292
 20
-324.6390341932986
 30
-113.0000038146972
 40
3.0
  1
42745
100
AcDbText
  0
LINE
  5
EF2
330
1F
100
AcDbEntity
  8
HD
100
AcDbLine
 10
-187.7981262207031
 20
-17.65826416015625
 30
-77.0
 11
-183.7401935229985
 21
-21.30545632143696
 31
-77.0
  0
TEXT
  5
EF3
330
1F
100
AcDbEntity
  8
HD
 62
     0
100
AcDbText
 10
-185.7691598718508
 20
-19.4818602407966
 30
-77.0
 40
3.0
  1
42746
100
AcDbText
  0
POINT
  5
F7A
330
1F
100
AcDbEntity
  8
HD
 62
     0
100
AcDbPoint
 10
-684.1511701844965
 20
-115.5557521989631
 30
-133.1493182328493
  0
POINT
  5
F7F
330
1F
100
AcDbEntity
  8
HD
 62
     0
100
AcDbPoint
 10
-856.473438075977
 20
-413.971578207226
 30
-117.7789567815849
  0
TEXT
  5
F99
330
1F
100
AcDbEntity
  8
HD
 62
     0
100
AcDbText
 10
-684.1511701844965
 20
-115.5557521989631
 30
-133.1493182328493
 40
3.0
  1
12345
100
AcDbText
  0
TEXT
  5
F9A
330
1F
100
AcDbEntity
  8
HD
 62
     0
100
AcDbText
 10
-856.473438075977
 20
-413.971578207226
 30
-117.7789567815849
 40
3.0
  1
54321
100
AcDbText
  0
POINT
  5
FCD
330
1F
100
AcDbEntity
  8
HD
 62
     0
100
AcDbPoint
 10
-1123.060800198904
 20
-815.9982236788476
 30
-106.0000076293945
  0
TEXT
  5
FCE
330
1F
100
AcDbEntity
  8
HD
 62
     0
100
AcDbText
 10
-1123.060800198904
 20
-815.9982236788476
 30
-106.0000076293945
 40
3.0
  1
10115
100
AcDbText
  0
POINT
  5
FEC
330
1F
100
AcDbEntity
  8
HD
 62
     0
100
AcDbPoint
 10
-694.9802029273591
 20
-194.7144809756345
 30
-124.9454296978322
  0
TEXT
  5
FED
330
1F
100
AcDbEntity
  8
HD
 62
     0
100
AcDbText
 10
-694.9802029273591
 20
-194.7144809756345
 30
-124.9454296978322
 40
3.0
  1
10106
100
AcDbText
  0
POINT
  5
FEE
330
1F
100
AcDbEntity
  8
HD
 62
     0
100
AcDbPoint
 10
-744.0247692539231
 20
-158.4076389999819
 30
-140.0
  0
TEXT
  5
FEF
330
1F
100
AcDbEntity
  8
HD
 62
     0
100
AcDbText
 10
-744.0247692539231
 20
-158.4076389999819
 30
-140.0
 40
3.0
  1
10107
100
AcDbText
  0
POINT
  5
FF0
330
1F
100
AcDbEntity
  8
HD
 62
     0
100
AcDbPoint
 10
-597.2173325552737
 20
115.2701164361161
 30
-140.6262019415343
  0
TEXT
  5
FF1
330
1F
100
AcDbEntity
  8
HD
 62
     0
100
AcDbText
 10
-597.2173325552737
 20
115.2701164361161
 30
-140.6262019415343
 40
3.0
  1
10108
100
AcDbText
  0
POINT
  5
FF2
330
1F
100
AcDbEntity
  8
HD
 62
     0
100
AcDbPoint
 10
-549.8837493558011
 20
117.2929879624419
 30
-144.0000000000001
  0
TEXT
  5
FF3
330
1F
100
AcDbEntity
  8
HD
 62
     0
100
AcDbText
 10
-549.8837493558011
 20
117.2929879624419
 30
-144.0000000000001
 40
3.0
  1
10109
100
AcDbText
  0
POINT
  5
FF4
330
1F
100
AcDbEntity
  8
HD
 62
     0
100
AcDbPoint
 10
-292.1524334737394
 20
-14.21866838332639
 30
-114.2865315429314
  0
TEXT
  5
FF5
330
1F
100
AcDbEntity
  8
HD
 62
     0
100
AcDbText
 10
-292.1524334737394
 20
-14.21866838332639
 30
-114.2865315429314
 40
3.0
  1
10110
100
AcDbText
  0
POINT
  5
FF6
330
1F
100
AcDbEntity
  8
HD
 62
     0
100
AcDbPoint
 10
-144.2235187574739
 20
-56.82239616106637
 30
-75.97191888185436
  0
TEXT
  5
FF7
330
1F
100
AcDbEntity
  8
HD
 62
     0
100
AcDbText
 10
-144.2235187574739
 20
-56.82239616106637
 30
-75.97191888185436
 40
3.0
  1
10111
100
AcDbText
  0
POINT
  5
FF8
330
1F
100
AcDbEntity
  8
HD
 62
     0
100
AcDbPoint
 10
-97.56945349957186
 20
29.89366416384966
 30
-26.43005047546477
  0
TEXT
  5
FF9
330
1F
100
AcDbEntity
  8
HD
 62
     0
100
AcDbText
 10
-97.56945349957186
 20
29.89366416384966
 30
-26.43005047546477
 40
3.0
  1
10112
100
AcDbText
  0
POINT
  5
FFA
330
1F
100
AcDbEntity
  8
HD
 62
     0
100
AcDbPoint
 10
99.14588035396782
 20
-130.2388898740143
 30
-78.00000000000003
  0
TEXT
  5
FFB
330
1F
100
AcDbEntity
  8
HD
 62
     0
100
AcDbText
 10
99.14588035396782
 20
-130.2388898740143
 30
-78.00000000000003
 40
3.0
  1
10113
100
AcDbText
  0
POINT
  5
FFC
330
1F
100
AcDbEntity
  8
HD
 62
     0
100
AcDbPoint
 10
156.1518273521793
 20
-189.2319408016623
 30
-70.99999999999998
  0
TEXT
  5
FFD
330
1F
100
AcDbEntity
  8
HD
 62
     0
100
AcDbText
 10
156.1518273521793
 20
-189.2319408016623
 30
-70.99999999999998
 40
3.0
  1
10114
100
AcDbText
  0
POINT
  5
FFE
330
1F
100
AcDbEntity
  8
HD
 62
     0
100
AcDbPoint
 10
167.3462326567709
 20
-204.9774966959205
 30
-16.12789997612697
  0
TEXT
  5
FFF
330
1F
100
AcDbEntity
  8
HD
 62
     0
100
AcDbText
 10
167.3462326567709
 20
-204.9774966959205
 30
-16.12789997612697
 40
3.0
  1
10115
100
AcDbText
  0
POINT
  5
1000
330
1F
100
AcDbEntity
  8
HD
 62
     0
100
AcDbPoint
 10
-101.5344841092596
 20
-62.55849650341737
 30
-71.00000000000003
  0
TEXT
  5
1001
330
1F
100
AcDbEntity
  8
HD
 62
     0
100
AcDbText
 10
-101.5344841092596
 20
-62.55849650341737
 30
-71.00000000000003
 40
3.0
  1
10116
100
AcDbText
  0
ENDSEC
  0
SECTION
  2
OBJECTS
  0
DICTIONARY
  5
C
330
0
100
AcDbDictionary
281
     1
  3
ACAD_BACKGROUND
350
9D7
  3
ACAD_CIP_PREVIOUS_PRODUCT_INFO
350
1FF
  3
ACAD_COLOR
350
6B
  3
ACAD_DETAILVIEWSTYLE
350
1FA
  3
ACAD_GROUP
350
D
  3
ACAD_LAYOUT
350
1A
  3
ACAD_MATERIAL
350
6A
  3
ACAD_MLEADERSTYLE
350
12D
  3
ACAD_MLINESTYLE
350
17
  3
ACAD_PLOTSETTINGS
350
19
  3
ACAD_PLOTSTYLENAME
350
E
  3
ACAD_SCALELIST
350
10C
  3
ACAD_SECTIONVIEWSTYLE
350
1F8
  3
ACAD_TABLESTYLE
350
7E
  3
ACAD_VISUALSTYLE
350
EF
  3
ACDB_RECOMPOSE_DATA
350
1017
  3
AcDbVariableDictionary
350
5E
  0
DICTIONARY
  5
207
330
2
100
AcDbDictionary
280
     1
281
     1
  3
ACAD_LAYERSTATES
360
208
  0
DICTIONARY
  5
13C
330
10
100
AcDbDictionary
280
     1
281
     1
  0
DICTIONARY
  5
201
330
200
100
AcDbDictionary
280
     1
281
     1
  0
DICTIONARY
  5
203
330
202
100
AcDbDictionary
280
     1
281
     1
  0
DICTIONARY
  5
1CE
330
1F
100
AcDbDictionary
280
     1
281
     1
  0
DICTIONARY
  5
9D7
102
{ACAD_REACTORS
330
C
102
}
330
C
100
AcDbDictionary
281
     1
  0
XRECORD
  5
1FF
102
{ACAD_REACTORS
330
C
102
}
330
C
100
AcDbXrecord
280
     1
300
ACD
300
2020
300

  0
DICTIONARY
  5
6B
102
{ACAD_REACTORS
330
C
102
}
330
C
100
AcDbDictionary
281
     1
  0
DICTIONARY
  5
1FA
102
{ACAD_REACTORS
330
C
102
}
330
C
100
AcDbDictionary
281
     1
  3
Metric50
350
1FB
  0
DICTIONARY
  5
D
102
{ACAD_REACTORS
330
C
102
}
330
C
100
AcDbDictionary
281
     1
  0
DICTIONARY
  5
1A
102
{ACAD_REACTORS
330
C
102
}
330
C
100
AcDbDictionary
281
     1
  3
Model
350
22
  3
1
350
D3
  3
2
350
D7
  0
DICTIONARY
  5
6A
102
{ACAD_REACTORS
330
C
102
}
330
C
100
AcDbDictionary
281
     1
  3
ByBlock
350
ED
  3
ByLayer
350
EC
  3
Global
350
EE
  0
DICTIONARY
  5
12D
102
{ACAD_REACTORS
330
C
102
}
330
C
100
AcDbDictionary
281
     1
  3
Annotative
350
13B
  3
Standard
350
12E
  0
DICTIONARY
  5
17
102
{ACAD_REACTORS
330
C
102
}
330
C
100
AcDbDictionary
281
     1
  3
Standard
350
18
  0
DICTIONARY
  5
19
102
{ACAD_REACTORS
330
C
102
}
330
C
100
AcDbDictionary
281
     1
  0
ACDBDICTIONARYWDFLT
  5
E
102
{ACAD_REACTORS
330
C
102
}
330
C
100
AcDbDictionary
281
     1
  3
Normal
350
F
100
AcDbDictionaryWithDefault
340
F
  0
DICTIONARY
  5
10C
102
{ACAD_REACTORS
330
C
102
}
330
C
100
AcDbDictionary
281
     1
  3
A0
350
10D
  3
A1
350
1BE
  3
A2
350
1BF
  3
A3
350
1C0
  3
A4
350
1C1
  3
A5
350
1C2
  3
A6
350
1C3
  3
A7
350
1C4
  3
A8
350
1C5
  3
A9
350
1C6
  3
B0
350
1C7
  3
B1
350
1C8
  3
B2
350
1C9
  3
B3
350
1CA
  3
B4
350
1CB
  3
B5
350
1CC
  3
B6
350
1CD
  0
DICTIONARY
  5
1F8
102
{ACAD_REACTORS
330
C
102
}
330
C
100
AcDbDictionary
281
     1
  3
Metric50
350
1F9
  0
DICTIONARY
  5
7E
102
{ACAD_REACTORS
330
C
102
}
330
C
100
AcDbDictionary
281
     1
  3
Standard
350
7F
  0
DICTIONARY
  5
EF
102
{ACAD_REACTORS
330
C
102
}
330
C
100
AcDbDictionary
281
     1
  3
2dWireframe
350
F5
  3
3D Hidden
350
F7
  3
3dWireframe
350
F6
  3
Basic
350
F4
  3
Brighten
350
FB
  3
ColorChange
350
FF
  3
Conceptual
350
F8
  3
Dim
350
FA
  3
EdgeColorOff
350
1E6
  3
Facepattern
350
FE
  3
Flat
350
F0
  3
FlatWithEdges
350
F1
  3
Gouraud
350
F2
  3
GouraudWithEdges
350
F3
  3
Hidden
350
1F2
  3
JitterOff
350
1E4
  3
Linepattern
350
FD
  3
OverhangOff
350
1E5
  3
Realistic
350
F9
  3
Shaded
350
1F7
  3
Shaded with edges
350
1F6
  3
Shades of Gray
350
1F3
  3
Sketchy
350
1F4
  3
Thicken
350
FC
  3
Wireframe
350
1F1
  3
X-Ray
350
1F5
  0
XRECORD
  5
1017
102
{ACAD_REACTORS
330
C
102
}
330
C
100
AcDbXrecord
280
     1
 90
        1
330
7F
  0
DICTIONARY
  5
5E
102
{ACAD_REACTORS
330
C
102
}
330
C
100
AcDbDictionary
281
     1
  3
CANNOSCALE
350
146
  3
CMLEADERSTYLE
350
145
  3
CTABLESTYLE
350
84
  3
CVIEWDETAILSTYLE
350
6AB
  3
CVIEWSECTIONSTYLE
350
6AC
  3
DIMASSOC
350
5F
  3
HIDETEXT
350
63
  3
LAYEREVAL
350
1AE
  3
LAYERNOTIFY
350
1AF
  0
DICTIONARY
  5
208
102
{ACAD_REACTORS
330
207
102
}
330
207
100
AcDbDictionary
281
     1
  0
ACDBDETAILVIEWSTYLE
  5
1FB
102
{ACAD_REACTORS
330
1FA
102
}
330
1FA
100
AcDbModelDocViewStyle
 70
     0
  3
Metric50
290
     0
300
Metric50
 90
        0
100
AcDbDetailViewStyle
 70
     0
 71
     0
 90
        3
 71
     1
340
11
 62
   256
 40
5.0
340
0
 62
   256
 40
5.0
300

 40
0.0
280
     1
 71
     2
340
16
 90
       25
 62
   256
 71
     3
340
11
 62
   256
 40
5.0
 90
        0
 40
15.0
 90
        1
300
%<\AcVar ViewDetailId>% (%<\AcVar ViewScale \f "%sn">%)
 71
     4
340
16
 90
       25
 62
   256
340
16
 90
       25
 62
   256
280
     0
  0
LAYOUT
  5
22
102
{ACAD_REACTORS
330
1A
102
}
330
1A
100
AcDbPlotSettings
  1

  2
none_device
  4
ISO_A4_(210.00_x_297.00_MM)
  6

 40
7.5
 41
20.0
 42
7.5
 43
20.0
 44
210.0
 45
297.0
 46
11.54999923706054
 47
-13.65000009536743
 48
0.0
 49
0.0
140
0.0
141
0.0
142
1.0
143
8.704084754739808
 70
 11952
 72
     1
 73
     0
 74
     0
  7

 75
     0
147
0.1148885871608098
 76
     0
 77
     2
 78
   300
148
0.0
149
0.0
100
AcDbLayout
  1
Model
 70
     1
 71
     0
 10
0.0
 20
0.0
 11
12.0
 21
9.0
 12
0.0
 22
0.0
 32
0.0
 14
0.0
 24
0.0
 34
0.0
 15
0.0
 25
0.0
 35
0.0
146
0.0
 13
0.0
 23
0.0
 33
0.0
 16
1.0
 26
0.0
 36
0.0
 17
0.0
 27
1.0
 37
0.0
 76
     0
330
1F
331
EA
1001
ACAD_PSEXT
1000
None
1000
None
1000
Not applicable
1000
The layout will not be plotted unless a new plotter configuration name is selected.
1070
     0
  0
LAYOUT
  5
D3
102
{ACAD_REACTORS
330
1A
102
}
330
1A
100
AcDbPlotSettings
  1

  2
C:\Documents and Settings\basas\Application Data\Autodesk\AutoCAD 2005\R16.1\enu\plotters\Default Windows System Printer.pc3
  4

  6

 40
0.0
 41
0.0
 42
0.0
 43
0.0
 44
0.0
 45
0.0
 46
0.0
 47
0.0
 48
0.0
 49
0.0
140
0.0
141
0.0
142
1.0
143
1.0
 70
   688
 72
     0
 73
     0
 74
     5
  7

 75
    16
147
1.0
 76
     0
 77
     2
 78
   300
148
0.0
149
0.0
100
AcDbLayout
  1
1
 70
     1
 71
     1
 10
0.0
 20
0.0
 11
12.0
 21
9.0
 12
0.0
 22
0.0
 32
0.0
 14
0.0
 24
0.0
 34
0.0
 15
0.0
 25
0.0
 35
0.0
146
0.0
 13
0.0
 23
0.0
 33
0.0
 16
1.0
 26
0.0
 36
0.0
 17
0.0
 27
1.0
 37
0.0
 76
     0
330
D2
  0
LAYOUT
  5
D7
102
{ACAD_REACTORS
330
1A
102
}
330
1A
100
AcDbPlotSettings
  1

  2
C:\Documents and Settings\basas\Application Data\Autodesk\AutoCAD 2005\R16.1\enu\plotters\Default Windows System Printer.pc3
  4

  6

 40
0.0
 41
0.0
 42
0.0
 43
0.0
 44
0.0
 45
0.0
 46
0.0
 47
0.0
 48
0.0
 49
0.0
140
0.0
141
0.0
142
1.0
143
1.0
 70
   688
 72
     0
 73
     0
 74
     5
  7

 75
    16
147
1.0
 76
     0
 77
     2
 78
   300
148
0.0
149
0.0
100
AcDbLayout
  1
2
 70
     1
 71
     2
 10
0.0
 20
0.0
 11
12.0
 21
9.0
 12
0.0
 22
0.0
 32
0.0
 14
0.0
 24
0.0
 34
0.0
 15
0.0
 25
0.0
 35
0.0
146
0.0
 13
0.0
 23
0.0
 33
0.0
 16
1.0
 26
0.0
 36
0.0
 17
0.0
 27
1.0
 37
0.0
 76
     0
330
D6
  0
MATERIAL
  5
ED
102
{ACAD_REACTORS
330
6A
102
}
330
6A
100
AcDbMaterial
  1
ByBlock
 94
       63
  0
MATERIAL
  5
EC
102
{ACAD_REACTORS
330
6A
102
}
330
6A
100
AcDbMaterial
  1
ByLayer
 94
       63
  0
MATERIAL
  5
EE
102
{ACAD_XDICTIONARY
360
173
102
}
102
{ACAD_REACTORS
330
6A
102
}
330
6A
100
AcDbMaterial
  1
Global
 43
0.0007999999797903
 43
0.0
 43
0.0
 43
0.0
 43
0.0
 43
0.0007999999797903
 43
0.0
 43
0.0
 43
0.0
 43
0.0
 43
1.0
 43
0.0
 43
0.0
 43
0.0
 43
0.0
 43
1.0
 49
0.0007999999797903
 49
0.0
 49
0.0
 49
0.0
 49
0.0
 49
0.0007999999797903
 49
0.0
 49
0.0
 49
0.0
 49
0.0
 49
1.0
 49
0.0
 49
0.0
 49
0.0
 49
0.0
 49
1.0
142
0.0007999999797903
142
0.0
142
0.0
142
0.0
142
0.0
142
0.0007999999797903
142
0.0
142
0.0
142
0.0
142
0.0
142
1.0
142
0.0
142
0.0
142
0.0
142
0.0
142
1.0
144
0.0007999999797903
144
0.0
144
0.0
144
0.0
144
0.0
144
0.0007999999797903
144
0.0
144
0.0
144
0.0
144
0.0
144
1.0
144
0.0
144
0.0
144
0.0
144
0.0
144
1.0
 94
       63
1001
ACAD
1070
    -1
1070
     3
1070
     0
1000

1071
        0
1070
     0
  0
MLEADERSTYLE
  5
13B
102
{ACAD_REACTORS
330
12D
102
}
330
12D
100
AcDbMLeaderStyle
179
     2
170
     2
171
     1
172
     0
 90
        2
 40
0.0
 41
0.0
173
     1
 91
-1056964608
340
14
 92
       -2
290
     1
 42
2.0
291
     1
 43
8.0
  3
Standard
 44
4.0
300

342
11
174
     1
178
     1
175
     1
176
     0
 93
-1056964608
 45
4.0
292
     0
297
     0
 46
4.0
 94
-1056964608
 47
1.0
 49
1.0
140
1.0
293
     1
141
0.0
294
     1
177
     0
142
1.0
295
     0
296
     1
143
3.75
271
     0
272
     9
273
     9
298
     1
  0
MLEADERSTYLE
  5
12E
102
{ACAD_REACTORS
330
12D
102
}
330
12D
100
AcDbMLeaderStyle
179
     2
170
     2
171
     1
172
     0
 90
        2
 40
0.0
 41
0.0
173
     1
 91
-1056964608
340
14
 92
       -2
290
     1
 42
2.0
291
     1
 43
8.0
  3
Standard
 44
4.0
300

342
11
174
     1
178
     1
175
     1
176
     0
 93
-1056964608
 45
4.0
292
     0
297
     0
 46
4.0
 94
-1056964608
 47
1.0
 49
1.0
140
1.0
293
     1
141
0.0
294
     1
177
     0
142
1.0
295
     0
296
     0
143
3.75
271
     0
272
     9
273
     9
298
     1
  0
MLINESTYLE
  5
18
102
{ACAD_REACTORS
330
17
102
}
330
17
100
AcDbMlineStyle
  2
STANDARD
 70
     0
  3

 62
   256
 51
90.0
 52
90.0
 71
     2
 49
0.5
 62
   256
  6
BYLAYER
 49
-0.5
 62
   256
  6
BYLAYER
  0
ACDBPLACEHOLDER
  5
F
102
{ACAD_REACTORS
330
E
102
}
330
E
  0
SCALE
  5
10D
102
{ACAD_REACTORS
330
10C
102
}
330
10C
100
AcDbScale
 70
     0
300
1:1
140
1.0
141
1.0
290
     1
  0
SCALE
  5
1BE
102
{ACAD_REACTORS
330
10C
102
}
330
10C
100
AcDbScale
 70
     0
300
1:2
140
1.0
141
2.0
290
     0
  0
SCALE
  5
1BF
102
{ACAD_REACTORS
330
10C
102
}
330
10C
100
AcDbScale
 70
     0
300
1:4
140
1.0
141
4.0
290
     0
  0
SCALE
  5
1C0
102
{ACAD_REACTORS
330
10C
102
}
330
10C
100
AcDbScale
 70
     0
300
1:5
140
1.0
141
5.0
290
     0
  0
SCALE
  5
1C1
102
{ACAD_REACTORS
330
10C
102
}
330
10C
100
AcDbScale
 70
     0
300
1:8
140
1.0
141
8.0
290
     0
  0
SCALE
  5
1C2
102
{ACAD_REACTORS
330
10C
102
}
330
10C
100
AcDbScale
 70
     0
300
1:10
140
1.0
141
10.0
290
     0
  0
SCALE
  5
1C3
102
{ACAD_REACTORS
330
10C
102
}
330
10C
100
AcDbScale
 70
     0
300
1:16
140
1.0
141
16.0
290
     0
  0
SCALE
  5
1C4
102
{ACAD_REACTORS
330
10C
102
}
330
10C
100
AcDbScale
 70
     0
300
1:20
140
1.0
141
20.0
290
     0
  0
SCALE
  5
1C5
102
{ACAD_REACTORS
330
10C
102
}
330
10C
100
AcDbScale
 70
     0
300
1:30
140
1.0
141
30.0
290
     0
  0
SCALE
  5
1C6
102
{ACAD_REACTORS
330
10C
102
}
330
10C
100
AcDbScale
 70
     0
300
1:40
140
1.0
141
40.0
290
     0
  0
SCALE
  5
1C7
102
{ACAD_REACTORS
330
10C
102
}
330
10C
100
AcDbScale
 70
     0
300
1:50
140
1.0
141
50.0
290
     0
  0
SCALE
  5
1C8
102
{ACAD_REACTORS
330
10C
102
}
330
10C
100
AcDbScale
 70
     0
300
1:100
140
1.0
141
100.0
290
     0
  0
SCALE
  5
1C9
102
{ACAD_REACTORS
330
10C
102
}
330
10C
100
AcDbScale
 70
     0
300
2:1
140
2.0
141
1.0
290
     0
  0
SCALE
  5
1CA
102
{ACAD_REACTORS
330
10C
102
}
330
10C
100
AcDbScale
 70
     0
300
4:1
140
4.0
141
1.0
290
     0
  0
SCALE
  5
1CB
102
{ACAD_REACTORS
330
10C
102
}
330
10C
100
AcDbScale
 70
     0
300
8:1
140
8.0
141
1.0
290
     0
  0
SCALE
  5
1CC
102
{ACAD_REACTORS
330
10C
102
}
330
10C
100
AcDbScale
 70
     0
300
10:1
140
10.0
141
1.0
290
     0
  0
SCALE
  5
1CD
102
{ACAD_REACTORS
330
10C
102
}
330
10C
100
AcDbScale
 70
     0
300
100:1
140
100.0
141
1.0
290
     0
  0
ACDBSECTIONVIEWSTYLE
  5
1F9
102
{ACAD_REACTORS
330
1F8
102
}
330
1F8
100
AcDbModelDocViewStyle
 70
     0
  3
Metric50
290
     0
300
Metric50
 90
        0
100
AcDbSectionViewStyle
 70
     0
 71
     0
 90
      102
 71
     1
340
11
 62
   256
 40
5.0
340
0
340
0
 62
   256
 40
5.0
300
I, O, Q, S, X, Z
 40
10.0
 90
        0
 40
2.5
 90
        0
 71
     2
340
16
 90
       25
 62
   256
340
16
 90
       50
 62
   256
 40
5.0
 40
2.5
 40
5.0
 71
     3
340
11
 62
   256
 40
5.0
 90
        0
 40
15.0
 90
        1
300
%<\AcVar ViewSectionStartId>%-%<\AcVar ViewSectionEndId>% (%<\AcVar ViewScale \f "%sn">%)
 71
     4
 62
   256
 62
   257
300
ANSI31
 40
1.0
 90
        0
290
     0
290
     0
 90
        6
 40
0.0
 40
1.570796326794896
 40
0.2617993877991494
 40
1.308996938995747
 40
-0.2617993877991494
 40
1.832595714594044
  0
TABLESTYLE
  5
7F
102
{ACAD_XDICTIONARY
360
162
102
}
102
{ACAD_REACTORS
330
7E
102
}
330
7E
100
AcDbTableStyle
280
     0
  3
Standard
 70
     0
 71
     0
 40
1.5
 41
1.5
280
     0
281
     0
  7
Standard
140
4.5
170
     2
 62
     0
 63
     7
283
     0
 90
      512
 91
        0
  1

274
    -2
284
     1
 64
     0
275
    -2
285
     1
 65
     0
276
    -2
286
     1
 66
     0
277
    -2
287
     1
 67
     0
278
    -2
288
     1
 68
     0
279
    -2
289
     1
 69
     0
  7
Standard
140
6.0
170
     5
 62
     0
 63
     7
283
     0
 90
      512
 91
        0
  1

274
    -2
284
     1
 64
     0
275
    -2
285
     1
 65
     0
276
    -2
286
     1
 66
     0
277
    -2
287
     1
 67
     0
278
    -2
288
     1
 68
     0
279
    -2
289
     1
 69
     0
  7
Standard
140
4.5
170
     5
 62
     0
 63
     7
283
     0
 90
      512
 91
        0
  1

274
    -2
284
     1
 64
     0
275
    -2
285
     1
 65
     0
276
    -2
286
     1
 66
     0
277
    -2
287
     1
 67
     0
278
    -2
288
     1
 68
     0
279
    -2
289
     1
 69
     0
  0
VISUALSTYLE
  5
F5
102
{ACAD_REACTORS
330
EF
102
}
330
EF
100
AcDbVisualStyle
  2
2dWireframe
 70
     4
177
     3
291
     0
 70
    58
 90
        0
176
     1
 90
        2
176
     1
 90
        1
176
     1
 90
        0
176
     1
 40
0.6
176
     1
 40
30.0
176
     1
 62
     7
420
 16777215
176
     1
 90
        1
176
     1
 90
        4
176
     1
 62
     7
176
     1
 62
   257
176
     1
 90
        1
176
     1
 90
        1
176
     1
 40
1.0
176
     1
 90
        0
176
     1
 62
   257
176
     1
 40
1.0
176
     1
 90
        1
176
     1
 90
        6
176
     1
 90
        2
176
     1
 62
     7
176
     1
 90
        5
176
     1
 90
        0
176
     1
 90
        0
176
     1
290
     0
176
     1
 90
        1
176
     1
 40
0.0
176
     1
 90
        0
176
     1
290
     1
176
     1
290
     1
176
     1
290
     0
176
     1
290
     0
176
     1
290
     0
176
     1
290
     0
176
     1
290
     0
176
     1
290
     0
176
     1
290
     0
176
     1
 90
       50
176
     1
 40
0.0
176
     1
 40
1.0
176
     1
 90
        0
176
     1
 62
    18
176
     1
 90
       50
176
     1
 90
        3
176
     1
 62
     5
420
      255
176
     1
290
     0
176
     1
 90
       50
176
     1
 90
       50
176
     1
 90
       50
176
     1
290
     0
176
     1
 90
       50
176
     1
 62
   256
176
     0
 40
1.0
176
     0
 90
        2
176
     1
  1
strokes_ogs.tif
176
     1
290
     0
176
     1
 40
1.0
176
     1
 40
1.0
176
     1
1001
ACAD
1000
AcDbSavedByObjectVersion
1070
     0
  0
VISUALSTYLE
  5
F7
102
{ACAD_REACTORS
330
EF
102
}
330
EF
100
AcDbVisualStyle
  2
3D Hidden
 70
     6
177
     3
291
     0
 70
    58
 90
        1
176
     1
 90
        2
176
     1
 90
        2
176
     1
 90
        0
176
     1
 40
0.6
176
     1
 40
30.0
176
     1
 62
     7
420
 16777215
176
     1
 90
        2
176
     1
 90
        2
176
     1
 62
     7
176
     1
 62
   257
176
     1
 90
        2
176
     1
 90
        1
176
     1
 40
40.0
176
     1
 90
        0
176
     1
 62
   257
176
     1
 40
1.0
176
     1
 90
        1
176
     1
 90
        6
176
     1
 90
        2
176
     1
 62
     7
176
     1
 90
        3
176
     1
 90
        0
176
     1
 90
        0
176
     1
290
     0
176
     1
 90
        1
176
     1
 40
0.0
176
     1
 90
        0
176
     1
290
     0
176
     1
290
     1
176
     1
290
     1
176
     1
290
     0
176
     1
290
     0
176
     1
290
     0
176
     1
290
     0
176
     1
290
     0
176
     1
290
     0
176
     1
 90
       50
176
     1
 40
0.0
176
     1
 40
1.0
176
     1
 90
        0
176
     1
 62
    18
176
     1
 90
       50
176
     1
 90
        3
176
     1
 62
     5
420
      255
176
     1
290
     0
176
     1
 90
       50
176
     1
 90
       50
176
     1
 90
       50
176
     1
290
     0
176
     1
 90
       50
176
     1
 62
   256
176
     0
 40
1.0
176
     0
 90
        2
176
     1
  1
strokes_ogs.tif
176
     1
290
     0
176
     1
 40
1.0
176
     1
 40
1.0
176
     1
1001
ACAD
1000
AcDbSavedByObjectVersion
1070
     0
  0
VISUALSTYLE
  5
F6
102
{ACAD_REACTORS
330
EF
102
}
330
EF
100
AcDbVisualStyle
  2
3dWireframe
 70
     5
177
     3
291
     0
 70
    58
 90
        0
176
     1
 90
        2
176
     1
 90
        1
176
     1
 90
        0
176
     1
 40
0.6
176
     1
 40
30.0
176
     1
 62
     7
420
 16777215
176
     1
 90
        1
176
     1
 90
        4
176
     1
 62
     7
176
     1
 62
   257
176
     1
 90
        1
176
     1
 90
        1
176
     1
 40
1.0
176
     1
 90
        0
176
     1
 62
   257
176
     1
 40
1.0
176
     1
 90
        1
176
     1
 90
        6
176
     1
 90
        2
176
     1
 62
     7
176
     1
 90
        5
176
     1
 90
        0
176
     1
 90
        0
176
     1
290
     0
176
     1
 90
        1
176
     1
 40
0.0
176
     1
 90
        0
176
     1
290
     0
176
     1
290
     1
176
     1
290
     1
176
     1
290
     0
176
     1
290
     0
176
     1
290
     0
176
     1
290
     0
176
     1
290
     0
176
     1
290
     0
176
     1
 90
       50
176
     1
 40
0.0
176
     1
 40
1.0
176
     1
 90
        0
176
     1
 62
    18
176
     1
 90
       50
176
     1
 90
        3
176
     1
 62
     5
420
      255
176
     1
290
     0
176
     1
 90
       50
176
     1
 90
       50
176
     1
 90
       50
176
     1
290
     0
176
     1
 90
       50
176
     1
 62
   256
176
     0
 40
1.0
176
     0
 90
        2
176
     1
  1
strokes_ogs.tif
176
     1
290
     0
176
     1
 40
1.0
176
     1
 40
1.0
176
     1
1001
ACAD
1000
AcDbSavedByObjectVersion
1070
     0
  0
VISUALSTYLE
  5
F4
102
{ACAD_REACTORS
330
EF
102
}
330
EF
100
AcDbVisualStyle
  2
Basic
 70
     7
177
     3
291
     1
 70
    58
 90
        1
176
     1
 90
        0
176
     1
 90
        1
176
     1
 90
        0
176
     1
 40
0.6
176
     1
 40
30.0
176
     1
 62
     7
420
 16777215
176
     1
 90
        0
176
     1
 90
        4
176
     1
 62
     7
176
     1
 62
   257
176
     1
 90
        1
176
     1
 90
        1
176
     1
 40
1.0
176
     1
 90
        8
176
     1
 62
     7
176
     1
 40
1.0
176
     1
 90
        1
176
     1
 90
        6
176
     1
 90
        2
176
     1
 62
     7
176
     1
 90
        5
176
     1
 90
        0
176
     1
 90
        0
176
     1
290
     0
176
     1
 90
        1
176
     1
 40
0.0
176
     1
 90
        0
176
     1
290
     0
176
     1
290
     1
176
     1
290
     1
176
     1
290
     0
176
     1
290
     0
176
     1
290
     0
176
     1
290
     0
176
     1
290
     0
176
     1
290
     0
176
     1
 90
       50
176
     1
 40
0.0
176
     1
 40
1.0
176
     1
 90
        0
176
     1
 62
    18
176
     1
 90
       50
176
     1
 90
        3
176
     1
 62
     5
420
      255
176
     1
290
     0
176
     1
 90
       50
176
     1
 90
       50
176
     1
 90
       50
176
     1
290
     0
176
     1
 90
       50
176
     1
 62
   256
176
     0
 40
1.0
176
     0
 90
        2
176
     1
  1
strokes_ogs.tif
176
     1
290
     0
176
     1
 40
1.0
176
     1
 40
1.0
176
     1
1001
ACAD
1000
AcDbSavedByObjectVersion
1070
     0
  0
VISUALSTYLE
  5
FB
102
{ACAD_REACTORS
330
EF
102
}
330
EF
100
AcDbVisualStyle
  2
Brighten
 70
    12
177
     3
291
     1
 70
    58
 90
        2
176
     1
 90
        2
176
     1
 90
        1
176
     1
 90
        0
176
     1
 40
0.6
176
     1
 40
30.0
176
     1
 62
     7
420
 16777215
176
     1
 90
        1
176
     1
 90
        4
176
     1
 62
     7
176
     1
 62
   257
176
     1
 90
        1
176
     1
 90
        1
176
     1
 40
1.0
176
     1
 90
        8
176
     1
 62
     7
176
     1
 40
1.0
176
     1
 90
        1
176
     1
 90
        6
176
     1
 90
        2
176
     1
 62
     7
176
     1
 90
        5
176
     1
 90
        0
176
     1
 90
        0
176
     1
290
     0
176
     1
 90
        1
176
     1
 40
50.0
176
     1
 90
        0
176
     1
290
     0
176
     1
290
     1
176
     1
290
     1
176
     1
290
     0
176
     1
290
     0
176
     1
290
     0
176
     1
290
     0
176
     1
290
     0
176
     1
290
     0
176
     1
 90
       50
176
     1
 40
0.0
176
     1
 40
1.0
176
     1
 90
        0
176
     1
 62
    18
176
     1
 90
       50
176
     1
 90
        3
176
     1
 62
     5
420
      255
176
     1
290
     0
176
     1
 90
       50
176
     1
 90
       50
176
     1
 90
       50
176
     1
290
     0
176
     1
 90
       50
176
     1
 62
   256
176
     0
 40
1.0
176
     0
 90
        2
176
     1
  1
strokes_ogs.tif
176
     1
290
     0
176
     1
 40
1.0
176
     1
 40
1.0
176
     1
1001
ACAD
1000
AcDbSavedByObjectVersion
1070
     0
  0
VISUALSTYLE
  5
FF
102
{ACAD_REACTORS
330
EF
102
}
330
EF
100
AcDbVisualStyle
  2
ColorChange
 70
    16
177
     3
291
     1
 70
    58
 90
        2
176
     1
 90
        2
176
     1
 90
        3
176
     1
 90
        0
176
     1
 40
0.6
176
     1
 40
30.0
176
     1
 62
     8
420
  8421504
176
     1
 90
        1
176
     1
 90
        4
176
     1
 62
     7
176
     1
 62
   257
176
     1
 90
        1
176
     1
 90
        1
176
     1
 40
1.0
176
     1
 90
        8
176
     1
 62
     8
420
  8421504
176
     1
 40
1.0
176
     1
 90
        1
176
     1
 90
        6
176
     1
 90
        2
176
     1
 62
     7
176
     1
 90
        5
176
     1
 90
        0
176
     1
 90
        0
176
     1
290
     0
176
     1
 90
        1
176
     1
 40
0.0
176
     1
 90
        0
176
     1
290
     0
176
     1
290
     1
176
     1
290
     1
176
     1
290
     0
176
     1
290
     0
176
     1
290
     0
176
     1
290
     0
176
     1
290
     0
176
     1
290
     0
176
     1
 90
       50
176
     1
 40
0.0
176
     1
 40
1.0
176
     1
 90
        0
176
     1
 62
    18
176
     1
 90
       50
176
     1
 90
        3
176
     1
 62
     5
420
      255
176
     1
290
     0
176
     1
 90
       50
176
     1
 90
       50
176
     1
 90
       50
176
     1
290
     0
176
     1
 90
       50
176
     1
 62
   256
176
     0
 40
1.0
176
     0
 90
        2
176
     1
  1
strokes_ogs.tif
176
     1
290
     0
176
     1
 40
1.0
176
     1
 40
1.0
176
     1
1001
ACAD
1000
AcDbSavedByObjectVersion
1070
     0
  0
VISUALSTYLE
  5
F8
102
{ACAD_REACTORS
330
EF
102
}
330
EF
100
AcDbVisualStyle
  2
Conceptual
 70
     9
177
     3
291
     0
 70
    58
 90
        3
176
     1
 90
        2
176
     1
 90
        1
176
     1
 90
        0
176
     1
 40
0.6
176
     1
 40
30.0
176
     1
 62
     7
420
 16777215
176
     1
 90
        2
176
     1
 90
        2
176
     1
 62
     7
176
     1
 62
   257
176
     1
 90
        1
176
     1
 90
        1
176
     1
 40
40.0
176
     1
 90
        8
176
     1
 62
     7
176
     1
 40
1.0
176
     1
 90
        1
176
     1
 90
        6
176
     1
 90
        2
176
     1
 62
     7
176
     1
 90
        3
176
     1
 90
        0
176
     1
 90
        0
176
     1
290
     0
176
     1
 90
        1
176
     1
 40
0.0
176
     1
 90
        0
176
     1
290
     0
176
     1
290
     1
176
     1
290
     1
176
     1
290
     0
176
     1
290
     0
176
     1
290
     0
176
     1
290
     0
176
     1
290
     0
176
     1
290
     0
176
     1
 90
       50
176
     1
 40
0.0
176
     1
 40
1.0
176
     1
 90
        0
176
     1
 62
    18
176
     1
 90
       50
176
     1
 90
        3
176
     1
 62
     5
420
      255
176
     1
290
     0
176
     1
 90
       50
176
     1
 90
       50
176
     1
 90
       50
176
     1
290
     0
176
     1
 90
       50
176
     1
 62
   256
176
     0
 40
1.0
176
     0
 90
        2
176
     1
  1
strokes_ogs.tif
176
     1
290
     0
176
     1
 40
1.0
176
     1
 40
1.0
176
     1
1001
ACAD
1000
AcDbSavedByObjectVersion
1070
     0
  0
VISUALSTYLE
  5
FA
102
{ACAD_REACTORS
330
EF
102
}
330
EF
100
AcDbVisualStyle
  2
Dim
 70
    11
177
     3
291
     1
 70
    58
 90
        2
176
     1
 90
        2
176
     1
 90
        1
176
     1
 90
        0
176
     1
 40
0.6
176
     1
 40
30.0
176
     1
 62
     7
420
 16777215
176
     1
 90
        1
176
     1
 90
        4
176
     1
 62
     7
176
     1
 62
   257
176
     1
 90
        1
176
     1
 90
        1
176
     1
 40
1.0
176
     1
 90
        8
176
     1
 62
     7
176
     1
 40
1.0
176
     1
 90
        1
176
     1
 90
        6
176
     1
 90
        2
176
     1
 62
     7
176
     1
 90
        5
176
     1
 90
        0
176
     1
 90
        0
176
     1
290
     0
176
     1
 90
        1
176
     1
 40
-50.0
176
     1
 90
        0
176
     1
290
     0
176
     1
290
     1
176
     1
290
     1
176
     1
290
     0
176
     1
290
     0
176
     1
290
     0
176
     1
290
     0
176
     1
290
     0
176
     1
290
     0
176
     1
 90
       50
176
     1
 40
0.0
176
     1
 40
1.0
176
     1
 90
        0
176
     1
 62
    18
176
     1
 90
       50
176
     1
 90
        3
176
     1
 62
     5
420
      255
176
     1
290
     0
176
     1
 90
       50
176
     1
 90
       50
176
     1
 90
       50
176
     1
290
     0
176
     1
 90
       50
176
     1
 62
   256
176
     0
 40
1.0
176
     0
 90
        2
176
     1
  1
strokes_ogs.tif
176
     1
290
     0
176
     1
 40
1.0
176
     1
 40
1.0
176
     1
1001
ACAD
1000
AcDbSavedByObjectVersion
1070
     0
  0
VISUALSTYLE
  5
1E6
102
{ACAD_REACTORS
330
EF
102
}
330
EF
100
AcDbVisualStyle
  2
EdgeColorOff
 70
    22
177
     3
291
     1
 70
    58
 90
        2
176
     0
 90
        2
176
     0
 90
        0
176
     0
 90
        0
176
     0
 40
0.6
176
     0
 40
30.0
176
     0
 62
     7
420
 16777215
176
     0
 90
        1
176
     0
 90
        4
176
     0
 62
     7
176
     0
 62
   257
176
     0
 90
        1
176
     0
 90
        1
176
     0
 40
1.0
176
     0
 90
        8
176
     2
 62
     7
176
     0
 40
1.0
176
     0
 90
        1
176
     0
 90
        6
176
     0
 90
        2
176
     0
 62
     7
176
     0
 90
        5
176
     0
 90
        0
176
     0
 90
        0
176
     0
290
     0
176
     0
 90
        1
176
     0
 40
0.0
176
     0
 90
        0
176
     0
290
     0
176
     1
290
     1
176
     1
290
     1
176
     1
290
     0
176
     1
290
     0
176
     1
290
     0
176
     1
290
     0
176
     1
290
     0
176
     1
290
     0
176
     1
 90
       50
176
     1
 40
0.0
176
     1
 40
1.0
176
     1
 90
        0
176
     1
 62
    18
176
     1
 90
       50
176
     1
 90
        3
176
     1
 62
     5
420
      255
176
     1
290
     0
176
     1
 90
       50
176
     1
 90
       50
176
     1
 90
       50
176
     1
290
     0
176
     1
 90
       50
176
     1
 62
   256
176
     0
 40
1.0
176
     0
 90
        2
176
     1
  1
strokes_ogs.tif
176
     1
290
     0
176
     1
 40
1.0
176
     1
 40
1.0
176
     1
1001
ACAD
1000
AcDbSavedByObjectVersion
1070
     0
  0
VISUALSTYLE
  5
FE
102
{ACAD_REACTORS
330
EF
102
}
330
EF
100
AcDbVisualStyle
  2
Facepattern
 70
    15
177
     3
291
     1
 70
    58
 90
        2
176
     1
 90
        2
176
     1
 90
        1
176
     1
 90
        0
176
     1
 40
0.6
176
     1
 40
30.0
176
     1
 62
     7
420
 16777215
176
     1
 90
        1
176
     1
 90
        4
176
     1
 62
     7
176
     1
 62
   257
176
     1
 90
        1
176
     1
 90
        1
176
     1
 40
1.0
176
     1
 90
        8
176
     1
 62
     7
176
     1
 40
1.0
176
     1
 90
        1
176
     1
 90
        6
176
     1
 90
        2
176
     1
 62
     7
176
     1
 90
        5
176
     1
 90
        0
176
     1
 90
        0
176
     1
290
     0
176
     1
 90
        1
176
     1
 40
0.0
176
     1
 90
        0
176
     1
290
     0
176
     1
290
     1
176
     1
290
     1
176
     1
290
     0
176
     1
290
     0
176
     1
290
     0
176
     1
290
     0
176
     1
290
     0
176
     1
290
     0
176
     1
 90
       50
176
     1
 40
0.0
176
     1
 40
1.0
176
     1
 90
        0
176
     1
 62
    18
176
     1
 90
       50
176
     1
 90
        3
176
     1
 62
     5
420
      255
176
     1
290
     0
176
     1
 90
       50
176
     1
 90
       50
176
     1
 90
       50
176
     1
290
     0
176
     1
 90
       50
176
     1
 62
   256
176
     0
 40
1.0
176
     0
 90
        2
176
     1
  1
strokes_ogs.tif
176
     1
290
     0
176
     1
 40
1.0
176
     1
 40
1.0
176
     1
1001
ACAD
1000
AcDbSavedByObjectVersion
1070
     0
  0
VISUALSTYLE
  5
F0
102
{ACAD_REACTORS
330
EF
102
}
330
EF
100
AcDbVisualStyle
  2
Flat
 70
     0
177
     3
291
     1
 70
    58
 90
        2
176
     1
 90
        1
176
     1
 90
        1
176
     1
 90
        2
176
     1
 40
0.6
176
     1
 40
30.0
176
     1
 62
     7
420
 16777215
176
     1
 90
        0
176
     1
 90
        4
176
     1
 62
     7
176
     1
 62
   257
176
     1
 90
        1
176
     1
 90
        1
176
     1
 40
1.0
176
     1
 90
        8
176
     1
 62
     7
176
     1
 40
1.0
176
     1
 90
        1
176
     1
 90
        6
176
     1
 90
        2
176
     1
 62
     7
176
     1
 90
        5
176
     1
 90
        0
176
     1
 90
        0
176
     1
290
     0
176
     1
 90
        1
176
     1
 40
0.0
176
     1
 90
        0
176
     1
290
     0
176
     1
290
     1
176
     1
290
     1
176
     1
290
     0
176
     1
290
     0
176
     1
290
     0
176
     1
290
     0
176
     1
290
     0
176
     1
290
     0
176
     1
 90
       50
176
     1
 40
0.0
176
     1
 40
1.0
176
     1
 90
        0
176
     1
 62
    18
176
     1
 90
       50
176
     1
 90
        3
176
     1
 62
     5
420
      255
176
     1
290
     0
176
     1
 90
       50
176
     1
 90
       50
176
     1
 90
       50
176
     1
290
     0
176
     1
 90
       50
176
     1
 62
   256
176
     0
 40
1.0
176
     0
 90
        2
176
     1
  1
strokes_ogs.tif
176
     1
290
     0
176
     1
 40
1.0
176
     1
 40
1.0
176
     1
1001
ACAD
1000
AcDbSavedByObjectVersion
1070
     0
  0
VISUALSTYLE
  5
F1
102
{ACAD_REACTORS
330
EF
102
}
330
EF
100
AcDbVisualStyle
  2
FlatWithEdges
 70
     1
177
     3
291
     1
 70
    58
 90
        2
176
     1
 90
        1
176
     1
 90
        1
176
     1
 90
        2
176
     1
 40
0.6
176
     1
 40
30.0
176
     1
 62
     7
420
 16777215
176
     1
 90
        1
176
     1
 90
        4
176
     1
 62
     7
176
     1
 62
   257
176
     1
 90
        1
176
     1
 90
        1
176
     1
 40
1.0
176
     1
 90
        0
176
     1
 62
   257
176
     1
 40
1.0
176
     1
 90
        1
176
     1
 90
        6
176
     1
 90
        2
176
     1
 62
     7
176
     1
 90
        5
176
     1
 90
        0
176
     1
 90
        0
176
     1
290
     0
176
     1
 90
        1
176
     1
 40
0.0
176
     1
 90
        0
176
     1
290
     0
176
     1
290
     1
176
     1
290
     1
176
     1
290
     0
176
     1
290
     0
176
     1
290
     0
176
     1
290
     0
176
     1
290
     0
176
     1
290
     0
176
     1
 90
       50
176
     1
 40
0.0
176
     1
 40
1.0
176
     1
 90
        0
176
     1
 62
    18
176
     1
 90
       50
176
     1
 90
        3
176
     1
 62
     5
420
      255
176
     1
290
     0
176
     1
 90
       50
176
     1
 90
       50
176
     1
 90
       50
176
     1
290
     0
176
     1
 90
       50
176
     1
 62
   256
176
     0
 40
1.0
176
     0
 90
        2
176
     1
  1
strokes_ogs.tif
176
     1
290
     0
176
     1
 40
1.0
176
     1
 40
1.0
176
     1
1001
ACAD
1000
AcDbSavedByObjectVersion
1070
     0
  0
VISUALSTYLE
  5
F2
102
{ACAD_REACTORS
330
EF
102
}
330
EF
100
AcDbVisualStyle
  2
Gouraud
 70
     2
177
     3
291
     1
 70
    58
 90
        2
176
     1
 90
        2
176
     1
 90
        1
176
     1
 90
        2
176
     1
 40
0.6
176
     1
 40
30.0
176
     1
 62
     7
420
 16777215
176
     1
 90
        0
176
     1
 90
        4
176
     1
 62
     7
176
     1
 62
   257
176
     1
 90
        1
176
     1
 90
        1
176
     1
 40
1.0
176
     1
 90
        0
176
     1
 62
     7
176
     1
 40
1.0
176
     1
 90
        1
176
     1
 90
        6
176
     1
 90
        2
176
     1
 62
     7
176
     1
 90
        5
176
     1
 90
        0
176
     1
 90
        0
176
     1
290
     0
176
     1
 90
        1
176
     1
 40
0.0
176
     1
 90
        0
176
     1
290
     0
176
     1
290
     1
176
     1
290
     1
176
     1
290
     0
176
     1
290
     0
176
     1
290
     0
176
     1
290
     0
176
     1
290
     0
176
     1
290
     0
176
     1
 90
       50
176
     1
 40
0.0
176
     1
 40
1.0
176
     1
 90
        0
176
     1
 62
    18
176
     1
 90
       50
176
     1
 90
        3
176
     1
 62
     5
420
      255
176
     1
290
     0
176
     1
 90
       50
176
     1
 90
       50
176
     1
 90
       50
176
     1
290
     0
176
     1
 90
       50
176
     1
 62
   256
176
     0
 40
1.0
176
     0
 90
        2
176
     1
  1
strokes_ogs.tif
176
     1
290
     0
176
     1
 40
1.0
176
     1
 40
1.0
176
     1
1001
ACAD
1000
AcDbSavedByObjectVersion
1070
     0
  0
VISUALSTYLE
  5
F3
102
{ACAD_REACTORS
330
EF
102
}
330
EF
100
AcDbVisualStyle
  2
GouraudWithEdges
 70
     3
177
     3
291
     1
 70
    58
 90
        2
176
     1
 90
        2
176
     1
 90
        1
176
     1
 90
        2
176
     1
 40
0.6
176
     1
 40
30.0
176
     1
 62
     7
420
 16777215
176
     1
 90
        1
176
     1
 90
        4
176
     1
 62
     7
176
     1
 62
   257
176
     1
 90
        1
176
     1
 90
        1
176
     1
 40
1.0
176
     1
 90
        0
176
     1
 62
   257
176
     1
 40
1.0
176
     1
 90
        1
176
     1
 90
        6
176
     1
 90
        2
176
     1
 62
     7
176
     1
 90
        5
176
     1
 90
        0
176
     1
 90
        0
176
     1
290
     0
176
     1
 90
        1
176
     1
 40
0.0
176
     1
 90
        0
176
     1
290
     0
176
     1
290
     1
176
     1
290
     1
176
     1
290
     0
176
     1
290
     0
176
     1
290
     0
176
     1
290
     0
176
     1
290
     0
176
     1
290
     0
176
     1
 90
       50
176
     1
 40
0.0
176
     1
 40
1.0
176
     1
 90
        0
176
     1
 62
    18
176
     1
 90
       50
176
     1
 90
        3
176
     1
 62
     5
420
      255
176
     1
290
     0
176
     1
 90
       50
176
     1
 90
       50
176
     1
 90
       50
176
     1
290
     0
176
     1
 90
       50
176
     1
 62
   256
176
     0
 40
1.0
176
     0
 90
        2
176
     1
  1
strokes_ogs.tif
176
     1
290
     0
176
     1
 40
1.0
176
     1
 40
1.0
176
     1
1001
ACAD
1000
AcDbSavedByObjectVersion
1070
     0
  0
VISUALSTYLE
  5
1F2
102
{ACAD_REACTORS
330
EF
102
}
330
EF
100
AcDbVisualStyle
  2
Hidden
 70
     6
177
     3
291
     0
 70
    58
 90
        1
176
     1
 90
        2
176
     1
 90
        2
176
     1
 90
        0
176
     1
 40
0.6
176
     1
 40
30.0
176
     1
 62
     7
420
 16777215
176
     1
 90
        2
176
     1
 90
        2
176
     1
 62
     7
176
     1
 62
   257
176
     1
 90
        2
176
     1
 90
        1
176
     1
 40
40.0
176
     1
 90
        0
176
     1
 62
   257
176
     1
 40
1.0
176
     1
 90
        1
176
     1
 90
        6
176
     1
 90
        2
176
     1
 62
     7
176
     1
 90
        3
176
     1
 90
        0
176
     1
 90
        0
176
     1
290
     0
176
     1
 90
        1
176
     1
 40
0.0
176
     1
 90
        0
176
     1
290
     0
176
     1
290
     1
176
     1
290
     1
176
     1
290
     0
176
     1
290
     0
176
     1
290
     0
176
     1
290
     0
176
     1
290
     0
176
     1
290
     0
176
     1
 90
       50
176
     1
 40
0.0
176
     1
 40
1.0
176
     1
 90
        0
176
     1
 62
    18
176
     1
 90
       50
176
     1
 90
        3
176
     1
 62
     5
420
      255
176
     1
290
     0
176
     1
 90
       50
176
     1
 90
       50
176
     1
 90
       50
176
     1
290
     0
176
     1
 90
       50
176
     1
 62
   256
176
     0
 40
1.0
176
     0
 90
        2
176
     1
  1
strokes_ogs.tif
176
     1
290
     0
176
     1
 40
1.0
176
     1
 40
1.0
176
     1
1001
ACAD
1000
AcDbSavedByObjectVersion
1070
     0
  0
VISUALSTYLE
  5
1E4
102
{ACAD_REACTORS
330
EF
102
}
330
EF
100
AcDbVisualStyle
  2
JitterOff
 70
    20
177
     3
291
     1
 70
    58
 90
        2
176
     0
 90
        2
176
     0
 90
        0
176
     0
 90
        0
176
     0
 40
0.6
176
     0
 40
30.0
176
     0
 62
     7
420
 16777215
176
     0
 90
        1
176
     0
 90
        4
176
     0
 62
     7
176
     0
 62
   257
176
     0
 90
        1
176
     0
 90
        1
176
     0
 40
1.0
176
     0
 90
       10
176
     2
 62
     7
176
     0
 40
1.0
176
     0
 90
        1
176
     0
 90
        6
176
     0
 90
        2
176
     0
 62
     7
176
     0
 90
        5
176
     0
 90
        0
176
     0
 90
        0
176
     0
290
     0
176
     0
 90
        1
176
     0
 40
0.0
176
     0
 90
        0
176
     0
290
     0
176
     1
290
     1
176
     1
290
     1
176
     1
290
     0
176
     1
290
     0
176
     1
290
     0
176
     1
290
     0
176
     1
290
     0
176
     1
290
     0
176
     1
 90
       50
176
     1
 40
0.0
176
     1
 40
1.0
176
     1
 90
        0
176
     1
 62
    18
176
     1
 90
       50
176
     1
 90
        3
176
     1
 62
     5
420
      255
176
     1
290
     0
176
     1
 90
       50
176
     1
 90
       50
176
     1
 90
       50
176
     1
290
     0
176
     1
 90
       50
176
     1
 62
   256
176
     0
 40
1.0
176
     0
 90
        2
176
     1
  1
strokes_ogs.tif
176
     1
290
     0
176
     1
 40
1.0
176
     1
 40
1.0
176
     1
1001
ACAD
1000
AcDbSavedByObjectVersion
1070
     0
  0
VISUALSTYLE
  5
FD
102
{ACAD_REACTORS
330
EF
102
}
330
EF
100
AcDbVisualStyle
  2
Linepattern
 70
    14
177
     3
291
     1
 70
    58
 90
        2
176
     1
 90
        2
176
     1
 90
        1
176
     1
 90
        0
176
     1
 40
0.6
176
     1
 40
30.0
176
     1
 62
     7
420
 16777215
176
     1
 90
        1
176
     1
 90
        4
176
     1
 62
     7
176
     1
 62
   257
176
     1
 90
        7
176
     1
 90
        7
176
     1
 40
1.0
176
     1
 90
        8
176
     1
 62
     7
176
     1
 40
1.0
176
     1
 90
        1
176
     1
 90
        6
176
     1
 90
        2
176
     1
 62
     7
176
     1
 90
        5
176
     1
 90
        0
176
     1
 90
        0
176
     1
290
     0
176
     1
 90
        1
176
     1
 40
0.0
176
     1
 90
        0
176
     1
290
     0
176
     1
290
     1
176
     1
290
     1
176
     1
290
     0
176
     1
290
     0
176
     1
290
     0
176
     1
290
     0
176
     1
290
     0
176
     1
290
     0
176
     1
 90
       50
176
     1
 40
0.0
176
     1
 40
1.0
176
     1
 90
        0
176
     1
 62
    18
176
     1
 90
       50
176
     1
 90
        3
176
     1
 62
     5
420
      255
176
     1
290
     0
176
     1
 90
       50
176
     1
 90
       50
176
     1
 90
       50
176
     1
290
     0
176
     1
 90
       50
176
     1
 62
   256
176
     0
 40
1.0
176
     0
 90
        2
176
     1
  1
strokes_ogs.tif
176
     1
290
     0
176
     1
 40
1.0
176
     1
 40
1.0
176
     1
1001
ACAD
1000
AcDbSavedByObjectVersion
1070
     0
  0
VISUALSTYLE
  5
1E5
102
{ACAD_REACTORS
330
EF
102
}
330
EF
100
AcDbVisualStyle
  2
OverhangOff
 70
    21
177
     3
291
     1
 70
    58
 90
        2
176
     0
 90
        2
176
     0
 90
        0
176
     0
 90
        0
176
     0
 40
0.6
176
     0
 40
30.0
176
     0
 62
     7
420
 16777215
176
     0
 90
        1
176
     0
 90
        4
176
     0
 62
     7
176
     0
 62
   257
176
     0
 90
        1
176
     0
 90
        1
176
     0
 40
1.0
176
     0
 90
        9
176
     2
 62
     7
176
     0
 40
1.0
176
     0
 90
        1
176
     0
 90
        6
176
     0
 90
        2
176
     0
 62
     7
176
     0
 90
        5
176
     0
 90
        0
176
     0
 90
        0
176
     0
290
     0
176
     0
 90
        1
176
     0
 40
0.0
176
     0
 90
        0
176
     0
290
     0
176
     1
290
     1
176
     1
290
     1
176
     1
290
     0
176
     1
290
     0
176
     1
290
     0
176
     1
290
     0
176
     1
290
     0
176
     1
290
     0
176
     1
 90
       50
176
     1
 40
0.0
176
     1
 40
1.0
176
     1
 90
        0
176
     1
 62
    18
176
     1
 90
       50
176
     1
 90
        3
176
     1
 62
     5
420
      255
176
     1
290
     0
176
     1
 90
       50
176
     1
 90
       50
176
     1
 90
       50
176
     1
290
     0
176
     1
 90
       50
176
     1
 62
   256
176
     0
 40
1.0
176
     0
 90
        2
176
     1
  1
strokes_ogs.tif
176
     1
290
     0
176
     1
 40
1.0
176
     1
 40
1.0
176
     1
1001
ACAD
1000
AcDbSavedByObjectVersion
1070
     0
  0
VISUALSTYLE
  5
F9
102
{ACAD_REACTORS
330
EF
102
}
330
EF
100
AcDbVisualStyle
  2
Realistic
 70
     8
177
     3
291
     0
 70
    58
 90
        2
176
     1
 90
        2
176
     1
 90
        1
176
     1
 90
        0
176
     1
 40
0.6
176
     1
 40
30.0
176
     1
 62
     7
420
 16777215
176
     1
 90
        1
176
     1
 90
        0
176
     1
 62
     7
176
     1
 62
   257
176
     1
 90
        1
176
     1
 90
        1
176
     1
 40
1.0
176
     1
 90
        8
176
     1
 62
     8
420
  7895160
176
     1
 40
1.0
176
     1
 90
        1
176
     1
 90
        6
176
     1
 90
        2
176
     1
 62
     7
176
     1
 90
        5
176
     1
 90
        0
176
     1
 90
        0
176
     1
290
     0
176
     1
 90
       13
176
     1
 40
0.0
176
     1
 90
        0
176
     1
290
     0
176
     1
290
     1
176
     1
290
     1
176
     1
290
     0
176
     1
290
     0
176
     1
290
     0
176
     1
290
     0
176
     1
290
     0
176
     1
290
     0
176
     1
 90
       50
176
     1
 40
0.0
176
     1
 40
1.0
176
     1
 90
        0
176
     1
 62
    18
176
     1
 90
       50
176
     1
 90
        3
176
     1
 62
     5
420
      255
176
     1
290
     0
176
     1
 90
       50
176
     1
 90
       50
176
     1
 90
       50
176
     1
290
     0
176
     1
 90
       50
176
     1
 62
   256
176
     0
 40
1.0
176
     0
 90
        2
176
     1
  1
strokes_ogs.tif
176
     1
290
     0
176
     1
 40
1.0
176
     1
 40
1.0
176
     1
1001
ACAD
1000
AcDbSavedByObjectVersion
1070
     0
  0
VISUALSTYLE
  5
1F7
102
{ACAD_REACTORS
330
EF
102
}
330
EF
100
AcDbVisualStyle
  2
Shaded
 70
    27
177
     3
291
     0
 70
    58
 90
        2
176
     1
 90
        2
176
     1
 90
        1
176
     1
 90
        2
176
     1
 40
0.6
176
     1
 40
30.0
176
     1
 62
     7
420
 16777215
176
     1
 90
        0
176
     1
 90
        4
176
     1
 62
     7
176
     1
 62
   257
176
     1
 90
        1
176
     1
 90
        1
176
     1
 40
1.0
176
     1
 90
        8
176
     1
 62
   257
176
     1
 40
1.0
176
     1
 90
        1
176
     1
 90
        6
176
     1
 90
        2
176
     1
 62
     8
420
  7895160
176
     1
 90
        3
176
     1
 90
        0
176
     1
 90
        0
176
     1
290
     0
176
     1
 90
        5
176
     1
 40
0.0
176
     1
 90
        0
176
     1
290
     0
176
     1
290
     1
176
     1
290
     1
176
     1
290
     0
176
     1
290
     0
176
     1
290
     0
176
     1
290
     0
176
     1
290
     0
176
     1
290
     0
176
     1
 90
       50
176
     1
 40
0.0
176
     1
 40
1.0
176
     1
 90
        0
176
     1
 62
    18
176
     1
 90
       50
176
     1
 90
        3
176
     1
 62
     5
420
      255
176
     1
290
     0
176
     1
 90
       50
176
     1
 90
       50
176
     1
 90
       50
176
     1
290
     0
176
     1
 90
       50
176
     1
 62
   256
176
     0
 40
1.0
176
     0
 90
        2
176
     1
  1
strokes_ogs.tif
176
     1
290
     0
176
     1
 40
1.0
176
     1
 40
1.0
176
     1
1001
ACAD
1000
AcDbSavedByObjectVersion
1070
     0
  0
VISUALSTYLE
  5
1F6
102
{ACAD_REACTORS
330
EF
102
}
330
EF
100
AcDbVisualStyle
  2
Shaded with edges
 70
    26
177
     3
291
     0
 70
    58
 90
        2
176
     1
 90
        2
176
     1
 90
        1
176
     1
 90
        2
176
     1
 40
0.6
176
     1
 40
30.0
176
     1
 62
     7
420
 16777215
176
     1
 90
        1
176
     1
 90
        2
176
     1
 62
     7
176
     1
 62
   257
176
     1
 90
        2
176
     1
 90
        1
176
     1
 40
1.0
176
     1
 90
        8
176
     1
 62
   257
176
     1
 40
1.0
176
     1
 90
        1
176
     1
 90
        6
176
     1
 90
        2
176
     1
 62
     7
176
     1
 90
        3
176
     1
 90
        0
176
     1
 90
        0
176
     1
290
     0
176
     1
 90
        5
176
     1
 40
0.0
176
     1
 90
        0
176
     1
290
     0
176
     1
290
     1
176
     1
290
     1
176
     1
290
     0
176
     1
290
     0
176
     1
290
     0
176
     1
290
     0
176
     1
290
     0
176
     1
290
     0
176
     1
 90
       50
176
     1
 40
0.0
176
     1
 40
1.0
176
     1
 90
        0
176
     1
 62
    18
176
     1
 90
       50
176
     1
 90
        3
176
     1
 62
     5
420
      255
176
     1
290
     0
176
     1
 90
       50
176
     1
 90
       50
176
     1
 90
       50
176
     1
290
     0
176
     1
 90
       50
176
     1
 62
   256
176
     0
 40
1.0
176
     0
 90
        2
176
     1
  1
strokes_ogs.tif
176
     1
290
     0
176
     1
 40
1.0
176
     1
 40
1.0
176
     1
1001
ACAD
1000
AcDbSavedByObjectVersion
1070
     0
  0
VISUALSTYLE
  5
1F3
102
{ACAD_REACTORS
330
EF
102
}
330
EF
100
AcDbVisualStyle
  2
Shades of Gray
 70
    23
177
     3
291
     0
 70
    58
 90
        2
176
     1
 90
        2
176
     1
 90
        3
176
     1
 90
        0
176
     1
 40
0.6
176
     1
 40
30.0
176
     1
 62
     7
420
 16777215
176
     1
 90
        2
176
     1
 90
        2
176
     1
 62
     7
176
     1
 62
     7
176
     1
 90
        1
176
     1
 90
        1
176
     1
 40
40.0
176
     1
 90
        8
176
     1
 62
     7
176
     1
 40
1.0
176
     1
 90
        1
176
     1
 90
        6
176
     1
 90
        2
176
     1
 62
     7
176
     1
 90
        3
176
     1
 90
        0
176
     1
 90
        0
176
     1
290
     0
176
     1
 90
        1
176
     1
 40
0.0
176
     1
 90
        0
176
     1
290
     0
176
     1
290
     1
176
     1
290
     1
176
     1
290
     0
176
     1
290
     0
176
     1
290
     0
176
     1
290
     0
176
     1
290
     0
176
     1
290
     0
176
     1
 90
       50
176
     1
 40
0.0
176
     1
 40
1.0
176
     1
 90
        0
176
     1
 62
    18
176
     1
 90
       50
176
     1
 90
        3
176
     1
 62
     5
420
      255
176
     1
290
     0
176
     1
 90
       50
176
     1
 90
       50
176
     1
 90
       50
176
     1
290
     0
176
     1
 90
       50
176
     1
 62
   256
176
     0
 40
1.0
176
     0
 90
        2
176
     1
  1
strokes_ogs.tif
176
     1
290
     0
176
     1
 40
1.0
176
     1
 40
1.0
176
     1
1001
ACAD
1000
AcDbSavedByObjectVersion
1070
     0
  0
VISUALSTYLE
  5
1F4
102
{ACAD_REACTORS
330
EF
102
}
330
EF
100
AcDbVisualStyle
  2
Sketchy
 70
    24
177
     3
291
     0
 70
    58
 90
        1
176
     1
 90
        2
176
     1
 90
        2
176
     1
 90
        0
176
     1
 40
0.6
176
     1
 40
30.0
176
     1
 62
     7
420
 16777215
176
     1
 90
        2
176
     1
 90
        2
176
     1
 62
     7
176
     1
 62
     7
176
     1
 90
        1
176
     1
 90
        1
176
     1
 40
40.0
176
     1
 90
       11
176
     1
 62
     7
176
     1
 40
1.0
176
     1
 90
        1
176
     1
 90
        6
176
     1
 90
        2
176
     1
 62
     7
176
     1
 90
        6
176
     1
 90
        0
176
     1
 90
        0
176
     1
290
     0
176
     1
 90
        1
176
     1
 40
0.0
176
     1
 90
        0
176
     1
290
     0
176
     1
290
     1
176
     1
290
     1
176
     1
290
     0
176
     1
290
     0
176
     1
290
     0
176
     1
290
     0
176
     1
290
     0
176
     1
290
     0
176
     1
 90
       50
176
     1
 40
0.0
176
     1
 40
1.0
176
     1
 90
        0
176
     1
 62
    18
176
     1
 90
       50
176
     1
 90
        3
176
     1
 62
     5
420
      255
176
     1
290
     0
176
     1
 90
       50
176
     1
 90
       50
176
     1
 90
       50
176
     1
290
     0
176
     1
 90
       50
176
     1
 62
   256
176
     0
 40
1.0
176
     0
 90
        2
176
     1
  1
strokes_ogs.tif
176
     1
290
     0
176
     1
 40
1.0
176
     1
 40
1.0
176
     1
1001
ACAD
1000
AcDbSavedByObjectVersion
1070
     0
  0
VISUALSTYLE
  5
FC
102
{ACAD_REACTORS
330
EF
102
}
330
EF
100
AcDbVisualStyle
  2
Thicken
 70
    13
177
     3
291
     1
 70
    58
 90
        2
176
     1
 90
        2
176
     1
 90
        1
176
     1
 90
        0
176
     1
 40
0.6
176
     1
 40
30.0
176
     1
 62
     7
420
 16777215
176
     1
 90
        1
176
     1
 90
        4
176
     1
 62
     7
176
     1
 62
   257
176
     1
 90
        1
176
     1
 90
        1
176
     1
 40
1.0
176
     1
 90
       12
176
     1
 62
     7
176
     1
 40
1.0
176
     1
 90
        1
176
     1
 90
        6
176
     1
 90
        2
176
     1
 62
     7
176
     1
 90
        5
176
     1
 90
        0
176
     1
 90
        0
176
     1
290
     0
176
     1
 90
        1
176
     1
 40
0.0
176
     1
 90
        0
176
     1
290
     0
176
     1
290
     1
176
     1
290
     1
176
     1
290
     0
176
     1
290
     0
176
     1
290
     0
176
     1
290
     0
176
     1
290
     0
176
     1
290
     0
176
     1
 90
       50
176
     1
 40
0.0
176
     1
 40
1.0
176
     1
 90
        0
176
     1
 62
    18
176
     1
 90
       50
176
     1
 90
        3
176
     1
 62
     5
420
      255
176
     1
290
     0
176
     1
 90
       50
176
     1
 90
       50
176
     1
 90
       50
176
     1
290
     0
176
     1
 90
       50
176
     1
 62
   256
176
     0
 40
1.0
176
     0
 90
        2
176
     1
  1
strokes_ogs.tif
176
     1
290
     0
176
     1
 40
1.0
176
     1
 40
1.0
176
     1
1001
ACAD
1000
AcDbSavedByObjectVersion
1070
     0
  0
VISUALSTYLE
  5
1F1
102
{ACAD_REACTORS
330
EF
102
}
330
EF
100
AcDbVisualStyle
  2
Wireframe
 70
     5
177
     3
291
     0
 70
    58
 90
        0
176
     1
 90
        2
176
     1
 90
        0
176
     1
 90
        0
176
     1
 40
0.6
176
     1
 40
30.0
176
     1
 62
     7
420
 16777215
176
     1
 90
        1
176
     1
 90
        4
176
     1
 62
     7
176
     1
 62
   257
176
     1
 90
        1
176
     1
 90
        1
176
     1
 40
1.0
176
     1
 90
        0
176
     1
 62
   257
176
     1
 40
1.0
176
     1
 90
        1
176
     1
 90
        6
176
     1
 90
        2
176
     1
 62
     7
176
     1
 90
        3
176
     1
 90
        0
176
     1
 90
        0
176
     1
290
     0
176
     1
 90
        1
176
     1
 40
0.0
176
     1
 90
        0
176
     1
290
     0
176
     1
290
     1
176
     1
290
     1
176
     1
290
     0
176
     1
290
     0
176
     1
290
     0
176
     1
290
     0
176
     1
290
     0
176
     1
290
     0
176
     1
 90
       50
176
     1
 40
0.0
176
     1
 40
1.0
176
     1
 90
        0
176
     1
 62
    18
176
     1
 90
       50
176
     1
 90
        3
176
     1
 62
     5
420
      255
176
     1
290
     0
176
     1
 90
       50
176
     1
 90
       50
176
     1
 90
       50
176
     1
290
     0
176
     1
 90
       50
176
     1
 62
   256
176
     0
 40
1.0
176
     0
 90
        2
176
     1
  1
strokes_ogs.tif
176
     1
290
     0
176
     1
 40
1.0
176
     1
 40
1.0
176
     1
1001
ACAD
1000
AcDbSavedByObjectVersion
1070
     0
  0
VISUALSTYLE
  5
1F5
102
{ACAD_REACTORS
330
EF
102
}
330
EF
100
AcDbVisualStyle
  2
X-Ray
 70
    25
177
     3
291
     0
 70
    58
 90
        2
176
     1
 90
        2
176
     1
 90
        1
176
     1
 90
        1
176
     1
 40
0.5
176
     1
 40
30.0
176
     1
 62
     7
420
 16777215
176
     1
 90
        1
176
     1
 90
        0
176
     1
 62
     7
176
     1
 62
   257
176
     1
 90
        1
176
     1
 90
        1
176
     1
 40
1.0
176
     1
 90
        8
176
     1
 62
     7
176
     1
 40
1.0
176
     1
 90
        1
176
     1
 90
        6
176
     1
 90
        2
176
     1
 62
     7
176
     1
 90
        3
176
     1
 90
        0
176
     1
 90
        0
176
     1
290
     0
176
     1
 90
       13
176
     1
 40
0.0
176
     1
 90
        0
176
     1
290
     0
176
     1
290
     1
176
     1
290
     1
176
     1
290
     0
176
     1
290
     0
176
     1
290
     0
176
     1
290
     0
176
     1
290
     0
176
     1
290
     0
176
     1
 90
       50
176
     1
 40
0.0
176
     1
 40
1.0
176
     1
 90
        0
176
     1
 62
    18
176
     1
 90
       50
176
     1
 90
        3
176
     1
 62
     5
420
      255
176
     1
290
     0
176
     1
 90
       50
176
     1
 90
       50
176
     1
 90
       50
176
     1
290
     0
176
     1
 90
       50
176
     1
 62
   256
176
     0
 40
1.0
176
     0
 90
        2
176
     1
  1
strokes_ogs.tif
176
     1
290
     0
176
     1
 40
1.0
176
     1
 40
1.0
176
     1
1001
ACAD
1000
AcDbSavedByObjectVersion
1070
     0
  0
DICTIONARYVAR
  5
146
102
{ACAD_REACTORS
330
5E
102
}
330
5E
100
DictionaryVariables
280
     0
  1
1:1
  0
DICTIONARYVAR
  5
145
102
{ACAD_REACTORS
330
5E
102
}
330
5E
100
DictionaryVariables
280
     0
  1
STANDARD
  0
DICTIONARYVAR
  5
84
102
{ACAD_REACTORS
330
5E
102
}
330
5E
100
DictionaryVariables
280
     0
  1
STANDARD
  0
DICTIONARYVAR
  5
6AB
102
{ACAD_REACTORS
330
5E
102
}
330
5E
100
DictionaryVariables
280
     0
  1
Metric50
  0
DICTIONARYVAR
  5
6AC
102
{ACAD_REACTORS
330
5E
102
}
330
5E
100
DictionaryVariables
280
     0
  1
Metric50
  0
DICTIONARYVAR
  5
5F
102
{ACAD_REACTORS
330
5E
102
}
330
5E
100
DictionaryVariables
280
     0
  1
2
  0
DICTIONARYVAR
  5
63
102
{ACAD_REACTORS
330
5E
102
}
330
5E
100
DictionaryVariables
280
     0
  1
1
  0
DICTIONARYVAR
  5
1AE
102
{ACAD_REACTORS
330
5E
102
}
330
5E
100
DictionaryVariables
280
     0
  1
0
  0
DICTIONARYVAR
  5
1AF
102
{ACAD_REACTORS
330
5E
102
}
330
5E
100
DictionaryVariables
280
     0
  1
0
  0
DICTIONARY
  5
173
330
EE
100
AcDbDictionary
280
     1
281
     1
  3
BUMPTILE
360
175
  3
DIFFUSETILE
360
174
  3
OPACITYTILE
360
176
  3
REFLECTIONTILE
360
177
  0
DICTIONARY
  5
162
330
7F
100
AcDbDictionary
280
     1
281
     1
  3
ACAD_ROUNDTRIP_2008_TABLESTYLE_CELLSTYLEMAP
360
1016
  0
XRECORD
  5
175
102
{ACAD_REACTORS
330
173
102
}
330
173
100
AcDbXrecord
280
     1
270
     1
271
     1
  0
XRECORD
  5
174
102
{ACAD_REACTORS
330
173
102
}
330
173
100
AcDbXrecord
280
     1
270
     1
271
     1
  0
XRECORD
  5
176
102
{ACAD_REACTORS
330
173
102
}
330
173
100
AcDbXrecord
280
     1
270
     1
271
     1
  0
XRECORD
  5
177
102
{ACAD_REACTORS
330
173
102
}
330
173
100
AcDbXrecord
280
     1
270
     1
271
     1
  0
CELLSTYLEMAP
  5
1016
102
{ACAD_REACTORS
330
162
102
}
330
162
100
AcDbCellStyleMap
 90
        3
300
CELLSTYLE
  1
TABLEFORMAT_BEGIN
 90
        5
170
     1
 91
        0
 92
    32768
 62
   257
 93
        1
300
CONTENTFORMAT
  1
CONTENTFORMAT_BEGIN
 90
        0
 91
        0
 92
      512
 93
        0
300

 40
0.0
140
1.0
 94
        5
 62
     0
340
11
144
6.0
309
CONTENTFORMAT_END
171
     1
301
MARGIN
  1
CELLMARGIN_BEGIN
 40
1.5
 40
1.5
 40
1.5
 40
1.5
 40
0.18
 40
0.18
309
CELLMARGIN_END
 94
        6
 95
        1
302
GRIDFORMAT
  1
GRIDFORMAT_BEGIN
 90
        0
 91
        1
 62
     0
 92
       -2
340
14
 93
        0
 40
1.125
309
GRIDFORMAT_END
 95
        2
302
GRIDFORMAT
  1
GRIDFORMAT_BEGIN
 90
        0
 91
        1
 62
     0
 92
       -2
340
14
 93
        0
 40
1.125
309
GRIDFORMAT_END
 95
        4
302
GRIDFORMAT
  1
GRIDFORMAT_BEGIN
 90
        0
 91
        1
 62
     0
 92
       -2
340
14
 93
        0
 40
1.125
309
GRIDFORMAT_END
 95
        8
302
GRIDFORMAT
  1
GRIDFORMAT_BEGIN
 90
        0
 91
        1
 62
     0
 92
       -2
340
14
 93
        0
 40
1.125
309
GRIDFORMAT_END
 95
       16
302
GRIDFORMAT
  1
GRIDFORMAT_BEGIN
 90
        0
 91
        1
 62
     0
 92
       -2
340
14
 93
        0
 40
1.125
309
GRIDFORMAT_END
 95
       32
302
GRIDFORMAT
  1
GRIDFORMAT_BEGIN
 90
        0
 91
        1
 62
     0
 92
       -2
340
14
 93
        0
 40
1.125
309
GRIDFORMAT_END
309
TABLEFORMAT_END
  1
CELLSTYLE_BEGIN
 90
        1
 91
        1
300
_TITLE
309
CELLSTYLE_END
300
CELLSTYLE
  1
TABLEFORMAT_BEGIN
 90
        5
170
     1
 91
        0
 92
        0
 62
   257
 93
        1
300
CONTENTFORMAT
  1
CONTENTFORMAT_BEGIN
 90
        0
 91
        0
 92
      512
 93
        0
300

 40
0.0
140
1.0
 94
        5
 62
     0
340
11
144
4.5
309
CONTENTFORMAT_END
171
     1
301
MARGIN
  1
CELLMARGIN_BEGIN
 40
1.5
 40
1.5
 40
1.5
 40
1.5
 40
0.18
 40
0.18
309
CELLMARGIN_END
 94
        6
 95
        1
302
GRIDFORMAT
  1
GRIDFORMAT_BEGIN
 90
        0
 91
        1
 62
     0
 92
       -2
340
14
 93
        0
 40
1.125
309
GRIDFORMAT_END
 95
        2
302
GRIDFORMAT
  1
GRIDFORMAT_BEGIN
 90
        0
 91
        1
 62
     0
 92
       -2
340
14
 93
        0
 40
1.125
309
GRIDFORMAT_END
 95
        4
302
GRIDFORMAT
  1
GRIDFORMAT_BEGIN
 90
        0
 91
        1
 62
     0
 92
       -2
340
14
 93
        0
 40
1.125
309
GRIDFORMAT_END
 95
        8
302
GRIDFORMAT
  1
GRIDFORMAT_BEGIN
 90
        0
 91
        1
 62
     0
 92
       -2
340
14
 93
        0
 40
1.125
309
GRIDFORMAT_END
 95
       16
302
GRIDFORMAT
  1
GRIDFORMAT_BEGIN
 90
        0
 91
        1
 62
     0
 92
       -2
340
14
 93
        0
 40
1.125
309
GRIDFORMAT_END
 95
       32
302
GRIDFORMAT
  1
GRIDFORMAT_BEGIN
 90
        0
 91
        1
 62
     0
 92
       -2
340
14
 93
        0
 40
1.125
309
GRIDFORMAT_END
309
TABLEFORMAT_END
  1
CELLSTYLE_BEGIN
 90
        2
 91
        1
300
_HEADER
309
CELLSTYLE_END
300
CELLSTYLE
  1
TABLEFORMAT_BEGIN
 90
        5
170
     1
 91
        0
 92
        0
 62
   257
 93
        1
300
CONTENTFORMAT
  1
CONTENTFORMAT_BEGIN
 90
        0
 91
        0
 92
      512
 93
        0
300

 40
0.0
140
1.0
 94
        2
 62
     0
340
11
144
4.5
309
CONTENTFORMAT_END
171
     1
301
MARGIN
  1
CELLMARGIN_BEGIN
 40
1.5
 40
1.5
 40
1.5
 40
1.5
 40
0.18
 40
0.18
309
CELLMARGIN_END
 94
        6
 95
        1
302
GRIDFORMAT
  1
GRIDFORMAT_BEGIN
 90
        0
 91
        1
 62
     0
 92
       -2
340
14
 93
        0
 40
1.125
309
GRIDFORMAT_END
 95
        2
302
GRIDFORMAT
  1
GRIDFORMAT_BEGIN
 90
        0
 91
        1
 62
     0
 92
       -2
340
14
 93
        0
 40
1.125
309
GRIDFORMAT_END
 95
        4
302
GRIDFORMAT
  1
GRIDFORMAT_BEGIN
 90
        0
 91
        1
 62
     0
 92
       -2
340
14
 93
        0
 40
1.125
309
GRIDFORMAT_END
 95
        8
302
GRIDFORMAT
  1
GRIDFORMAT_BEGIN
 90
        0
 91
        1
 62
     0
 92
       -2
340
14
 93
        0
 40
1.125
309
GRIDFORMAT_END
 95
       16
302
GRIDFORMAT
  1
GRIDFORMAT_BEGIN
 90
        0
 91
        1
 62
     0
 92
       -2
340
14
 93
        0
 40
1.125
309
GRIDFORMAT_END
 95
       32
302
GRIDFORMAT
  1
GRIDFORMAT_BEGIN
 90
        0
 91
        1
 62
     0
 92
       -2
340
14
 93
        0
 40
1.125
309
GRIDFORMAT_END
309
TABLEFORMAT_END
  1
CELLSTYLE_BEGIN
 90
        3
 91
        2
300
_DATA
309
CELLSTYLE_END
  0
ENDSEC
  0
SECTION
  2
ACDSDATA
 70
     2
 71
     8
  0
ACDSSCHEMA
 90
        0
  1
AcDb_Thumbnail_Schema
  2
AcDbDs::ID
280
    10
 91
        8
  2
Thumbnail_Data
280
    15
 91
        0
101
ACDSRECORD
 95
        0
 90
        1
  2
AcDbDs::TreatedAsObjectData
280
     1
291
     1
101
ACDSRECORD
 95
        0
 90
        2
  2
AcDbDs::Legacy
280
     1
291
     1
101
ACDSRECORD
  1
AcDbDs::ID
 90
        3
  2
AcDs:Indexable
280
     1
291
     1
101
ACDSRECORD
  1
AcDbDs::ID
 90
        4
  2
AcDbDs::HandleAttribute
280
     7
282
     1
  0
ACDSSCHEMA
 90
        1
  1
AcDbDs::TreatedAsObjectDataSchema
  2
AcDbDs::TreatedAsObjectData
280
     1
 91
        0
  0
ACDSSCHEMA
 90
        2
  1
AcDbDs::LegacySchema
  2
AcDbDs::Legacy
280
     1
 91
        0
  0
ACDSSCHEMA
 90
        3
  1
AcDbDs::IndexedPropertySchema
  2
AcDs:Indexable
280
     1
 91
        0
  0
ACDSSCHEMA
 90
        4
  1
AcDbDs::HandleAttributeSchema
  2
AcDbDs::HandleAttribute
280
     7
 91
        1
284
     1
  0
ACDSRECORD
 90
        0
  2
AcDbDs::ID
280
    10
320
22
  2
Thumbnail_Data
280
    15
 94
     2253
310
89504E470D0A1A0A0000000D49484452000001000000006E0803000000FF253DCA00000300504C5445212830FFFFFF2128300000000000000000000000000000000000000000000000000000330000660000990000CC0000FF0033000033330033660033990033CC0033FF0066000066330066660066990066CC0066FF0099
310
000099330099660099990099CC0099FF00CC0000CC3300CC6600CC9900CCCC00CCFF00FF0000FF3300FF6600FF9900FFCC00FFFF3300003300333300663300993300CC3300FF3333003333333333663333993333CC3333FF3366003366333366663366993366CC3366FF3399003399333399663399993399CC3399FF33CC00
310
33CC3333CC6633CC9933CCCC33CCFF33FF0033FF3333FF6633FF9933FFCC33FFFF6600006600336600666600996600CC6600FF6633006633336633666633996633CC6633FF6666006666336666666666996666CC6666FF6699006699336699666699996699CC6699FF66CC0066CC3366CC6666CC9966CCCC66CCFF66FF0066
310
FF3366FF6666FF9966FFCC66FFFF9900009900339900669900999900CC9900FF9933009933339933669933999933CC9933FF9966009966339966669966999966CC9966FF9999009999339999669999999999CC9999FF99CC0099CC3399CC6699CC9999CCCC99CCFF99FF0099FF3399FF6699FF9999FFCC99FFFFCC0000CC00
310
33CC0066CC0099CC00CCCC00FFCC3300CC3333CC3366CC3399CC33CCCC33FFCC6600CC6633CC6666CC6699CC66CCCC66FFCC9900CC9933CC9966CC9999CC99CCCC99FFCCCC00CCCC33CCCC66CCCC99CCCCCCCCCCFFCCFF00CCFF33CCFF66CCFF99CCFFCCCCFFFFFF0000FF0033FF0066FF0099FF00CCFF00FFFF3300FF3333
310
FF3366FF3399FF33CCFF33FFFF6600FF6633FF6666FF6699FF66CCFF66FFFF9900FF9933FF9966FF9999FF99CCFF99FFFFCC00FFCC33FFCC66FFCC99FFCCCCFFCCFFFFFF00FFFF33FFFF66FFFF99FFFFCCFFFFFF0000000D0D0D1A1A1A2828283535354343435050505D5D5D6B6B6B787878868686939393A1A1A1AEAEAEBB
310
BBBBC9C9C9D6D6D6E4E4E4F1F1F1FFFFFF0000000000000000000000000000000000000000000000000000000000002E4550F1000000974944415478DAEDD03101000008C3B0C99D7F0558E0E221759026C735CF2B3FBF01FC06F01BC0CF6F00BF01FCFC06F01BC06F003FBF01FC06F0F31BC06F00BF01FCFC06F01BC06F00
310
3FBF01FC06F0F31BC06F00BF01FCFC06F01BC0CF6F00BF01FC06F0F31BC06F003FBF01FC06F01BC0CF6F00BF01FCFC06F01BC06F003FBF01FC06F01BC0CF6F00BF01FCFC06F01BC06F003FBF018B069E0A2CB18EEB138E0000000049454E44AE42608200000000E4070000000000F203A805F0F8AFE93E1EC01A203F000000
310
0000901FC07D17EDE88322EDEAE8E4F332D1F8E2CD19A20BFD860AD14FFBB56986960065E9247EB342470DD0A6193A05B88FA10DC06FB0D8545F5D86861DB02D58FC7B75B9FC3983CDDF887CFAA649EC7A75DEA3C07AB0D59D2246CAFFEE0F1C479B27EF5970962CDED77F8AA1EBC3707CDE2CE2ECAC487037E06DA3CF1788
310
DDB322CFED90C5646B4FDFDDF1A0CE29D798258BB36F3492DE0F7B258BA3AD931CE02FD9D99524FB1DD138BB926407387832783194E48F308FFBA6D08800030C0000E4070000000000F2030000000000F9010000000080FC0000000000407E0000460778FAAFB303B004000000000000F901A41C5F1C1D461C64D050330000
310
000049454E44AE426082C0F7D81B29689100F06DFC002ED6000B963721840000000049454E44AE42608291ACABF0DB890415F0C35A5A6FF8F9BE40600C2806D0C8C74DA6275FA15E08B793D26751889B8C84C31282177A9B540F20A930CCAA640F4E12D8DE22E34E38818DF5904BE25D3AD2CD09FD65DC12629930139ACEB9
310
01F891E1572D6A9D2E090D9E3405304BA96439B5EB24050020C8FA886751956137183528BCA4CC2C222ACAEECE18C047FDCC2C1E21967076AD1903AEB0E3C750DB121170E96F690B518DCB0A068C2C4115626EBA1DA4C7319070529CFE9310413FA0A70581FD7AFC6A245B527E8EDB3BF92406F85926CE27102E1DC07AD816
310
F218082B257408D8F4F700E27C8CD431E3852275276D821007F88A354BF2400F279082AD5D9DF40810F8D2C974F8EB3E992D6D58C2270F3345B9E3348D142E0416028322C0D5DAA09A6F639403E3936021B010C092C285C0424085C090E732170734A9C43911D8C64700C61178DE17378D409550C42E02B522319B08D4DC74
310
63CFA23498949A64E30FCFD476082A6721D803597511A87EC413A65CA26629281B2E51CB0C9C1281076EAE6A5D6CC1D6444408DC1E1E1A48BFB207F31EB4022B95366D74A09B62AB6710F0F7C1CD890098DB20AB934383009EE67E13DBA8E712B1A55F6D0C039A2770F3F0D176F2EB21C01C6C69BB2CE88A0E2FF4D4E5A31D
310
98F00914E710B74B15950527D24411BAA8EC32BCCCF13EDD377239A8B2F054535BBEB1C3B7703F30940F492FF502CF0D98D87FD097DEE206EE3F9C6A780201B91948263F1117F30088854036F91D524054B20DCDF0D3FFB9D1AA88ED260EA078F28000C7CADB93EE4100CC1D70D4196713C3BF58830F7A7A919B7C5702A079
310
8AF41202207F54C92202D3715D00403904656567CF3F01ED57C4ABE730A87B37A2B91464816C38452A0418BF18725D3394205699208AE19C38CFD1DEF4E98857880090DB68856CF2B159AAC552F6A4781D09E4DC37548C763DD3415CF9253EA4D125000979A3E964D33CE95BA33A8B88907F031C3EAF7F4067D1A0BC3359EA
310
FB774214BF4A78AB9759004ADD4794FF8568D1B7F6C2307D9E272B85B280C0DC258652EE0BFE4DF292E0E4C1CC86C91F346871866E3451570000000049454E44AE42608281F0077DB8556A0A82B1130000000049454E44AE426082D4F8C0BF47383386FE15F82E82D8D42DC3207E57E93796F8D415D337D783E86DA5BD1A20
310
9E01BA1150149A3CBD400E5684D3DB5B7592FFD11B33389D07171A213C7CB31AC320B6DC7688FF95241D82AAC989F2008FDFA5059DDDF8580FF8F84E0EABD68C0280052BE5E78C81F01F0E27FD9C820F741B0000000049454E44AE426082
  0
ENDSEC
  0
EOF
